<?xml version="1.0" encoding="UTF-8" standalone="no"?>
<!-- Created with Inkscape (http://www.inkscape.org/) -->

<svg
   xmlns:dc="http://purl.org/dc/elements/1.1/"
   xmlns:cc="http://creativecommons.org/ns#"
   xmlns:rdf="http://www.w3.org/1999/02/22-rdf-syntax-ns#"
   xmlns:svg="http://www.w3.org/2000/svg"
   xmlns="http://www.w3.org/2000/svg"
   xmlns:sodipodi="http://sodipodi.sourceforge.net/DTD/sodipodi-0.dtd"
   xmlns:inkscape="http://www.inkscape.org/namespaces/inkscape"
   id="svg2"
   sodipodi:docname="home.svg"
   viewBox="0 0 463.89 438.88"
   sodipodi:version="0.32"
   version="1.0"
   inkscape:output_extension="org.inkscape.output.svg.inkscape"
   inkscape:version="0.48.4 r9939"
   width="100%"
   height="100%">
  <defs
     id="defs10">
    <rect
       height="9"
       width="9"
       id="p" />
  </defs>
  <sodipodi:namedview
     id="base"
     bordercolor="#666666"
     inkscape:pageshadow="2"
     guidetolerance="10"
     pagecolor="#ffffff"
     gridtolerance="10000"
     inkscape:window-height="954"
     inkscape:zoom="1.4098083"
     objecttolerance="10"
     showgrid="false"
     borderopacity="1.0"
     inkscape:current-layer="layer1"
     inkscape:cx="119.16514"
     inkscape:cy="219.43852"
     inkscape:window-y="40"
     inkscape:window-x="239"
     inkscape:window-width="1495"
     inkscape:pageopacity="0.0"
     inkscape:document-units="px"
     inkscape:window-maximized="0" />
  <g
     id="layer1"
     inkscape:label="Layer 1"
     inkscape:groupmode="layer"
     transform="translate(-42.339 -276.34)">
    <path
       style="fill:#aa4400;fill-opacity:1;stroke:none"
       d="M 29.375 2.65625 C 16.251952 2.65625 5.6875 13.2207 5.6875 26.34375 L 5.6875 412.375 C 5.6875 425.49805 16.251952 436.0625 29.375 436.0625 L 437.375 436.0625 C 450.49805 436.0625 461.0625 425.49805 461.0625 412.375 L 461.0625 26.34375 C 461.0625 13.2207 450.49805 2.65625 437.375 2.65625 L 29.375 2.65625 z M 122 40.25 L 351.125 40.25 C 398.28035 40.25 436.21875 78.219651 436.21875 125.375 C 436.21875 172.53035 398.28035 210.46875 351.125 210.46875 L 304.8125 212.59375 L 350.28125 61.25 L 294.375 62.21875 L 122 210.46875 C 86.248752 241.21734 36.875 172.53035 36.875 125.375 C 36.875 78.219651 74.844646 40.25 122 40.25 z M 283.71875 129.625 L 236.90625 202.6875 L 195.78125 202.6875 L 265.28125 131.75 L 283.71875 129.625 z M 170.4375 242.8125 C 176.43705 242.81266 181.98292 244.04448 187.09375 246.5 C 192.20444 248.95584 196.66684 252.6513 200.5 257.5625 C 205.22182 263.64688 208.85078 271.46522 211.40625 281.03125 C 213.96155 290.59752 215.2499 302.9512 215.25 318.125 C 215.2499 332.41934 214.0032 345.40724 211.53125 357.0625 C 209.0591 368.71785 205.34333 378.66499 200.34375 386.875 C 195.28846 395.23166 188.95428 401.67392 181.34375 406.21875 C 173.7331 410.7636 164.77703 413.03125 154.5 413.03125 C 151.61127 413.03125 148.89912 412.84067 146.34375 412.4375 C 143.78835 412.03433 141.49985 411.37964 139.5 410.5 L 139.5 389.5 L 140.34375 389.5 C 141.95474 390.59958 144.24324 391.63542 147.1875 392.625 C 150.13172 393.61462 153.38911 394.12501 157 394.125 C 169.27691 394.12501 178.9032 389.27529 185.875 379.5625 C 192.84668 369.84978 196.88888 356.45485 198 339.375 C 192.83361 343.48008 187.96144 346.39702 183.40625 348.15625 C 178.85096 349.91561 173.88847 350.78131 168.5 350.78125 C 163.38919 350.78131 158.76357 350.13203 154.625 348.8125 C 150.48635 347.49309 146.35385 344.93687 142.1875 341.125 C 137.29893 336.65353 133.59705 330.95315 131.125 324.0625 C 128.65294 317.17204 127.43749 308.94665 127.4375 299.34375 C 127.43749 282.63058 131.60472 269.01386 139.9375 258.53125 C 148.27024 248.04896 158.43828 242.81266 170.4375 242.8125 z M 281 242.8125 C 295.88782 242.81266 306.76428 249.88916 313.625 264 C 320.48555 278.11112 323.90616 299.4224 323.90625 327.9375 C 323.90616 357.33241 320.44041 378.88055 313.46875 392.625 C 306.49694 406.36949 295.66562 413.25 281 413.25 C 266.11208 413.25 255.23562 406.27149 248.375 392.34375 C 241.51435 378.41604 238.09374 357.03804 238.09375 328.15625 C 238.09374 299.05472 241.556 277.54746 248.5 263.65625 C 255.44394 249.76532 266.27875 242.81266 281 242.8125 z M 405.75 243.15625 C 412.41614 243.15641 419.04898 244.21809 425.6875 246.34375 C 432.32585 248.46972 439.70182 252.21148 447.8125 257.5625 L 447.8125 283.40625 L 446.5625 283.40625 C 439.72954 275.85608 432.97168 270.35168 426.25 266.90625 C 419.52815 263.46112 412.32234 261.7189 404.65625 261.71875 C 398.37885 261.7189 392.7149 263.07455 387.6875 265.75 C 382.66002 268.42574 378.19415 272.57449 374.25 278.21875 C 370.4169 283.71667 367.41997 290.66931 365.28125 299.0625 C 363.14248 307.45589 362.06248 317.16076 362.0625 328.15625 C 362.06248 339.66504 363.26403 349.56047 365.625 357.84375 C 367.98593 366.12714 371.02801 372.85796 374.75 378.0625 C 378.63858 383.48702 383.18088 387.49148 388.375 390.09375 C 393.56904 392.69605 399.03506 394.00001 404.8125 394 C 412.75635 394.00001 420.2122 392.21691 427.15625 388.625 C 434.10013 385.03313 440.601 379.65256 446.65625 372.46875 L 447.8125 372.46875 L 447.8125 397.96875 C 444.75705 399.72805 442.0032 401.36687 439.53125 402.90625 C 437.0591 404.44563 433.81214 406.06401 429.8125 407.75 C 426.42375 409.14278 422.75311 410.32289 418.78125 411.3125 C 414.80922 412.3021 410.43363 412.8125 405.65625 412.8125 C 396.65679 412.8125 388.48557 411.14782 381.125 407.8125 C 373.76435 404.47718 367.35031 399.23549 361.90625 392.125 C 356.57327 385.16115 352.40603 376.33281 349.40625 365.59375 C 346.40644 354.85479 344.90625 342.37727 344.90625 328.15625 C 344.90625 314.66843 346.36131 302.59792 349.25 291.96875 C 352.13869 281.33981 356.30591 272.36178 361.75 265.03125 C 367.0274 257.92093 373.40326 252.48866 380.875 248.75 C 388.34668 245.01167 396.63944 243.15641 405.75 243.15625 z M 30.25 246.125 L 104.9375 246.125 L 104.9375 265.375 L 46.34375 265.375 L 46.34375 308.90625 C 48.732442 308.61313 51.187623 308.3967 53.6875 308.25 C 56.187281 308.10349 58.35424 308.03135 60.1875 308.03125 C 66.9092 308.03135 72.78848 308.77862 77.84375 310.28125 C 82.89889 311.78408 87.52799 314.43829 91.75 318.25 C 96.19406 322.2818 99.64938 327.49763 102.09375 333.875 C 104.53794 340.2525 105.7499 348.241 105.75 357.84375 C 105.7499 365.4674 104.70462 372.75491 102.59375 379.71875 C 100.48269 386.68265 97.60383 392.54777 93.9375 397.3125 C 89.93768 402.44379 85.15233 406.37611 79.625 409.125 C 74.09754 411.8739 67.71474 413.25 60.4375 413.25 C 53.660143 413.25 47.121066 412.30676 40.84375 410.4375 C 34.566371 408.56826 29.270521 406.32645 24.9375 403.6875 L 24.9375 380.46875 L 26.09375 380.46875 C 30.648976 384.28058 35.983026 387.54317 42.09375 390.21875 C 48.204408 392.89436 54.205217 394.21877 60.09375 394.21875 C 64.03787 394.21877 67.86826 393.49735 71.5625 392.03125 C 75.25663 390.5652 78.54874 388.00897 81.4375 384.34375 C 83.88171 381.19172 85.71875 377.39826 86.96875 373 C 88.21858 368.6018 88.84369 363.50981 88.84375 357.71875 C 88.84369 352.07441 88.09703 347.32267 86.625 343.4375 C 85.15279 339.55246 83.11087 336.43954 80.5 334.09375 C 77.61124 331.30827 74.1073 329.32379 69.96875 328.1875 C 65.83008 327.05138 61.204475 326.50008 56.09375 326.5 C 51.205155 326.50008 46.496187 326.93294 41.96875 327.8125 C 37.441251 328.69224 33.527532 329.58918 30.25 330.46875 L 30.25 246.125 z M 170.25 260.75 C 162.2505 260.75015 155.95104 264.02779 151.3125 270.625 C 146.67391 277.22248 144.34372 286.52033 144.34375 298.46875 C 144.34372 305.43272 145.09383 311.10187 146.59375 315.5 C 148.09362 319.89832 150.63214 323.73267 154.1875 327.03125 C 156.68729 329.30375 159.43766 330.82414 162.4375 331.59375 C 165.43724 332.36352 168.77103 332.75008 172.4375 332.75 C 176.77049 332.75008 181.14955 332.0082 185.59375 330.46875 C 190.03783 328.92945 194.20505 326.68225 198.09375 323.75 C 198.14925 322.21072 198.19785 320.69032 198.28125 319.1875 C 198.36445 317.68487 198.40617 315.75206 198.40625 313.40625 C 198.40617 302.04425 197.52757 292.92193 195.75 286.03125 C 193.97227 279.14081 191.51708 273.78069 188.40625 269.96875 C 185.79526 266.67023 182.99974 264.30457 180 262.875 C 177.00015 261.44573 173.74971 260.75015 170.25 260.75 z M 281 260.96875 C 275.7781 260.9689 271.44766 262.3913 268.03125 265.25 C 264.61478 268.109 261.90608 272.42788 259.90625 278.21875 C 258.01745 283.64337 256.72562 290.71445 256.03125 299.4375 C 255.33683 308.16076 254.99996 317.7472 255 328.15625 C 254.99996 339.59173 255.29515 349.1469 255.90625 356.84375 C 256.5173 364.5407 257.84387 371.41581 259.84375 377.5 C 261.67694 383.21772 264.26408 387.58831 267.625 390.59375 C 270.98584 393.59923 275.44478 395.09376 281 395.09375 C 286.22182 395.09376 290.55573 393.67137 294 390.8125 C 297.44415 387.95367 300.11116 383.63479 302 377.84375 C 303.94424 371.90618 305.27427 364.93308 305.96875 356.90625 C 306.66308 348.87954 306.99994 339.22637 307 327.9375 C 306.99994 316.7954 306.66308 307.11639 305.96875 298.90625 C 305.27427 290.69634 303.90605 283.71783 301.90625 278 C 299.96187 272.35574 297.32957 268.109 293.96875 265.25 C 290.6078 262.3913 286.27738 260.9689 281 260.96875 z "
       transform="translate(42.338995,276.34)"
       id="rect2993" />
    <text
       xml:space="preserve"
       style="font-size:40px;font-style:normal;font-weight:normal;line-height:125%;letter-spacing:0px;word-spacing:0px;fill:#000000;fill-opacity:1;stroke:none;font-family:Sans"
       x="200.02721"
       y="118.97835"
       id="text2989"
       sodipodi:linespacing="125%"
       transform="translate(42.338995,276.34)"><tspan
         sodipodi:role="line"
         id="tspan2991"
         x="200.02721"
         y="118.97835" /></text>
  </g>
  <metadata
     id="metadata8">
    <rdf:RDF>
      <cc:Work>
        <dc:format>image/svg+xml</dc:format>
        <dc:type
           rdf:resource="http://purl.org/dc/dcmitype/StillImage" />
        <cc:license
           rdf:resource="http://creativecommons.org/licenses/publicdomain/" />
        <dc:publisher>
          <cc:Agent
             rdf:about="http://openclipart.org/">
            <dc:title>Openclipart</dc:title>
          </cc:Agent>
        </dc:publisher>
        <dc:title>home</dc:title>
        <dc:date>2008-10-08T17:41:00</dc:date>
        <dc:description>black home icon</dc:description>
        <dc:source>https://openclipart.org/detail/19535/home-by-dynnamitt</dc:source>
        <dc:creator>
          <cc:Agent>
            <dc:title>dynnamitt</dc:title>
          </cc:Agent>
        </dc:creator>
        <dc:subject>
          <rdf:Bag>
            <rdf:li>home</rdf:li>
            <rdf:li>house</rdf:li>
            <rdf:li>icon</rdf:li>
            <rdf:li>silhouette</rdf:li>
          </rdf:Bag>
        </dc:subject>
      </cc:Work>
      <cc:License
         rdf:about="http://creativecommons.org/licenses/publicdomain/">
        <cc:permits
           rdf:resource="http://creativecommons.org/ns#Reproduction" />
        <cc:permits
           rdf:resource="http://creativecommons.org/ns#Distribution" />
        <cc:permits
           rdf:resource="http://creativecommons.org/ns#DerivativeWorks" />
      </cc:License>
    </rdf:RDF>
  </metadata>
</svg>
