<svg xmlns="http://www.w3.org/2000/svg" viewBox="0 0 200 80" width="200" height="80"><path d="M.965 1.23h97.83v77.443H.964z" fill="#f9f9f9"/><path d="M10.133 7.02l17.853 6.273L46.803 7.02S55.92 22.875 46.2 35.37c-7.505 9.648-22.84 6.472-36.67 0-9.36-4.38.603-28.347.603-28.347z" fill="#ff0"/><path d="M71.05 42.545a16.767 15.38 0 0 1-16.768 15.38 16.767 15.38 0 0 1-16.767-15.38 16.767 15.38 0 0 1 16.767-15.38 16.767 15.38 0 0 1 16.767 15.38z" fill="red"/><path style="line-height:125%" d="M20.318 19.137v.945h.746v-.945h-.746zm15.203 0v.945h.748v-.945h-.747zm-20.858.256v6.05h2.172c.678 0 1.2-.148 1.568-.443.368-.294.55-.71.55-1.25 0-.412-.11-.754-.335-1.027-.22-.275-.535-.456-.937-.543.335-.054.59-.19.76-.408.174-.22.26-.513.26-.883 0-.48-.167-.85-.505-1.108-.337-.26-.82-.39-1.443-.39h-2.09zm7.945.223v1.29h-.546v.58h.547v2.462c0 .567.11.96.33 1.176.217.213.615.32 1.19.32h.766v-.625h-.766c-.31 0-.517-.054-.62-.16-.1-.105-.15-.342-.15-.712v-2.463h1.536v-.58h-1.536v-1.29h-.75zm-7.127.45h1.21c.4 0 .7.076.894.227.197.152.295.38.295.684 0 .308-.1.538-.296.69-.195.148-.493.222-.893.222h-1.21v-1.825zm12.354.73c-.708 0-1.264.212-1.672.636-.405.424-.61 1.006-.61 1.746 0 .73.204 1.31.606 1.738.403.43.946.645 1.63.645.25 0 .487-.025.708-.073.224-.05.44-.122.65-.22v-.686c-.212.117-.425.203-.638.262-.21.057-.425.086-.64.086-.484 0-.86-.152-1.128-.457-.267-.307-.4-.738-.4-1.292s.133-.984.4-1.29c.268-.307.644-.46 1.127-.46.216 0 .43.03.64.088.214.057.427.144.638.26v-.697c-.206-.096-.418-.166-.637-.212-.22-.05-.444-.073-.674-.073zm4.373 0c-.65 0-1.16.21-1.53.632-.37.422-.552 1.005-.552 1.75 0 .743.183 1.326.55 1.75.37.422.88.633 1.532.633.648 0 1.157-.21 1.527-.632.37-.424.555-1.007.555-1.75 0-.745-.186-1.328-.556-1.75-.37-.42-.88-.633-1.527-.633zm7.805 0c-.316 0-.597.067-.84.203-.24.134-.45.337-.627.61v-.705h-.75v4.54h.75v-2.568c0-.443.115-.792.348-1.048.232-.258.55-.386.953-.386.335 0 .586.107.754.32.167.214.25.534.25.963v2.717h.746v-2.74c0-.627-.133-1.1-.4-1.422-.268-.324-.663-.487-1.184-.487zm-19.694.11v4.538h.746v-4.54h-.746zm15.203 0v4.538h.748v-4.54h-.747zm-3.313.522c.397 0 .71.157.943.473.233.314.35.74.35 1.278 0 .54-.117.966-.35 1.28-.232.313-.546.47-.943.47-.402 0-.72-.156-.953-.467-.23-.312-.344-.74-.344-1.282 0-.543.117-.97.35-1.28.232-.314.547-.47.947-.47zM15.48 22.553h1.313c.44 0 .766.09.977.272.213.178.32.457.32.836 0 .376-.107.655-.32.84-.21.18-.537.27-.977.27H15.48v-2.217z" font-family="Sans" letter-spacing="0" word-spacing="0" fill="#007e00"/><path d="M135.344 61.544l-12.04-7.73-2.86 14.02-5.198-13.33-10.553 9.66 3.63-13.838-14.216 1.613 11.07-9.064-12.448-7.05L107.012 35l-5.927-13.022 12.04 7.73 2.86-14.02 5.197 13.33 10.553-9.66-3.63 13.84 14.217-1.614-11.072 9.062 12.45 7.052-14.283.824z" fill="#007e00"/><path d="M129.795 50.084l-9.65-4.514-.724 10.63-5.152-9.325-6.834 8.172 1.31-10.572-10.33 2.595 7.274-7.782-9.884-3.974 10.46-2.02-5.66-9.024 9.65 4.514.723-10.628 5.153 9.324 6.834-8.173-1.31 10.572 10.33-2.596-7.274 7.782 9.884 3.974-10.46 2.02z" fill="red"/><path d="M115.923 2.557l69.24-.723L197.95 77.83l-94.934.722-1.93-23.642 3.86 14.113 7.237-3.86 13.872 7.48 20.507-16.407 1.93-25.33-22.798-17.13-23.04 4.825z" fill="#fea"/></svg>