<?xml version="1.0" encoding="UTF-8" standalone="no"?>
<svg
   xmlns:dc="http://purl.org/dc/elements/1.1/"
   xmlns:cc="http://creativecommons.org/ns#"
   xmlns:rdf="http://www.w3.org/1999/02/22-rdf-syntax-ns#"
   xmlns:svg="http://www.w3.org/2000/svg"
   xmlns="http://www.w3.org/2000/svg"
   xmlns:sodipodi="http://sodipodi.sourceforge.net/DTD/sodipodi-0.dtd"
   xmlns:inkscape="http://www.inkscape.org/namespaces/inkscape"
   viewBox="0 0 200 80"
   id="svg2"
   version="1.1"
   inkscape:version="0.91 r13725"
   sodipodi:docname="qr3base.svg"
   width="200"
   height="80">
  <metadata
     id="metadata10">
    <rdf:RDF>
      <cc:Work
         rdf:about="">
        <dc:format>image/svg+xml</dc:format>
        <dc:type
           rdf:resource="http://purl.org/dc/dcmitype/StillImage" />
        <dc:title></dc:title>
      </cc:Work>
    </rdf:RDF>
  </metadata>
  <defs
     id="defs8" />
  <sodipodi:namedview
     pagecolor="#ffffff"
     bordercolor="#666666"
     borderopacity="1"
     objecttolerance="10"
     gridtolerance="10"
     guidetolerance="10"
     inkscape:pageopacity="0"
     inkscape:pageshadow="2"
     inkscape:window-width="1287"
     inkscape:window-height="885"
     id="namedview6"
     showgrid="false"
     inkscape:zoom="4.145"
     inkscape:cx="100"
     inkscape:cy="40"
     inkscape:window-x="0"
     inkscape:window-y="0"
     inkscape:window-maximized="0"
     inkscape:current-layer="svg2" />
  <path
     style="opacity:1;fill:#f9f9f9;fill-opacity:1;stroke:none;stroke-width:1;stroke-miterlimit:1;stroke-dasharray:none;stroke-dashoffset:0;stroke-opacity:1"
     d="m 0.96501809,1.2303981 97.82871291,0 0,77.4427029 -97.82871291,0 z"
     id="rect4163"
     inkscape:connector-curvature="0" />
  <path
     style="opacity:1;fill:#ffff00;fill-opacity:1;stroke:none;stroke-width:1;stroke-miterlimit:4;stroke-dasharray:none;stroke-dashoffset:0;stroke-opacity:1"
     d="M 10.13269,7.0205071 27.985525,13.293125 46.803379,7.0205071 c 0,0 9.116463,15.8533789 -0.603136,28.3474049 -7.505516,9.64794 -22.840353,6.472074 -36.6706893,0 C 0.16994899,30.987972 10.13269,7.0205071 10.13269,7.0205071 Z"
     id="rect4138"
     inkscape:connector-curvature="0"
     sodipodi:nodetypes="cccssc" />
  <path
     style="opacity:1;fill:#ff0000;fill-opacity:1;stroke:none;stroke-width:1;stroke-miterlimit:4;stroke-dasharray:none;stroke-dashoffset:0;stroke-opacity:1"
     d="M 71.049457,42.545236 A 16.767189,15.379976 0 0 1 54.282268,57.925213 16.767189,15.379976 0 0 1 37.515079,42.545236 16.767189,15.379976 0 0 1 54.282268,27.16526 16.767189,15.379976 0 0 1 71.049457,42.545236 Z"
     id="path4141"
     inkscape:connector-curvature="0" />
  <path
     style="font-style:normal;font-weight:normal;font-size:medium;line-height:125%;font-family:Sans;letter-spacing:0px;word-spacing:0px;fill:#007e00;fill-opacity:1;stroke:none;stroke-width:1px;stroke-linecap:butt;stroke-linejoin:miter;stroke-opacity:1"
     d="m 20.318359,19.13718 0,0.945313 0.746094,0 0,-0.945313 -0.746094,0 z m 15.203125,0 0,0.945313 0.746094,0 0,-0.945313 -0.746094,0 z m -20.859375,0.25586 0,6.050781 2.171875,0 c 0.678047,0 1.200972,-0.148909 1.56836,-0.44336 0.367387,-0.294449 0.550781,-0.711677 0.550781,-1.251953 0,-0.41061 -0.111723,-0.752551 -0.335937,-1.02539 -0.221513,-0.275541 -0.534995,-0.456524 -0.9375,-0.542969 0.334971,-0.05403 0.58883,-0.189391 0.761718,-0.408203 0.172889,-0.218811 0.259766,-0.512723 0.259766,-0.882813 0,-0.478144 -0.168187,-0.84809 -0.50586,-1.107422 -0.337672,-0.259332 -0.81934,-0.388671 -1.443359,-0.388671 l -2.089844,0 z m 7.945313,0.222656 0,1.289062 -0.546875,0 0,0.580079 0.546875,0 0,2.46289 c 0,0.56729 0.109313,0.959671 0.328125,1.175781 0.218812,0.213409 0.616012,0.320313 1.191406,0.320313 l 0.765625,0 0,-0.625 -0.765625,0 c -0.310659,0 -0.516488,-0.05285 -0.619141,-0.158203 -0.09995,-0.105354 -0.15039,-0.342802 -0.15039,-0.712891 l 0,-2.46289 1.535156,0 0,-0.580079 -1.535156,0 0,-1.289062 -0.75,0 z m -7.126953,0.449219 1.210937,0 c 0.399804,0 0.698079,0.07724 0.892578,0.228515 0.197202,0.151278 0.294922,0.378339 0.294922,0.683594 0,0.307958 -0.09772,0.538176 -0.294922,0.689453 -0.194499,0.148576 -0.492774,0.222656 -0.892578,0.222656 l -1.210937,0 0,-1.824218 z m 12.353515,0.730468 c -0.707762,0 -1.263967,0.212602 -1.671875,0.636719 -0.405207,0.424117 -0.609375,1.005915 -0.609375,1.746094 0,0.729373 0.202964,1.308762 0.605469,1.738281 0.402506,0.429519 0.945457,0.644531 1.628906,0.644531 0.251228,0 0.487471,-0.02559 0.708985,-0.07422 0.224214,-0.04862 0.440431,-0.1215 0.648437,-0.21875 l 0,-0.6875 c -0.210707,0.116156 -0.423309,0.202285 -0.636719,0.261718 -0.210707,0.05673 -0.424514,0.08594 -0.640624,0.08594 -0.483547,0 -0.859517,-0.151775 -1.126954,-0.457031 -0.267436,-0.307958 -0.40039,-0.739186 -0.40039,-1.292969 0,-0.553783 0.132954,-0.983807 0.40039,-1.289063 0.267437,-0.307957 0.643407,-0.460937 1.126954,-0.460937 0.21611,0 0.429917,0.02846 0.640624,0.08789 0.21341,0.05673 0.426012,0.143606 0.636719,0.259765 l 0,-0.697265 c -0.205304,-0.09455 -0.417906,-0.165018 -0.636719,-0.210938 -0.218811,-0.04863 -0.44421,-0.07227 -0.673828,-0.07227 z m 4.373047,0 c -0.651032,0 -1.16116,0.211398 -1.53125,0.632813 -0.367387,0.421415 -0.550781,1.004419 -0.550781,1.75 0,0.742879 0.183394,1.325883 0.550781,1.75 0.37009,0.421415 0.880218,0.632812 1.53125,0.632812 0.648332,0 1.157255,-0.211397 1.527344,-0.632812 0.370089,-0.424117 0.554687,-1.007121 0.554687,-1.75 10e-7,-0.745581 -0.184598,-1.328585 -0.554687,-1.75 -0.370089,-0.421415 -0.879012,-0.632813 -1.527344,-0.632813 z m 7.804688,0 c -0.316062,0 -0.596719,0.06806 -0.839844,0.203125 -0.240423,0.135069 -0.448662,0.338489 -0.626953,0.611329 l 0,-0.705079 -0.75,0 0,4.539063 0.75,0 0,-2.566406 c 0,-0.443027 0.115337,-0.792197 0.347656,-1.048828 0.232319,-0.256631 0.550619,-0.384766 0.953125,-0.384766 0.334971,0 0.586421,0.106904 0.753906,0.320312 0.167486,0.21341 0.25,0.533372 0.25,0.962891 l 0,2.716797 0.746094,0 0,-2.740234 c 0,-0.62672 -0.132954,-1.100412 -0.400391,-1.421876 -0.267436,-0.324165 -0.662227,-0.486328 -1.183593,-0.486328 z m -19.69336,0.109375 0,4.539063 0.746094,0 0,-4.539063 -0.746094,0 z m 15.203125,0 0,4.539063 0.746094,0 0,-4.539063 -0.746094,0 z m -3.314453,0.523438 c 0.397103,0 0.71104,0.156594 0.94336,0.472656 0.232318,0.31336 0.349609,0.739769 0.349609,1.277344 0,0.540276 -0.117291,0.965937 -0.349609,1.279297 -0.23232,0.31336 -0.546257,0.470703 -0.94336,0.470703 -0.402505,0 -0.720806,-0.156138 -0.953125,-0.466797 -0.229617,-0.31336 -0.34375,-0.740226 -0.34375,-1.283203 0,-0.542977 0.117291,-0.970591 0.34961,-1.28125 0.232318,-0.31336 0.547461,-0.46875 0.947265,-0.46875 z m -16.726562,1.125 1.3125,0 c 0.440324,0 0.765854,0.09049 0.976562,0.271484 0.213409,0.178291 0.320313,0.457744 0.320313,0.835938 0,0.375492 -0.106904,0.654196 -0.320313,0.83789 -0.210708,0.180992 -0.536238,0.271485 -0.976562,0.271485 l -1.3125,0 0,-2.216797 z"
     id="path4149"
     inkscape:connector-curvature="0" />
  <path
     style="opacity:1;fill:#007e00;fill-opacity:1;stroke:none;stroke-width:1;stroke-miterlimit:1;stroke-dasharray:none;stroke-dashoffset:0;stroke-opacity:1"
     d="m 135.34379,61.544029 -12.04033,-7.728969 -2.85911,14.018993 -5.19786,-13.33 -10.55322,9.661063 3.63002,-13.839423 -14.216371,1.612936 11.071351,-9.062657 -12.449338,-7.051278 14.283808,-0.824264 -5.92709,-13.022143 12.04034,7.728969 2.8591,-14.018993 5.19786,13.33 10.55323,-9.661063 -3.63002,13.839423 14.21636,-1.612937 -11.07135,9.062658 12.44934,7.051278 -14.28381,0.824264 z"
     id="path4136" />
  <path
     style="opacity:1;fill:#ff0000;fill-opacity:1;stroke:none;stroke-width:1;stroke-miterlimit:1;stroke-dasharray:none;stroke-dashoffset:0;stroke-opacity:1"
     d="m 129.79493,50.08444 -9.6494,-4.514228 -0.72478,10.628442 -5.15313,-9.32386 -6.83361,8.172572 1.31146,-10.572094 -10.332221,2.595057 7.275111,-7.782148 -9.884276,-3.973682 10.459926,-2.019685 -5.66088,-9.024609 9.64939,4.514228 0.72479,-10.628442 5.15313,9.323859 6.83361,-8.172571 -1.31146,10.572094 10.33222,-2.595057 -7.27512,7.782148 9.88428,3.973681 -10.45992,2.019686 z"
     id="path4138" />
  <path
     style="opacity:1;fill:#ffeeaa;fill-opacity:1;stroke:none;stroke-width:1;stroke-miterlimit:1;stroke-dasharray:none;stroke-dashoffset:0;stroke-opacity:1"
     d="m 115.92279,2.557298 69.24006,-0.7237636 12.78649,75.9951756 -94.93365,0.723763 -1.93004,-23.642943 3.86007,14.113389 7.23763,-3.860072 13.87214,7.47889 20.50663,-16.405308 1.93004,-25.331725 -22.79855,-17.129071 -23.03981,4.825091 z"
     id="path4142"
     inkscape:connector-curvature="0"
     sodipodi:nodetypes="ccccccccccccc" />
</svg>
