<?xml version="1.0" encoding="UTF-8" standalone="no"?>
<svg
   xmlns:dc="http://purl.org/dc/elements/1.1/"
   xmlns:cc="http://creativecommons.org/ns#"
   xmlns:rdf="http://www.w3.org/1999/02/22-rdf-syntax-ns#"
   xmlns:svg="http://www.w3.org/2000/svg"
   xmlns="http://www.w3.org/2000/svg"
   xmlns:sodipodi="http://sodipodi.sourceforge.net/DTD/sodipodi-0.dtd"
   xmlns:inkscape="http://www.inkscape.org/namespaces/inkscape"
   viewBox="0 0 297 210"
   id="svg2"
   version="1.1"
   inkscape:version="0.91 r13725"
   sodipodi:docname="qr4.svg"
   width="297"
   height="210">
  <metadata
     id="metadata10">
    <rdf:RDF>
      <cc:Work
         rdf:about="">
        <dc:format>image/svg+xml</dc:format>
        <dc:type
           rdf:resource="http://purl.org/dc/dcmitype/StillImage" />
        <dc:title />
      </cc:Work>
    </rdf:RDF>
  </metadata>
  <defs
     id="defs8" />
  <sodipodi:namedview
     pagecolor="#ffffff"
     bordercolor="#666666"
     borderopacity="1"
     objecttolerance="10"
     gridtolerance="10"
     guidetolerance="10"
     inkscape:pageopacity="0"
     inkscape:pageshadow="2"
     inkscape:window-width="1487"
     inkscape:window-height="885"
     id="namedview6"
     showgrid="false"
     inkscape:zoom="50.533067"
     inkscape:cx="6.8501372"
     inkscape:cy="209.51942"
     inkscape:window-x="0"
     inkscape:window-y="0"
     inkscape:window-maximized="0"
     inkscape:current-layer="svg2"
     borderlayer="true"
     inkscape:showpageshadow="false" />
  <path
     style="opacity:1;fill:#a02c2c;fill-opacity:1;stroke:none;stroke-width:1;stroke-miterlimit:1;stroke-dasharray:none;stroke-dashoffset:0;stroke-opacity:1"
     d="m 9.8257776,76.293686 115.5502324,0 0,118.202194 -115.5502324,0 z"
     id="rect4163"
     inkscape:connector-curvature="0" />
  <path
     style="opacity:1;fill:#ffff00;fill-opacity:1;stroke:none;stroke-width:1;stroke-miterlimit:4;stroke-dasharray:none;stroke-dashoffset:0;stroke-opacity:1"
     d="m 10.13269,137.02051 17.852835,6.27261 18.817854,-6.27261 c 0,0 9.116463,15.85338 -0.603136,28.3474 -7.505516,9.64794 -22.840353,6.47208 -36.6706893,0 -9.35960471,-4.37994 0.6031363,-28.3474 0.6031363,-28.3474 z"
     id="rect4138"
     inkscape:connector-curvature="0"
     sodipodi:nodetypes="cccssc" />
  <path
     style="opacity:1;fill:#f9f9f9;fill-opacity:1;stroke:none;stroke-width:1;stroke-miterlimit:4;stroke-dasharray:none;stroke-dashoffset:0;stroke-opacity:1"
     d="M 71.049457,172.54524 A 16.767189,15.379976 0 0 1 54.282268,187.92521 16.767189,15.379976 0 0 1 37.515079,172.54524 16.767189,15.379976 0 0 1 54.282268,157.16526 16.767189,15.379976 0 0 1 71.049457,172.54524 Z"
     id="path4141"
     inkscape:connector-curvature="0" />
  <path
     style="font-style:normal;font-weight:normal;font-size:medium;line-height:125%;font-family:Sans;letter-spacing:0px;word-spacing:0px;fill:#007e00;fill-opacity:1;stroke:none;stroke-width:1px;stroke-linecap:butt;stroke-linejoin:miter;stroke-opacity:1"
     d="m 20.318359,149.13718 0,0.94531 0.746094,0 0,-0.94531 -0.746094,0 z m 15.203125,0 0,0.94531 0.746094,0 0,-0.94531 -0.746094,0 z m -20.859375,0.25586 0,6.05078 2.171875,0 c 0.678047,0 1.200972,-0.14891 1.56836,-0.44336 0.367387,-0.29445 0.550781,-0.71168 0.550781,-1.25195 0,-0.41061 -0.111723,-0.75255 -0.335937,-1.02539 -0.221513,-0.27554 -0.534995,-0.45653 -0.9375,-0.54297 0.334971,-0.054 0.58883,-0.18939 0.761718,-0.4082 0.172889,-0.21882 0.259766,-0.51273 0.259766,-0.88282 0,-0.47814 -0.168187,-0.84809 -0.50586,-1.10742 -0.337672,-0.25933 -0.81934,-0.38867 -1.443359,-0.38867 l -2.089844,0 z m 7.945313,0.22266 0,1.28906 -0.546875,0 0,0.58008 0.546875,0 0,2.46289 c 0,0.56729 0.109313,0.95967 0.328125,1.17578 0.218812,0.21341 0.616012,0.32031 1.191406,0.32031 l 0.765625,0 0,-0.625 -0.765625,0 c -0.310659,0 -0.516488,-0.0528 -0.619141,-0.1582 -0.09995,-0.10536 -0.15039,-0.3428 -0.15039,-0.71289 l 0,-2.46289 1.535156,0 0,-0.58008 -1.535156,0 0,-1.28906 -0.75,0 z m -7.126953,0.44921 1.210937,0 c 0.399804,0 0.698079,0.0772 0.892578,0.22852 0.197202,0.15128 0.294922,0.37834 0.294922,0.68359 0,0.30796 -0.09772,0.53818 -0.294922,0.68946 -0.194499,0.14857 -0.492774,0.22265 -0.892578,0.22265 l -1.210937,0 0,-1.82421 z m 12.353515,0.73047 c -0.707762,0 -1.263967,0.2126 -1.671875,0.63672 -0.405207,0.42412 -0.609375,1.00592 -0.609375,1.7461 0,0.72937 0.202964,1.30876 0.605469,1.73828 0.402506,0.42952 0.945457,0.64453 1.628906,0.64453 0.251228,0 0.487471,-0.0256 0.708985,-0.0742 0.224214,-0.0486 0.440431,-0.1215 0.648437,-0.21875 l 0,-0.6875 c -0.210707,0.11615 -0.423309,0.20228 -0.636719,0.26172 -0.210707,0.0567 -0.424514,0.0859 -0.640624,0.0859 -0.483547,0 -0.859517,-0.15178 -1.126954,-0.45704 -0.267436,-0.30795 -0.40039,-0.73918 -0.40039,-1.29296 0,-0.55379 0.132954,-0.98381 0.40039,-1.28907 0.267437,-0.30795 0.643407,-0.46093 1.126954,-0.46093 0.21611,0 0.429917,0.0285 0.640624,0.0879 0.21341,0.0567 0.426012,0.1436 0.636719,0.25976 l 0,-0.69726 c -0.205304,-0.0945 -0.417906,-0.16502 -0.636719,-0.21094 -0.218811,-0.0486 -0.44421,-0.0723 -0.673828,-0.0723 z m 4.373047,0 c -0.651032,0 -1.16116,0.2114 -1.53125,0.63282 -0.367387,0.42141 -0.550781,1.00441 -0.550781,1.75 0,0.74287 0.183394,1.32588 0.550781,1.75 0.37009,0.42141 0.880218,0.63281 1.53125,0.63281 0.648332,0 1.157255,-0.2114 1.527344,-0.63281 0.370089,-0.42412 0.554687,-1.00713 0.554687,-1.75 10e-7,-0.74559 -0.184598,-1.32859 -0.554687,-1.75 -0.370089,-0.42142 -0.879012,-0.63282 -1.527344,-0.63282 z m 7.804688,0 c -0.316062,0 -0.596719,0.0681 -0.839844,0.20313 -0.240423,0.13507 -0.448662,0.33849 -0.626953,0.61133 l 0,-0.70508 -0.75,0 0,4.53906 0.75,0 0,-2.56641 c 0,-0.44302 0.115337,-0.79219 0.347656,-1.04882 0.232319,-0.25663 0.550619,-0.38477 0.953125,-0.38477 0.334971,0 0.586421,0.1069 0.753906,0.32031 0.167486,0.21341 0.25,0.53337 0.25,0.96289 l 0,2.7168 0.746094,0 0,-2.74023 c 0,-0.62672 -0.132954,-1.10042 -0.400391,-1.42188 -0.267436,-0.32416 -0.662227,-0.48633 -1.183593,-0.48633 z m -19.69336,0.10938 0,4.53906 0.746094,0 0,-4.53906 -0.746094,0 z m 15.203125,0 0,4.53906 0.746094,0 0,-4.53906 -0.746094,0 z m -3.314453,0.52344 c 0.397103,0 0.71104,0.15659 0.94336,0.47265 0.232318,0.31336 0.349609,0.73977 0.349609,1.27735 0,0.54027 -0.117291,0.96593 -0.349609,1.27929 -0.23232,0.31336 -0.546257,0.47071 -0.94336,0.47071 -0.402505,0 -0.720806,-0.15614 -0.953125,-0.4668 -0.229617,-0.31336 -0.34375,-0.74023 -0.34375,-1.2832 0,-0.54298 0.117291,-0.9706 0.34961,-1.28125 0.232318,-0.31336 0.547461,-0.46875 0.947265,-0.46875 z m -16.726562,1.125 1.3125,0 c 0.440324,0 0.765854,0.0905 0.976562,0.27148 0.213409,0.17829 0.320313,0.45774 0.320313,0.83594 0,0.37549 -0.106904,0.65419 -0.320313,0.83789 -0.210708,0.18099 -0.536238,0.27148 -0.976562,0.27148 l -1.3125,0 0,-2.21679 z"
     id="path4149"
     inkscape:connector-curvature="0" />
  <path
     style="opacity:1;fill:#007e00;fill-opacity:1;stroke:none;stroke-width:1;stroke-miterlimit:1;stroke-dasharray:none;stroke-dashoffset:0;stroke-opacity:1"
     d="m 273.27628,181.50184 -12.04033,-7.72897 -2.85911,14.01899 -5.19786,-13.33 -10.55322,9.66107 3.63002,-13.83943 -14.21637,1.61294 11.07135,-9.06266 -12.44934,-7.05128 14.28381,-0.82426 -5.92709,-13.02214 12.04034,7.72897 2.8591,-14.019 5.19786,13.33 10.55323,-9.66106 -3.63002,13.83942 14.21636,-1.61293 -11.07135,9.06265 12.44934,7.05128 -14.28381,0.82427 z"
     id="path4136"
     inkscape:connector-curvature="0" />
  <path
     style="opacity:1;fill:#ff0000;fill-opacity:1;stroke:none;stroke-width:1;stroke-miterlimit:1;stroke-dasharray:none;stroke-dashoffset:0;stroke-opacity:1"
     d="m 155.78649,74.641402 -9.6494,-4.51423 -0.72478,10.62844 -5.15313,-9.32386 -6.83361,8.17258 1.31146,-10.5721 -10.33222,2.59506 7.27511,-7.78215 -9.88427,-3.97368 10.45992,-2.01969 -5.66088,-9.02461 9.64939,4.51423 0.72479,-10.62844 5.15313,9.32386 6.83361,-8.17257 -1.31146,10.57209 10.33222,-2.59505 -7.27512,7.78214 9.88428,3.97368 -10.45992,2.01969 z"
     id="path4138"
     inkscape:connector-curvature="0" />
  <path
     style="opacity:1;fill:#aa8800;fill-opacity:1;stroke:none;stroke-width:1;stroke-miterlimit:1;stroke-dasharray:none;stroke-dashoffset:0;stroke-opacity:1"
     d="m 149.59368,114.24506 69.24006,-0.72377 12.78649,75.99518 -94.93365,0.72376 -1.93004,-23.64294 3.86007,14.11339 7.23763,-3.86007 13.87214,7.47889 20.50663,-16.40531 1.93004,-25.33173 -22.79855,-17.12907 -23.03981,4.82509 z"
     id="path4142"
     inkscape:connector-curvature="0"
     sodipodi:nodetypes="ccccccccccccc" />
  <path
     style="font-style:normal;font-variant:normal;font-weight:normal;font-stretch:normal;font-size:medium;line-height:125%;font-family:SimHei;-inkscape-font-specification:'SimHei, Normal';text-align:start;letter-spacing:0px;word-spacing:0px;writing-mode:lr-tb;text-anchor:start;fill:#000000;fill-opacity:1;stroke:none;stroke-width:1px;stroke-linecap:butt;stroke-linejoin:miter;stroke-opacity:1"
     d="m 109.80054,21.410089 c -0.23659,0.19716 -0.55099,0.4138 -0.94531,0.65039 0.43375,0.47318 0.84787,0.98702 1.24219,1.53906 l -0.71094,0 -1.35937,0 c -0.0394,-0.43375 -0.0605,-0.72899 -0.0605,-0.88671 0.0394,-0.19716 0.0797,-0.49436 0.11914,-0.88868 -0.39432,0 -0.8276,-0.0383 -1.30079,-0.11718 0.0789,0.43374 0.13635,1.06451 0.17579,1.89257 l -5.79493,0 c -0.7492,0 -1.479679,-0.0192 -2.189449,-0.0586 l 0,0.94532 c 0.70977,-0.0394 1.440249,-0.0586 2.189449,-0.0586 l 5.85547,0 c 0.0789,1.22238 0.17663,2.44363 0.29492,3.66601 0.15773,1.22238 0.41465,2.40531 0.76954,3.54883 0.39431,1.10409 0.86787,1.97261 1.41992,2.60352 0.59147,0.67033 1.14364,0.94641 1.65625,0.82812 0.51261,-0.0789 0.92673,-0.8285 1.24219,-2.24805 -0.47319,-0.11829 -0.88731,-0.33493 -1.24219,-0.65039 -0.0394,0.51261 -0.11999,0.96701 -0.23828,1.36133 -0.0789,0.39432 -0.35299,0.25628 -0.82618,-0.41406 -0.47317,-0.67035 -0.86813,-1.51971 -1.18359,-2.54493 -0.31545,-1.06466 -0.53209,-2.00983 -0.65039,-2.83789 -0.0789,-0.82807 -0.15746,-1.93239 -0.23632,-3.3125 l 1.83203,0 c 0.51261,0 1.20281,0.0192 2.07031,0.0586 l 0,-0.94531 c -0.59148,0.0394 -1.1628,0.0586 -1.71484,0.0586 0.35488,-0.23659 0.67124,-0.43407 0.94726,-0.5918 -0.63091,-0.7492 -1.08531,-1.2822 -1.36133,-1.59766 z m 37.32227,0 c -0.27602,1.06466 -0.76875,2.2687 -1.47852,3.60938 -0.70977,1.34067 -1.38081,2.30696 -2.01172,2.89843 0.35489,0.23659 0.65209,0.551 0.88868,0.94532 0.51261,-0.59148 1.04365,-1.40056 1.5957,-2.42579 l 0,6.44727 c 0,0.70977 -0.0192,1.57829 -0.0586,2.60352 l 1.35937,0 c -0.0394,-1.02523 -0.0778,-1.89375 -0.11718,-2.60352 l 0,-8.39844 c 0.47317,-1.34068 0.88729,-2.18808 1.24218,-2.54297 -0.35489,-0.11829 -0.82845,-0.29661 -1.41992,-0.5332 z m -12.24414,0.23828 c 0.0394,0.47318 0.0606,0.88535 0.0606,1.24024 l -2.30664,0 c -1.14352,0 -2.32645,-0.0192 -3.54883,-0.0586 l 0,1.00586 c 1.22238,-0.0394 2.40531,-0.0586 3.54883,-0.0586 l 2.30664,0 0,1.00585 -1.53906,0 c -0.90693,0 -1.7735,-0.0211 -2.60157,-0.0606 l 0,0.94727 c 0.8675,-0.0394 1.75518,-0.0586 2.66211,-0.0586 l 4.61328,0 c 0.8675,0 1.71491,0.0192 2.54297,0.0586 l 0,-0.94727 c -0.82806,0.0394 -1.67547,0.0606 -2.54297,0.0606 l -1.83398,0 0,-1.00585 3.19336,0 c 0.8675,0 1.7935,0.0192 2.7793,0.0586 l 0,-1.00586 c -1.02523,0.0394 -1.95124,0.0586 -2.7793,0.0586 l -3.19336,0 c 0,-0.39432 0.0192,-0.80649 0.0586,-1.24024 l -1.41992,0 z m 42.05469,0 c 0.0394,0.63091 0.0586,1.24056 0.0586,1.83203 l 0,1.95313 -1.30079,0 c 0.15773,-0.82807 0.31493,-1.36107 0.47266,-1.59766 -0.39432,-0.0789 -0.8276,-0.17662 -1.30078,-0.29492 -0.0394,0.59148 -0.15831,1.32 -0.35547,2.1875 -0.15773,0.82807 -0.33409,1.51827 -0.53125,2.07031 0.31545,0.0789 0.67014,0.19775 1.06445,0.35547 0.1183,-0.51261 0.25634,-1.10505 0.41407,-1.77539 l 1.53711,0 0,3.01758 c -1.41955,0.55204 -2.38583,0.84728 -2.89844,0.88672 0.27602,0.43375 0.49266,0.84787 0.65039,1.24219 0.47318,-0.27603 1.22282,-0.61155 2.24805,-1.00586 l 0,2.89843 c 0,0.67034 -0.0192,1.36055 -0.0586,2.07032 l 1.18359,0 c -0.0394,-0.74921 -0.0606,-1.43941 -0.0606,-2.07032 l 0,-3.3125 c 0.67034,-0.27602 1.2225,-0.49266 1.65625,-0.65039 -0.0789,-0.35488 -0.1383,-0.6904 -0.17774,-1.00586 -0.47318,0.19716 -0.9659,0.39464 -1.47851,0.5918 l 0,-2.66211 c 0.59147,0 1.10531,0.0192 1.53906,0.0586 l 0,-1.06445 c -0.47318,0.0394 -0.98702,0.0606 -1.53906,0.0606 l 0,-1.95313 c 0,-0.63091 0.0403,-1.24055 0.11914,-1.83203 l -1.24219,0 z m 5.9746,0 c 0.0789,0.39432 0.11719,0.98481 0.11719,1.77344 l -0.88672,0 c -0.67034,0 -1.2225,-0.0192 -1.65625,-0.0586 l 0,1.06445 c 0.47318,-0.0394 1.02535,-0.0586 1.65625,-0.0586 l 0.88672,0 0,2.12891 -1.18359,0 c -0.67034,0 -1.27999,-0.0211 -1.83203,-0.0606 l 0,1.0664 c 0.55204,-0.0394 1.1828,-0.0606 1.89258,-0.0606 l 2.95703,0 0,1.7754 -2.89844,0 c -0.7492,0 -1.33969,-0.0192 -1.77344,-0.0586 l 0,1.12304 c 0.51261,-0.0394 1.1031,-0.0586 1.77344,-0.0586 l 2.89844,0 0,3.3711 c 0,0.35488 -0.11888,0.55236 -0.35547,0.59179 -0.23659,0.0394 -0.71015,0.0394 -1.41992,0 0.23659,0.43375 0.39574,0.8862 0.47461,1.35938 0.90692,-0.1183 1.51657,-0.2755 1.83203,-0.47266 0.31545,-0.15773 0.49377,-0.47408 0.5332,-0.94726 l 0,-3.90235 c 0.82806,0 1.47799,0.0192 1.95117,0.0586 l 0,-1.12304 c -0.43375,0.0394 -1.08367,0.0586 -1.95117,0.0586 l 0,-1.7754 0.5332,0 c 0.55205,0 1.06393,0.0211 1.53711,0.0606 l 0,-1.0664 c -0.51261,0.0394 -1.06477,0.0606 -1.65625,0.0606 l -2.24804,0 0,-2.12891 1.36132,0 c 0.74921,0 1.32053,0.0192 1.71485,0.0586 l 0,-1.06445 c -0.55205,0.0394 -1.12337,0.0586 -1.71485,0.0586 l -1.36132,0 c 0,-0.78863 0.0211,-1.37912 0.0606,-1.77344 l -1.24219,0 z m -65.77343,0.11719 c 0.0394,0.43375 0.0606,0.75011 0.0606,0.94727 l -1.125,0 c -1.10409,0 -1.93233,-0.0211 -2.48438,-0.0606 l 0,1.00585 c 0.55205,-0.0394 1.38029,-0.0586 2.48438,-0.0586 l 1.125,0 0,0.94532 1.18164,0 0,-0.94532 3.60742,0 0,0.94532 1.125,0 0,-0.94532 1.35937,0 c 1.06466,0 1.85458,0.0192 2.36719,0.0586 l 0,-1.00585 c -0.67034,0.0394 -1.46026,0.0606 -2.36719,0.0606 l -1.35937,0 c 0,-0.27603 0.0192,-0.59239 0.0586,-0.94727 l -1.24219,0 c 0.0394,0.35488 0.0586,0.67124 0.0586,0.94727 l -3.60742,0 c 0,-0.27603 0.0192,-0.59239 0.0586,-0.94727 l -1.30078,0 z m 38.86133,0 c -0.55205,0.31545 -1.38029,0.59153 -2.48438,0.82812 -1.10409,0.19716 -2.6417,0.39464 -4.61328,0.5918 0.31545,0.35489 0.51098,0.70957 0.58984,1.06445 1.34068,-0.23659 2.2878,-0.39379 2.83985,-0.47265 l 0,3.78515 -1.83399,0 c -0.7492,0 -1.45856,-0.0192 -2.1289,-0.0586 l 0,1.12304 c 0.70977,-0.0394 1.41913,-0.0586 2.1289,-0.0586 l 1.83399,0 0,4.79102 c 0,0.70977 -0.0403,1.41913 -0.11914,2.1289 l 1.36132,0 c -0.0394,-0.7492 -0.0586,-1.45856 -0.0586,-2.1289 l 0,-4.79102 2.1875,0 c 0.63091,0 1.26167,0.0192 1.89258,0.0586 l 0,-1.12304 c -0.63091,0.0394 -1.28083,0.0586 -1.95117,0.0586 l -2.12891,0 0,-3.96289 c 0.90693,-0.15772 2.01126,-0.31493 3.3125,-0.47265 -0.23659,-0.23659 -0.51267,-0.69099 -0.82812,-1.36133 z m 9.93554,0.11914 c 0.0394,0.8675 0.0586,1.73407 0.0586,2.60156 l 0,8.8125 c 0,0.9858 0.51384,1.47852 1.53907,1.47852 l 3.13476,0 c 0.35489,0 0.69041,-0.13804 1.00586,-0.41406 0.31545,-0.27603 0.6107,-0.94511 0.88672,-2.00977 -0.59148,-0.15773 -1.04588,-0.33604 -1.36133,-0.5332 -0.15773,0.78863 -0.31493,1.30247 -0.47266,1.53906 -0.11829,0.23659 -0.31577,0.35352 -0.59179,0.35352 l -2.2461,0 c -0.47318,0 -0.71093,-0.27609 -0.71093,-0.82813 l 0,-4.9668 c 1.14352,-0.51261 2.15008,-1.00728 3.01757,-1.48047 0.90693,-0.51261 1.59714,-0.90561 2.07032,-1.18164 -0.35489,-0.35488 -0.69041,-0.74984 -1.00586,-1.18359 -0.8675,0.90693 -2.22874,1.79461 -4.08203,2.66211 l 0,-2.48438 c 0,-0.7492 0.0192,-1.53716 0.0586,-2.36523 l -1.30078,0 z m -5.91406,0.29492 c 0.0394,0.67034 0.0586,1.47942 0.0586,2.42578 l 0,7.92578 c -0.0789,0.47319 -0.21691,0.78759 -0.41406,0.94532 0.27602,0.47318 0.5521,0.8873 0.82812,1.24218 0.35489,-0.31545 1.00481,-0.70846 1.95117,-1.18164 0.9858,-0.47318 1.93292,-0.92758 2.83985,-1.36132 -0.0789,-0.31546 -0.15747,-0.72958 -0.23633,-1.24219 -0.90693,0.47318 -1.6163,0.84702 -2.12891,1.12305 -0.47318,0.23659 -1.02534,0.4935 -1.65625,0.76953 l 0,-5.20508 1.41992,0 c 0.74921,0 1.55634,0.0192 2.42383,0.0586 l 0,-1.24219 c -0.86749,0.0394 -1.67462,0.0605 -2.42383,0.0605 l -1.41992,0 0,-2.01172 c 0,-0.90693 0.0192,-1.67573 0.0586,-2.30664 l -1.30078,0 z m -44.30273,2.83985 c 0.0394,0.55204 0.0606,0.94505 0.0606,1.18164 l 0,2.66211 c 0,0.19715 -0.0211,0.51351 -0.0606,0.94726 l 4.14062,0 0,0.82813 -5.38281,0 0,4.61328 1.18359,0 0,-3.72656 4.19922,0 0,1.41992 c -0.70977,0.0789 -1.34053,0.15746 -1.89258,0.23633 -0.55204,0.0394 -0.96616,0.0586 -1.24219,0.0586 0.1183,0.35488 0.23718,0.72873 0.35547,1.12304 0.47318,-0.11829 0.96591,-0.21606 1.47852,-0.29492 0.51261,-0.0789 1.00533,-0.15746 1.47851,-0.23633 0.47318,-0.0789 0.94675,-0.1383 1.41993,-0.17773 0.47318,-0.0789 0.98506,-0.1383 1.53711,-0.17774 0.11829,0.23659 0.25633,0.49351 0.41406,0.76954 0.31545,-0.19716 0.61265,-0.37548 0.88867,-0.53321 -0.1183,-0.31545 -0.29661,-0.64902 -0.5332,-1.0039 l -0.70899,-1.1836 2.1875,0 0,2.07031 c 0,0.35489 -0.0594,0.55237 -0.17773,0.5918 -0.1183,0.0394 -0.4327,0.0394 -0.94531,0 0.19715,0.39432 0.33519,0.78732 0.41406,1.18164 0.55204,-0.0789 1.00449,-0.17663 1.35937,-0.29492 0.35489,-0.1183 0.53321,-0.49409 0.53321,-1.125 l 0,-3.31055 -5.38282,0 0,-0.82812 4.08204,0 c -0.0394,-0.39432 -0.0605,-0.69151 -0.0605,-0.88867 l 0,-2.66016 c 0,-0.23659 0.0211,-0.65071 0.0605,-1.24219 l -9.40625,0 z m -16.087896,0.05859 0,0.88672 c 0.552046,-0.0394 1.065886,-0.0586 1.539066,-0.0586 l 3.19336,0 c 0.35488,0 0.88788,0.0192 1.59765,0.0586 l 0,-0.88672 c -0.70977,0.0394 -1.24277,0.0586 -1.59765,0.0586 l -3.19336,0 c -0.47318,0 -0.98702,-0.0192 -1.539066,-0.0586 z m 17.212896,0.82812 3.01562,0 0,1.12305 -3.01562,0 0,-1.12305 z m 4.19921,0 2.95704,0 0,1.12305 -2.95704,0 0,-1.12305 z m 8.10352,0.41407 c 0.0394,0.23659 0.0586,0.51267 0.0586,0.82812 0,0.31546 -0.0192,0.67014 -0.0586,1.06446 l 1.35937,0 0,-1.06446 10.29297,0 0,0.82813 1.30078,0 c -0.0394,-0.27603 -0.0586,-0.55211 -0.0586,-0.82813 0,-0.31545 0.0192,-0.59153 0.0586,-0.82812 l -12.95312,0 z m -30.521485,0.29492 0,0.88867 c 0.630907,-0.0394 1.380545,-0.0606 2.248045,-0.0606 l 3.54883,0 c 0.63091,0 1.39971,0.0211 2.30664,0.0606 l 0,-0.88867 c -0.70977,0.0394 -1.47857,0.0605 -2.30664,0.0605 l -3.66602,0 c -0.828062,0 -1.53938,-0.0211 -2.130855,-0.0605 z m 32.886715,1.24219 0,0.94726 c 0.9858,-0.0394 2.03068,-0.0586 3.13477,-0.0586 l 2.36719,0 c 0.90693,0 1.85209,0.0192 2.83789,0.0586 l 0,-0.94726 c -0.9858,0.0394 -1.93096,0.0606 -2.83789,0.0606 l -2.42578,0 c -1.06466,0 -2.09038,-0.0211 -3.07618,-0.0606 z m -14.66796,0.0606 3.01562,0 0,1.0039 -3.01562,0 0,-1.0039 z m 4.19921,0 2.95704,0 0,1.0039 -2.95704,0 0,-1.0039 z m -21.351559,0.23632 c 0.03943,0.59148 0.05859,1.36028 0.05859,2.30664 0,0.94636 -0.01916,1.79377 -0.05859,2.54297 l 6.447269,0 c -0.0394,-0.7492 -0.0605,-1.63688 -0.0605,-2.66211 0,-1.02522 0.0211,-1.75375 0.0605,-2.1875 l -6.447269,0 z m 1.003909,0.76758 4.4375,0 0,0.5918 -4.4375,0 0,-0.5918 z m 30.46094,0.71094 c 0.0394,0.31545 0.0606,0.70846 0.0606,1.18164 0,0.47318 -0.0211,0.92758 -0.0606,1.36133 l 2.24804,0 c -0.35488,0.19715 -0.72873,0.3352 -1.12304,0.41406 0.31545,0.39432 0.55125,0.84676 0.70898,1.35937 l -1.5957,0 c -0.94636,0 -1.85321,-0.0192 -2.72071,-0.0586 l 0,1.00586 c 0.8675,-0.0394 1.77435,-0.0586 2.72071,-0.0586 l 8.33984,0 c 0.8675,0 1.81267,0.0192 2.83789,0.0586 l 0,-1.00586 c -1.02522,0.0394 -1.99151,0.0586 -2.89844,0.0586 l -1.53711,0 c 0.43375,-0.7492 0.74816,-1.18248 0.94532,-1.30078 -0.47318,-0.19716 -0.86619,-0.35436 -1.18164,-0.47265 l 2.30664,0 c -0.0394,-0.39432 -0.0586,-0.80844 -0.0586,-1.24219 0,-0.47318 0.0192,-0.90647 0.0586,-1.30078 l -9.05078,0 z m -30.46094,0.59179 4.4375,0 0,0.58985 -4.4375,0 0,-0.58985 z m 31.76367,0.23633 6.44727,0 0,0.88672 -6.44727,0 0,-0.88672 z m 49.50586,0.65039 c -0.35489,0.15773 -0.72873,0.29577 -1.12305,0.41407 0.31546,0.55204 0.6107,1.24224 0.88672,2.07031 0.39432,-0.19716 0.76816,-0.3352 1.12305,-0.41406 -0.27602,-0.67034 -0.57127,-1.36055 -0.88672,-2.07032 z m -81.26953,0.41407 4.4375,0 0,0.70898 -4.4375,0 0,-0.70898 z m 20.34765,0 1.83399,0 c -0.35489,0.23658 -0.61181,0.37462 -0.76953,0.41406 0.15772,0.19716 0.3552,0.47324 0.59179,0.82812 -0.6309,0.0789 -1.18307,0.11719 -1.65625,0.11719 l 0,-1.35937 z m 12.53907,0.65039 4.14062,0 c -0.15773,0.35488 -0.31493,0.67124 -0.47265,0.94726 -0.1183,0.23659 -0.29662,0.51072 -0.53321,0.82617 l -2.42578,0 c -0.27602,-0.70977 -0.51182,-1.30025 -0.70898,-1.77343 z m -28.80469,0.88671 -0.70899,0.71094 c 0.31546,0.27602 0.90594,0.88567 1.77344,1.83203 0.27602,-0.35488 0.55211,-0.60985 0.82813,-0.76757 -0.23659,-0.23659 -0.86736,-0.82903 -1.89258,-1.7754 z m -3.60742,0.0605 c -0.55205,0.59148 -1.263365,1.18197 -2.130863,1.77344 0.236591,0.19716 0.455185,0.45408 0.652344,0.76953 0.512609,-0.43375 1.281419,-1.00702 2.306639,-1.71679 -0.27602,-0.31546 -0.5521,-0.58958 -0.82812,-0.82618 z"
     id="path4148"
     inkscape:connector-curvature="0" />
  <path
     style="opacity:1;fill:#aa4400;fill-opacity:1;stroke:none;stroke-width:1;stroke-miterlimit:1;stroke-dasharray:none;stroke-dashoffset:0;stroke-opacity:1"
     d="M -0.00340938,6.8471755e-4 -0.00731563,210.01282 297.07634,210.03846 297.02776,-0.00492622 Z M 8.9170145,15.503815 l 280.1167455,0 0,180.381055 -280.1167455,0 z"
     id="rect4140"
     inkscape:connector-curvature="0"
     sodipodi:nodetypes="cccccccccc" />
  <path
     style="font-style:normal;font-variant:normal;font-weight:bold;font-stretch:normal;font-size:medium;line-height:125%;font-family:Georgia;-inkscape-font-specification:'Georgia, Bold';text-align:start;letter-spacing:0px;word-spacing:0px;writing-mode:lr-tb;text-anchor:start;fill:#fff6d5;fill-opacity:1;stroke:none;stroke-width:1px;stroke-linecap:butt;stroke-linejoin:miter;stroke-opacity:1"
     d="M 51.353516 82.009766 C 49.374349 82.009766 47.623047 82.322266 46.099609 82.947266 C 44.576171 83.559245 43.319661 84.379558 42.330078 85.408203 C 41.314453 86.462891 40.559245 87.641276 40.064453 88.943359 C 39.582682 90.245443 39.341797 91.658203 39.341797 93.181641 C 39.341797 94.718099 39.595703 96.156901 40.103516 97.498047 C 40.624349 98.839193 41.379557 100.00456 42.369141 100.99414 C 43.371745 101.99675 44.621745 102.80404 46.119141 103.41602 C 47.629557 104.028 49.367838 104.33398 51.333984 104.33398 C 53.195963 104.33398 54.843099 104.07357 56.275391 103.55273 C 57.707682 103.0319 58.964193 102.2767 60.044922 101.28711 C 61.073568 100.33659 61.88086 99.177734 62.466797 97.810547 C 63.065756 96.430339 63.365234 94.88737 63.365234 93.181641 C 63.365234 91.749349 63.124349 90.36914 62.642578 89.041016 C 62.173828 87.69987 61.444661 86.508464 60.455078 85.466797 C 59.478516 84.438151 58.228516 83.604818 56.705078 82.966797 C 55.181641 82.328776 53.397786 82.009766 51.353516 82.009766 z M 79.400391 82.009766 C 77.421224 82.009766 75.669922 82.322266 74.146484 82.947266 C 72.623046 83.559245 71.366536 84.379558 70.376953 85.408203 C 69.361328 86.462891 68.60612 87.641276 68.111328 88.943359 C 67.629557 90.245443 67.388672 91.658203 67.388672 93.181641 C 67.388672 94.718099 67.642578 96.156901 68.150391 97.498047 C 68.671224 98.839193 69.426432 100.00456 70.416016 100.99414 C 71.41862 101.99675 72.66862 102.80404 74.166016 103.41602 C 75.676432 104.028 77.414713 104.33398 79.380859 104.33398 C 81.242838 104.33398 82.889974 104.07357 84.322266 103.55273 C 85.754557 103.0319 87.011068 102.2767 88.091797 101.28711 C 89.120443 100.33659 89.927735 99.177734 90.513672 97.810547 C 91.112631 96.430339 91.412109 94.88737 91.412109 93.181641 C 91.412109 91.749349 91.171224 90.36914 90.689453 89.041016 C 90.220703 87.69987 89.491536 86.508464 88.501953 85.466797 C 87.525391 84.438151 86.275391 83.604818 84.751953 82.966797 C 83.228516 82.328776 81.444661 82.009766 79.400391 82.009766 z M 107.44727 82.009766 C 105.4681 82.009766 103.71679 82.322266 102.19336 82.947266 C 100.66992 83.559245 99.413411 84.379558 98.423828 85.408203 C 97.408203 86.462891 96.652995 87.641276 96.158203 88.943359 C 95.676432 90.245443 95.435547 91.658203 95.435547 93.181641 C 95.435547 94.718099 95.689453 96.156901 96.197266 97.498047 C 96.718099 98.839193 97.473307 100.00456 98.462891 100.99414 C 99.465495 101.99675 100.71549 102.80404 102.21289 103.41602 C 103.7233 104.028 105.46159 104.33398 107.42773 104.33398 C 109.28971 104.33398 110.93685 104.07357 112.36914 103.55273 C 113.80143 103.0319 115.05795 102.2767 116.13867 101.28711 C 117.16732 100.33659 117.97461 99.177734 118.56055 97.810547 C 119.1595 96.430339 119.45898 94.88737 119.45898 93.181641 C 119.45898 91.749349 119.21809 90.36914 118.73633 89.041016 C 118.26757 87.69987 117.53841 86.508464 116.54883 85.466797 C 115.57226 84.438151 114.32226 83.604818 112.79883 82.966797 C 111.27539 82.328776 109.49154 82.009766 107.44727 82.009766 z M 28.306641 82.048828 C 28.098307 82.348307 27.811849 82.693359 27.447266 83.083984 C 27.095703 83.474609 26.639974 83.852214 26.080078 84.216797 C 25.533203 84.56836 24.843099 84.867838 24.009766 85.115234 C 23.189453 85.36263 22.212891 85.486328 21.080078 85.486328 L 20.005859 85.486328 L 20.005859 87.341797 L 24.947266 87.341797 L 24.947266 99.724609 C 24.947266 100.27148 24.836588 100.70117 24.615234 101.01367 C 24.39388 101.32617 24.08789 101.54752 23.697266 101.67773 C 23.384766 101.7819 22.798828 101.88607 21.939453 101.99023 C 21.093099 102.09437 20.474609 102.15948 20.083984 102.18555 L 20.083984 103.66992 L 36.197266 103.66992 L 36.197266 102.18555 C 35.819662 102.15951 35.233724 102.08139 34.439453 101.95117 C 33.645182 101.82097 33.078776 101.67773 32.740234 101.52148 C 32.36263 101.33919 32.069661 101.07877 31.861328 100.74023 C 31.666016 100.38867 31.568359 99.978514 31.568359 99.509766 L 31.568359 88.064453 C 31.568359 87.166016 31.587893 86.150391 31.626953 85.017578 C 31.666018 83.884766 31.705081 82.895183 31.744141 82.048828 L 28.306641 82.048828 z M 51.373047 83.728516 C 52.245443 83.728516 52.98112 83.969401 53.580078 84.451172 C 54.179037 84.932943 54.660807 85.616536 55.025391 86.501953 C 55.376953 87.361328 55.624349 88.344401 55.767578 89.451172 C 55.923828 90.557943 56.001953 91.801432 56.001953 93.181641 C 56.001953 94.718099 55.917318 96.026693 55.748047 97.107422 C 55.591797 98.175131 55.32487 99.145182 54.947266 100.01758 C 54.595703 100.82487 54.113932 101.46289 53.501953 101.93164 C 52.889974 102.40039 52.167318 102.63477 51.333984 102.63477 C 50.435546 102.63477 49.680338 102.37435 49.068359 101.85352 C 48.45638 101.33268 47.98763 100.64909 47.662109 99.802734 C 47.297526 98.865234 47.04362 97.888672 46.900391 96.873047 C 46.770182 95.857422 46.705078 94.626953 46.705078 93.181641 C 46.705078 91.801432 46.783203 90.538411 46.939453 89.392578 C 47.095703 88.233724 47.343099 87.257161 47.681641 86.462891 C 48.059245 85.590495 48.547526 84.919922 49.146484 84.451172 C 49.745442 83.969401 50.48763 83.728516 51.373047 83.728516 z M 79.419922 83.728516 C 80.292318 83.728516 81.027995 83.969401 81.626953 84.451172 C 82.225912 84.932943 82.707682 85.616536 83.072266 86.501953 C 83.423828 87.361328 83.671224 88.344401 83.814453 89.451172 C 83.970703 90.557943 84.048828 91.801432 84.048828 93.181641 C 84.048828 94.718099 83.964193 96.026693 83.794922 97.107422 C 83.638672 98.175131 83.371745 99.145182 82.994141 100.01758 C 82.642578 100.82487 82.160807 101.46289 81.548828 101.93164 C 80.936849 102.40039 80.214193 102.63477 79.380859 102.63477 C 78.482421 102.63477 77.727213 102.37435 77.115234 101.85352 C 76.503255 101.33268 76.034505 100.64909 75.708984 99.802734 C 75.344401 98.865234 75.090495 97.888672 74.947266 96.873047 C 74.817057 95.857422 74.751953 94.626953 74.751953 93.181641 C 74.751953 91.801432 74.830078 90.538411 74.986328 89.392578 C 75.142578 88.233724 75.389974 87.257161 75.728516 86.462891 C 76.10612 85.590495 76.594401 84.919922 77.193359 84.451172 C 77.792317 83.969401 78.534505 83.728516 79.419922 83.728516 z M 107.4668 83.728516 C 108.33919 83.728516 109.07487 83.969401 109.67383 84.451172 C 110.27278 84.932943 110.75455 85.616536 111.11914 86.501953 C 111.4707 87.361328 111.71809 88.344401 111.86133 89.451172 C 112.01757 90.557943 112.0957 91.801432 112.0957 93.181641 C 112.0957 94.718099 112.01106 96.026693 111.8418 97.107422 C 111.68554 98.175131 111.41862 99.145182 111.04102 100.01758 C 110.68946 100.82487 110.20768 101.46289 109.5957 101.93164 C 108.98372 102.40039 108.26107 102.63477 107.42773 102.63477 C 106.5293 102.63477 105.77409 102.37435 105.16211 101.85352 C 104.55013 101.33268 104.08138 100.64909 103.75586 99.802734 C 103.39127 98.865234 103.13737 97.888672 102.99414 96.873047 C 102.86393 95.857422 102.79883 94.626953 102.79883 93.181641 C 102.79883 91.801432 102.87696 90.538411 103.0332 89.392578 C 103.18946 88.233724 103.43685 87.257161 103.77539 86.462891 C 104.153 85.590495 104.64128 84.919922 105.24023 84.451172 C 105.83919 83.969401 106.58138 83.728516 107.4668 83.728516 z "
     id="path4187" />
  <path
     style="font-style:normal;font-variant:normal;font-weight:bold;font-stretch:normal;font-size:medium;line-height:125%;font-family:Georgia;-inkscape-font-specification:'Georgia, Bold';text-align:start;letter-spacing:0px;word-spacing:0px;writing-mode:lr-tb;text-anchor:start;fill:#d45500;fill-opacity:1;stroke:none;stroke-width:1px;stroke-linecap:butt;stroke-linejoin:miter;stroke-opacity:1"
     d="M 231.99805 22.507812 C 230.62114 22.507812 229.40166 22.725344 228.3418 23.160156 C 227.28194 23.585911 226.40916 24.157418 225.7207 24.873047 C 225.01413 25.606794 224.48876 26.426171 224.14453 27.332031 C 223.80936 28.237891 223.64062 29.221394 223.64062 30.28125 C 223.64063 31.350165 223.81859 32.350168 224.17188 33.283203 C 224.53422 34.216239 225.05959 35.028344 225.74805 35.716797 C 226.44556 36.41431 227.31373 36.974637 228.35547 37.400391 C 229.40627 37.826145 230.61653 38.039062 231.98438 38.039062 C 233.27975 38.039062 234.42543 37.858438 235.42188 37.496094 C 236.41832 37.13375 237.29306 36.608375 238.04492 35.919922 C 238.76056 35.258644 239.32088 34.453106 239.72852 33.501953 C 240.14522 32.541741 240.35352 31.467927 240.35352 30.28125 C 240.35352 29.284804 240.18674 28.324368 239.85156 27.400391 C 239.52546 26.467355 239.01853 25.638751 238.33008 24.914062 C 237.65068 24.198432 236.78056 23.617699 235.7207 23.173828 C 234.66085 22.729957 233.42025 22.507812 231.99805 22.507812 z M 251.50977 22.507812 C 250.13286 22.507812 248.91532 22.725344 247.85547 23.160156 C 246.79561 23.585911 245.92088 24.157418 245.23242 24.873047 C 244.52586 25.606794 244.00048 26.426171 243.65625 27.332031 C 243.32108 28.237891 243.15234 29.221394 243.15234 30.28125 C 243.15234 31.350165 243.33031 32.350168 243.68359 33.283203 C 244.04594 34.216239 244.57131 35.028344 245.25977 35.716797 C 245.95728 36.41431 246.8274 36.974637 247.86914 37.400391 C 248.91993 37.826145 250.12825 38.039062 251.49609 38.039062 C 252.79147 38.039062 253.93715 37.858438 254.93359 37.496094 C 255.93004 37.13375 256.80477 36.608375 257.55664 35.919922 C 258.27227 35.258644 258.83455 34.453106 259.24219 33.501953 C 259.65888 32.541741 259.86719 31.467927 259.86719 30.28125 C 259.86719 29.284804 259.69845 28.324368 259.36328 27.400391 C 259.03717 26.467355 258.53025 25.638751 257.8418 24.914062 C 257.1624 24.198432 256.29228 23.617699 255.23242 23.173828 C 254.17256 22.729957 252.93197 22.507812 251.50977 22.507812 z M 271.02148 22.507812 C 269.64458 22.507812 268.42705 22.725344 267.36719 23.160156 C 266.30733 23.585911 265.43259 24.157418 264.74414 24.873047 C 264.03757 25.606794 263.5122 26.426171 263.16797 27.332031 C 262.8328 28.237891 262.66602 29.221394 262.66602 30.28125 C 262.66602 31.350165 262.84203 32.350168 263.19531 33.283203 C 263.55765 34.216239 264.08303 35.028344 264.77148 35.716797 C 265.469 36.41431 266.33912 36.974637 267.38086 37.400391 C 268.43166 37.826145 269.63997 38.039062 271.00781 38.039062 C 272.30319 38.039062 273.44887 37.858438 274.44531 37.496094 C 275.44176 37.13375 276.3165 36.608375 277.06836 35.919922 C 277.78399 35.258644 278.34627 34.453106 278.75391 33.501953 C 279.17061 32.541741 279.37891 31.467927 279.37891 30.28125 C 279.37891 29.284804 279.21017 28.324368 278.875 27.400391 C 278.54889 26.467355 278.04197 25.638751 277.35352 24.914062 C 276.67412 24.198432 275.80595 23.617699 274.74609 23.173828 C 273.68624 22.729957 272.44368 22.507812 271.02148 22.507812 z M 215.96484 22.535156 C 215.8199 22.743504 215.61887 22.984101 215.36523 23.255859 C 215.12065 23.527617 214.80358 23.791281 214.41406 24.044922 C 214.0336 24.289504 213.55436 24.497809 212.97461 24.669922 C 212.40392 24.842035 211.72365 24.927734 210.93555 24.927734 L 210.18945 24.927734 L 210.18945 26.21875 L 213.62695 26.21875 L 213.62695 34.832031 C 213.62695 35.212493 213.55048 35.513063 213.39648 35.730469 C 213.24249 35.947875 213.02957 36.10082 212.75781 36.191406 C 212.54041 36.263875 212.13302 36.337688 211.53516 36.410156 C 210.94635 36.482629 210.5159 36.526809 210.24414 36.544922 L 210.24414 37.578125 L 221.45312 37.578125 L 221.45312 36.544922 C 221.19042 36.526805 220.78304 36.473399 220.23047 36.382812 C 219.67789 36.292227 219.28435 36.192688 219.04883 36.083984 C 218.78613 35.957164 218.58244 35.774586 218.4375 35.539062 C 218.30163 35.29448 218.23242 35.009703 218.23242 34.683594 L 218.23242 26.720703 C 218.23242 26.09566 218.24624 25.389661 218.27344 24.601562 C 218.30057 23.813465 218.32827 23.123966 218.35547 22.535156 L 215.96484 22.535156 z M 232.01172 23.705078 C 232.61865 23.705078 233.13018 23.871863 233.54688 24.207031 C 233.96357 24.542199 234.29909 25.018781 234.55273 25.634766 C 234.79732 26.232634 234.96872 26.915566 235.06836 27.685547 C 235.17707 28.455528 235.23242 29.321039 235.23242 30.28125 C 235.23242 31.350165 235.17245 32.259855 235.05469 33.011719 C 234.94598 33.754524 234.76075 34.430183 234.49805 35.037109 C 234.25347 35.598743 233.91794 36.043031 233.49219 36.369141 C 233.06643 36.69525 232.56413 36.857422 231.98438 36.857422 C 231.35934 36.857422 230.83396 36.676797 230.4082 36.314453 C 229.98245 35.952109 229.65615 35.475527 229.42969 34.886719 C 229.17605 34.234499 229.00003 33.556181 228.90039 32.849609 C 228.8098 32.143039 228.76367 31.286755 228.76367 30.28125 C 228.76367 29.321039 228.81903 28.441688 228.92773 27.644531 C 229.03644 26.838315 229.20784 26.159996 229.44336 25.607422 C 229.70606 25.000495 230.04619 24.533141 230.46289 24.207031 C 230.87958 23.871863 231.39573 23.705078 232.01172 23.705078 z M 251.52344 23.705078 C 252.13036 23.705078 252.6419 23.871863 253.05859 24.207031 C 253.47529 24.542199 253.81081 25.018781 254.06445 25.634766 C 254.30903 26.232634 254.48043 26.915566 254.58008 27.685547 C 254.68878 28.455528 254.74414 29.321039 254.74414 30.28125 C 254.74414 31.350165 254.68417 32.259855 254.56641 33.011719 C 254.45771 33.754524 254.27247 34.430183 254.00977 35.037109 C 253.76518 35.598743 253.42966 36.043031 253.00391 36.369141 C 252.57815 36.69525 252.07585 36.857422 251.49609 36.857422 C 250.87105 36.857422 250.34568 36.676797 249.91992 36.314453 C 249.49417 35.952109 249.16787 35.475527 248.94141 34.886719 C 248.68777 34.234499 248.51176 33.556181 248.41211 32.849609 C 248.32152 32.143039 248.27539 31.286755 248.27539 30.28125 C 248.27539 29.321039 248.33075 28.441688 248.43945 27.644531 C 248.54815 26.838315 248.71955 26.159996 248.95508 25.607422 C 249.21778 25.000495 249.55792 24.533141 249.97461 24.207031 C 250.3913 23.871863 250.90745 23.705078 251.52344 23.705078 z M 271.03516 23.705078 C 271.64208 23.705078 272.15362 23.871863 272.57031 24.207031 C 272.98701 24.542199 273.32253 25.018781 273.57617 25.634766 C 273.82076 26.232634 273.99411 26.915566 274.09375 27.685547 C 274.20246 28.455528 274.25586 29.321039 274.25586 30.28125 C 274.25586 31.350165 274.19784 32.259855 274.08008 33.011719 C 273.97137 33.754524 273.78418 34.430183 273.52148 35.037109 C 273.2769 35.598743 272.94333 36.043031 272.51758 36.369141 C 272.09182 36.69525 271.58757 36.857422 271.00781 36.857422 C 270.38277 36.857422 269.8574 36.676797 269.43164 36.314453 C 269.00589 35.952109 268.67959 35.475527 268.45312 34.886719 C 268.19948 34.234499 268.02347 33.556181 267.92383 32.849609 C 267.83324 32.143039 267.78906 31.286755 267.78906 30.28125 C 267.78906 29.321039 267.84247 28.441688 267.95117 27.644531 C 268.05988 26.838315 268.23128 26.159996 268.4668 25.607422 C 268.7295 25.000495 269.06963 24.533141 269.48633 24.207031 C 269.90302 23.871863 270.41917 23.705078 271.03516 23.705078 z "
     id="path4201" />
  <path
     style="font-style:normal;font-weight:normal;font-size:medium;line-height:125%;font-family:Sans;letter-spacing:0px;word-spacing:0px;fill:#ffffff;fill-opacity:1;stroke:none;stroke-width:1px;stroke-linecap:butt;stroke-linejoin:miter;stroke-opacity:1"
     d="m 223.5766,198.32921 c -0.36279,0 -0.76438,0.0524 -1.20137,0.15553 -0.437,0.10306 -0.90579,0.25566 -1.40875,0.45766 l 0,1.26037 c 0.49471,-0.27622 0.958,-0.48252 1.39087,-0.61856 0.437,-0.13605 0.85084,-0.2038 1.24249,-0.2038 0.55242,0 1.00043,0.15562 1.3426,0.46481 0.3463,0.3092 0.52024,0.70899 0.52024,1.19958 0,0.30095 -0.0806,0.60738 -0.24135,0.92069 -0.15666,0.3092 -0.43498,0.68765 -0.83488,1.13702 -0.21025,0.2391 -0.72601,0.77317 -1.5464,1.60182 -0.81627,0.82451 -1.46205,1.48309 -1.93614,1.97368 l 0,1.05119 5.86204,0 0,-1.05119 -4.35854,0 c 1.00591,-1.02652 1.78417,-1.82488 2.33659,-2.39381 0.55242,-0.57303 0.8802,-0.91911 0.98326,-1.03867 0.37516,-0.46173 0.63393,-0.86154 0.7741,-1.19959 0.1443,-0.34217 0.21632,-0.70231 0.21632,-1.08159 0,-0.79977 -0.28563,-1.44004 -0.85455,-1.91826 -0.56891,-0.47821 -1.33009,-0.71688 -2.28653,-0.71688 z m 8.34165,0 c -0.93171,0 -1.6776,0.28687 -2.23827,0.85991 -0.56067,0.57303 -0.84203,1.33297 -0.84203,2.28116 0,0.96881 0.26856,1.73481 0.80449,2.29548 0.54005,0.55654 1.2719,0.83487 2.19535,0.83487 0.44524,0 0.85055,-0.0964 1.21746,-0.28604 0.36691,-0.18963 0.67086,-0.46067 0.90997,-0.81521 -0.0619,1.12958 -0.31208,1.97312 -0.74907,2.52967 -0.43287,0.55243 -1.06156,0.82773 -1.88607,0.82773 -0.3092,0 -0.62417,-0.0396 -0.94573,-0.11799 -0.32155,-0.0784 -0.63955,-0.19126 -0.95287,-0.33967 l 0,1.13879 c 0.3463,0.12368 0.68137,0.21526 1.00293,0.2771 0.32156,0.0619 0.63777,0.093 0.95108,0.093 1.1667,0 2.09506,-0.43217 2.78353,-1.29791 0.69259,-0.86986 1.03869,-2.03263 1.03869,-3.4879 0,-1.55834 -0.28261,-2.74672 -0.8474,-3.56299 -0.56067,-0.82039 -1.37431,-1.22997 -2.44206,-1.22997 z m 23.34444,0 c -0.36278,0 -0.76437,0.0524 -1.20137,0.15553 -0.43698,0.10306 -0.90579,0.25566 -1.40874,0.45766 l 0,1.26037 c 0.49471,-0.27622 0.958,-0.48252 1.39087,-0.61856 0.43699,-0.13605 0.85084,-0.2038 1.24248,-0.2038 0.55243,0 1.00043,0.15562 1.34261,0.46481 0.34629,0.3092 0.52023,0.70899 0.52023,1.19958 0,0.30095 -0.0806,0.60738 -0.24134,0.92069 -0.15666,0.3092 -0.43499,0.68765 -0.83488,1.13702 -0.21026,0.2391 -0.72602,0.77317 -1.54641,1.60182 -0.81627,0.82451 -1.46204,1.48309 -1.93613,1.97368 l 0,1.05119 5.86203,0 0,-1.05119 -4.35853,0 c 1.00591,-1.02652 1.78416,-1.82488 2.33658,-2.39381 0.55243,-0.57303 0.88021,-0.91911 0.98327,-1.03867 0.37515,-0.46173 0.63393,-0.86154 0.77409,-1.19959 0.14429,-0.34217 0.21632,-0.70231 0.21632,-1.08159 0,-0.79977 -0.28562,-1.44004 -0.85454,-1.91826 -0.56892,-0.47821 -1.33009,-0.71688 -2.28654,-0.71688 z m 16.55279,0 c -1.03477,0 -1.82583,0.40958 -2.37413,1.22997 -0.54418,0.81627 -0.81701,2.00465 -0.81701,3.56299 0,1.55421 0.27283,2.74081 0.81701,3.5612 0.5483,0.81627 1.33936,1.22461 2.37413,1.22461 1.03476,0 1.82459,-0.40834 2.36877,-1.22461 0.5483,-0.82039 0.82236,-2.00699 0.82236,-3.5612 0,-1.55834 -0.27406,-2.74672 -0.82236,-3.56299 -0.54418,-0.82039 -1.33401,-1.22997 -2.36877,-1.22997 z m -34.67164,0.16626 0,1.05298 4.43362,0 -3.15359,8.18075 1.30327,0 3.35204,-8.70099 0,-0.53274 -5.93534,0 z m 26.18161,0 -2.20787,0.44693 0,1.13701 2.22039,-0.44515 0,7.04375 -2.03983,0 0,1.05119 5.31677,0 0,-1.05119 -2.03982,0 0,-8.18254 -1.24964,0 z m -31.4072,0.82415 c 0.56066,0 1.0026,0.1935 1.3283,0.58102 0.3298,0.3834 0.4952,0.90591 0.4952,1.56964 0,0.66786 -0.1654,1.1934 -0.4952,1.5768 -0.3257,0.3834 -0.76764,0.57565 -1.3283,0.57565 -0.56068,1e-5 -1.00565,-0.19225 -1.33546,-0.57565 -0.32568,-0.3834 -0.48983,-0.90894 -0.48983,-1.5768 0,-0.66373 0.16415,-1.18624 0.48983,-1.56964 0.32981,-0.38752 0.77478,-0.58102 1.33546,-0.58102 z m 39.89723,0 c 0.64724,0 1.13188,0.31621 1.45344,0.95109 0.32568,0.63075 0.48805,1.5817 0.48805,2.85146 0,1.26563 -0.16237,2.2148 -0.48805,2.84967 -0.32156,0.63075 -0.8062,0.94751 -1.45344,0.94751 -0.64313,0 -1.12777,-0.31676 -1.45344,-0.94751 -0.32156,-0.63487 -0.48091,-1.58404 -0.48091,-2.84967 1e-5,-1.26976 0.15935,-2.22071 0.48091,-2.85146 0.32567,-0.63488 0.81031,-0.95109 1.45344,-0.95109 z m -27.05403,1.48384 2.46173,3.30197 -2.69056,3.62377 1.34259,0 2.0148,-2.72095 2.01658,2.72095 1.34261,0 -2.63515,-3.55583 2.50464,-3.36991 -1.3426,0 -1.83603,2.46709 -1.83602,-2.46709 -1.34259,0 z"
     id="path4219"
     inkscape:connector-curvature="0" />
  <path
     style="color:#000000;font-style:normal;font-variant:normal;font-weight:normal;font-stretch:normal;font-size:medium;line-height:normal;font-family:sans-serif;text-indent:0;text-align:start;text-decoration:none;text-decoration-line:none;text-decoration-style:solid;text-decoration-color:#000000;letter-spacing:normal;word-spacing:normal;text-transform:none;direction:ltr;block-progression:tb;writing-mode:lr-tb;baseline-shift:baseline;text-anchor:start;white-space:normal;clip-rule:nonzero;display:inline;overflow:visible;visibility:visible;opacity:1;isolation:auto;mix-blend-mode:normal;color-interpolation:sRGB;color-interpolation-filters:linearRGB;solid-color:#000000;solid-opacity:1;fill:#000000;fill-opacity:1;fill-rule:nonzero;stroke:none;stroke-width:1;stroke-linecap:butt;stroke-linejoin:miter;stroke-miterlimit:1;stroke-dasharray:none;stroke-dashoffset:0;stroke-opacity:1;color-rendering:auto;image-rendering:auto;shape-rendering:auto;text-rendering:auto;enable-background:accumulate"
     d="m 0.4921875,0.01367188 -0.5,0.5 0,209.00976812 0.5,0.5 296.0898425,0 0.5,-0.5 0,-209.00976812 -0.5,-0.5 -296.0898425,0 z m 0.5,1.00000002 295.0898425,0 0,208.0097681 -295.0898425,0 0,-208.0097681 z"
     id="rect4149"
     inkscape:connector-curvature="0" />
</svg>
