<svg xmlns="http://www.w3.org/2000/svg" viewBox="0 0 297 210" width="297" height="210"><path d="M9.826 76.294h115.55v118.202H9.826z" fill="#a02c2c"/><path d="M10.133 137.02l17.853 6.273 18.817-6.272s9.117 15.854-.603 28.348c-7.505 9.648-22.84 6.472-36.67 0-9.36-4.38.603-28.347.603-28.347z" fill="#ff0"/><path d="M71.05 172.545a16.767 15.38 0 0 1-16.768 15.38 16.767 15.38 0 0 1-16.767-15.38 16.767 15.38 0 0 1 16.767-15.38 16.767 15.38 0 0 1 16.767 15.38z" fill="#f9f9f9"/><path style="line-height:125%" d="M20.318 149.137v.945h.746v-.945h-.746zm15.203 0v.945h.748v-.945h-.747zm-20.858.256v6.05h2.172c.678 0 1.2-.148 1.568-.443.368-.294.55-.71.55-1.25 0-.412-.11-.754-.335-1.027-.22-.275-.535-.456-.937-.543.335-.054.59-.19.76-.408.174-.22.26-.513.26-.883 0-.48-.167-.85-.505-1.108-.337-.26-.82-.39-1.443-.39h-2.09zm7.945.223v1.29h-.546v.58h.547v2.462c0 .567.11.96.33 1.176.217.213.615.32 1.19.32h.766v-.625h-.766c-.31 0-.517-.054-.62-.16-.1-.105-.15-.342-.15-.712v-2.463h1.536v-.58h-1.536v-1.29h-.75zm-7.127.45h1.21c.4 0 .7.076.894.227.197.152.295.38.295.684 0 .308-.1.538-.296.69-.195.148-.493.222-.893.222h-1.21v-1.825zm12.354.73c-.708 0-1.264.212-1.672.636-.405.424-.61 1.006-.61 1.746 0 .73.204 1.31.606 1.738.403.43.946.645 1.63.645.25 0 .487-.025.708-.073.224-.05.44-.122.65-.22v-.686c-.212.117-.425.203-.638.262-.21.057-.425.086-.64.086-.484 0-.86-.152-1.128-.457-.267-.307-.4-.738-.4-1.292s.133-.984.4-1.29c.268-.307.644-.46 1.127-.46.216 0 .43.03.64.088.214.057.427.144.638.26v-.697c-.206-.096-.418-.166-.637-.212-.22-.05-.444-.073-.674-.073zm4.373 0c-.65 0-1.16.21-1.53.632-.37.422-.552 1.005-.552 1.75 0 .743.183 1.326.55 1.75.37.422.88.633 1.532.633.648 0 1.157-.21 1.527-.632.37-.424.555-1.007.555-1.75 0-.745-.186-1.328-.556-1.75-.37-.42-.88-.633-1.527-.633zm7.805 0c-.316 0-.597.067-.84.203-.24.134-.45.337-.627.61v-.705h-.75v4.54h.75v-2.568c0-.443.115-.792.348-1.048.232-.258.55-.386.953-.386.335 0 .586.107.754.32.167.214.25.533.25.963v2.717h.746v-2.74c0-.627-.133-1.1-.4-1.422-.268-.324-.663-.487-1.184-.487zm-19.694.11v4.538h.746v-4.54h-.746zm15.203 0v4.538h.748v-4.54h-.747zm-3.313.522c.397 0 .71.157.943.473.233.314.35.74.35 1.278 0 .54-.117.966-.35 1.28-.232.313-.546.47-.943.47-.402 0-.72-.156-.953-.467-.23-.312-.344-.74-.344-1.282 0-.543.117-.97.35-1.28.232-.314.547-.47.947-.47zm-16.727 1.125h1.313c.44 0 .766.09.977.272.213.178.32.457.32.836 0 .376-.107.655-.32.84-.21.18-.537.27-.977.27H15.48v-2.217z" font-family="Sans" letter-spacing="0" word-spacing="0" fill="#007e00"/><path d="M273.276 181.502l-12.04-7.73-2.86 14.02-5.197-13.33-10.554 9.66 3.63-13.84-14.217 1.614 11.07-9.062-12.45-7.052 14.285-.824-5.927-13.022 12.04 7.73 2.86-14.02 5.197 13.33 10.554-9.66-3.63 13.838 14.215-1.613-11.07 9.064 12.448 7.05-14.284.826z" fill="#007e00"/><path d="M155.786 74.64l-9.65-4.513-.724 10.63-5.153-9.325-6.834 8.172 1.31-10.572-10.33 2.595 7.274-7.782-9.884-3.974 10.46-2.018-5.66-9.025 9.648 4.514.725-10.627 5.152 9.324 6.834-8.173-1.312 10.572 10.332-2.595-7.275 7.783 9.886 3.974-10.46 2.02z" fill="red"/><path d="M149.594 114.245l69.24-.724 12.786 75.996-94.933.724-1.93-23.643 3.86 14.114 7.237-3.86 13.872 7.48 20.507-16.406 1.93-25.332-22.8-17.13-23.038 4.826z" fill="#a80"/><path style="line-height:125%;-inkscape-font-specification:'SimHei, Normal';text-align:start" d="M109.8 21.41c-.236.197-.55.414-.945.65.434.474.848.987 1.242 1.54H108.027c-.04-.434-.06-.73-.06-.887.04-.197.08-.495.12-.89-.396 0-.83-.037-1.302-.116.08.434.136 1.064.176 1.893h-5.794c-.75 0-1.48-.02-2.19-.06v.946c.71-.04 1.44-.058 2.19-.058h5.855c.08 1.222.178 2.443.296 3.666.158 1.222.415 2.405.77 3.548.394 1.105.868 1.973 1.42 2.604.59.67 1.143.946 1.656.828.513-.08.927-.828 1.242-2.248-.473-.118-.887-.335-1.242-.65-.04.512-.12.967-.238 1.36-.08.395-.353.257-.827-.413-.473-.67-.868-1.52-1.183-2.545-.316-1.065-.532-2.01-.65-2.838-.08-.828-.158-1.932-.237-3.312h1.832c.512 0 1.202.02 2.07.058v-.945c-.592.04-1.163.06-1.715.06.355-.237.67-.435.947-.592-.63-.75-1.085-1.282-1.36-1.598zm37.323 0c-.276 1.065-.77 2.27-1.48 3.61-.708 1.34-1.38 2.306-2.01 2.898.354.236.652.55.888.945.514-.59 1.045-1.4 1.597-2.426v6.448c0 .71-.02 1.578-.06 2.603h1.36c-.04-1.025-.077-1.894-.116-2.603v-8.4c.474-1.34.888-2.187 1.243-2.542-.355-.118-.83-.296-1.42-.533zm-12.244.238c.038.474.06.886.06 1.24h-2.307c-1.144 0-2.327-.02-3.55-.058v1.006c1.223-.04 2.406-.06 3.55-.06h2.306v1.007h-1.54c-.907 0-1.773-.02-2.6-.06v.947c.866-.04 1.754-.06 2.66-.06h4.614c.868 0 1.715.02 2.543.06v-.947c-.828.04-1.675.06-2.543.06h-1.834v-1.006h3.193c.868 0 1.794.02 2.78.06V22.83c-1.026.04-1.952.06-2.78.06h-3.193c0-.396.02-.808.06-1.242h-1.42zm42.053 0c.04.63.06 1.24.06 1.832v1.954h-1.302c.16-.83.316-1.362.474-1.598-.394-.08-.828-.177-1.3-.295-.04.592-.16 1.32-.356 2.188-.158.83-.335 1.52-.532 2.07.316.08.67.2 1.065.356.12-.512.257-1.105.415-1.775h1.537v3.016c-1.42.552-2.386.848-2.898.887.276.434.492.848.65 1.242.473-.276 1.223-.61 2.248-1.006v2.898c0 .67-.02 1.36-.06 2.07h1.185c-.04-.75-.06-1.44-.06-2.07v-3.313c.67-.276 1.222-.492 1.656-.65-.08-.355-.14-.69-.178-1.006-.473.196-.966.394-1.48.59v-2.66c.593 0 1.107.018 1.54.057v-1.064c-.473.04-.987.06-1.54.06V23.48c0-.63.042-1.24.12-1.832h-1.242zm5.975 0c.08.395.117.985.117 1.774h-.887c-.67 0-1.222-.02-1.656-.06v1.066c.473-.04 1.026-.06 1.656-.06h.887v2.13h-1.183c-.67 0-1.28-.02-1.832-.06v1.066c.552-.04 1.182-.06 1.892-.06h2.957v1.775h-2.9c-.748 0-1.34-.02-1.773-.06v1.123c.513-.04 1.103-.06 1.774-.06h2.9v3.373c0 .354-.12.552-.356.59-.237.04-.71.04-1.42 0 .236.435.395.887.474 1.36.907-.118 1.517-.275 1.832-.472.316-.158.494-.474.534-.947v-3.903c.828 0 1.478.02 1.95.06V29.16c-.433.04-1.083.06-1.95.06v-1.777h.533c.552 0 1.064.02 1.537.06v-1.066c-.513.04-1.065.06-1.656.06h-2.248V24.37h1.36c.75 0 1.32.018 1.716.058v-1.065c-.552.04-1.124.06-1.715.06h-1.36c0-.79.02-1.38.06-1.775h-1.242zm-65.773.118c.04.433.06.75.06.947h-1.125c-1.104 0-1.932-.02-2.484-.06v1.005c.552-.04 1.38-.06 2.484-.06h1.125v.947h1.182V23.6h3.607v.945h1.125V23.6h1.36c1.063 0 1.853.02 2.366.058v-1.006c-.67.04-1.46.06-2.367.06h-1.36c0-.275.018-.592.058-.946h-1.242c.04.354.058.67.058.947h-3.607c0-.276.02-.593.058-.947h-1.3zm38.86 0c-.55.315-1.38.59-2.484.828-1.103.197-2.64.394-4.612.59.316.356.51.71.59 1.066 1.34-.237 2.288-.394 2.84-.473v3.785h-1.834c-.75 0-1.46-.02-2.13-.058v1.123c.71-.04 1.42-.06 2.13-.06h1.834v4.792c0 .71-.04 1.418-.12 2.128h1.362c-.04-.75-.06-1.458-.06-2.13v-4.79h2.19c.63 0 1.26.02 1.892.06v-1.124c-.63.04-1.28.058-1.952.058h-2.13V23.6c.908-.158 2.013-.315 3.314-.473-.237-.237-.513-.69-.828-1.36zm9.936.12c.04.866.06 1.733.06 2.6V33.3c0 .985.514 1.477 1.54 1.477h3.134c.355 0 .69-.138 1.006-.414.315-.276.61-.945.886-2.01-.59-.157-1.045-.336-1.36-.533-.16.79-.316 1.303-.474 1.54-.118.236-.315.353-.59.353h-2.247c-.474 0-.71-.276-.71-.828v-4.967c1.142-.513 2.15-1.007 3.016-1.48.908-.513 1.598-.906 2.07-1.182-.353-.355-.69-.75-1.004-1.184-.868.907-2.23 1.795-4.082 2.662V24.25c0-.75.02-1.537.058-2.365h-1.3zm-5.913.294c.04.67.06 1.48.06 2.425v7.926c-.08.474-.218.79-.415.946.276.474.552.888.828 1.243.355-.317 1.005-.71 1.95-1.183.987-.473 1.934-.928 2.84-1.36-.078-.317-.156-.73-.235-1.243-.907.473-1.617.847-2.13 1.123-.472.236-1.025.493-1.655.77V27.62h1.42c.75 0 1.556.02 2.423.06v-1.243c-.867.04-1.674.06-2.424.06h-1.42v-2.01c0-.908.02-1.677.058-2.307h-1.3zm-44.302 2.84c.04.552.06.945.06 1.18v2.663c0 .197-.02.514-.06.947h4.14v.83h-5.383v4.612h1.184v-3.727h4.2v1.42c-.71.08-1.34.158-1.893.237-.552.04-.967.058-1.243.058.12.355.238.73.356 1.123.473-.118.966-.216 1.478-.295.513-.08 1.006-.157 1.48-.236.472-.08.946-.138 1.42-.178.472-.08.984-.138 1.536-.178.118.237.256.494.414.77.316-.197.613-.375.89-.533-.12-.316-.298-.65-.534-1.004l-.71-1.185h2.188v2.07c0 .356-.06.553-.178.592-.118.04-.432.04-.945 0 .197.395.335.788.414 1.182.55-.08 1.004-.178 1.358-.296.355-.118.534-.494.534-1.125v-3.31h-5.383v-.83h4.08c-.04-.394-.06-.69-.06-.888v-2.66c0-.237.02-.65.06-1.243h-9.405zm-16.088.058v.887c.552-.04 1.066-.06 1.54-.06h3.192c.354 0 .887.02 1.597.06v-.887c-.71.04-1.243.06-1.598.06h-3.194c-.473 0-.987-.02-1.54-.06zm17.213.828h3.015v1.123h-3.015v-1.124zm4.2 0h2.956v1.123h-2.957v-1.124zm8.102.414c.04.237.06.513.06.828 0 .316-.02.67-.06 1.065h1.36v-1.065h10.293v.828h1.3c-.04-.276-.058-.552-.058-.828 0-.315.02-.59.058-.828h-12.953zm-30.52.295v.89c.63-.04 1.38-.062 2.247-.062h3.548c.63 0 1.4.02 2.306.06v-.888c-.71.04-1.478.06-2.306.06h-3.666c-.828 0-1.54-.02-2.13-.06zm32.886 1.242v.948c.985-.04 2.03-.06 3.134-.06h2.368c.906 0 1.852.02 2.837.06v-.948c-.985.04-1.93.06-2.837.06h-2.426c-1.065 0-2.09-.02-3.076-.06zm-14.668.06h3.015v1.005h-3.015v-1.004zm4.2 0h2.956v1.005h-2.957v-1.004zm-21.353.237c.04.592.06 1.36.06 2.307 0 .947-.02 1.795-.06 2.544h6.448c-.04-.75-.06-1.637-.06-2.662s.02-1.754.06-2.188h-6.448zm1.004.768h4.44v.592h-4.44v-.592zm30.462.71c.04.316.06.71.06 1.182 0 .474-.02.928-.06 1.362h2.248c-.355.197-.73.335-1.123.414.316.394.55.847.71 1.36h-1.597c-.946 0-1.853-.02-2.72-.06v1.006c.867-.04 1.774-.058 2.72-.058h8.34c.868 0 1.813.02 2.838.058V33.89c-1.025.04-1.99.06-2.898.06h-1.537c.433-.75.748-1.183.945-1.302-.473-.197-.866-.354-1.182-.472h2.307c-.04-.395-.06-.81-.06-1.242 0-.474.02-.907.06-1.3h-9.05zm-30.46.593h4.437v.59h-4.44v-.59zm31.763.236h6.447v.888h-6.447v-.887zm49.506.65c-.354.16-.728.297-1.122.415.315.552.61 1.243.886 2.07.395-.196.77-.335 1.123-.413-.276-.67-.57-1.36-.886-2.07zm-81.27.415h4.44v.71h-4.44v-.71zm20.35 0h1.833c-.355.237-.612.375-.77.414.158.197.355.473.592.828-.63.078-1.183.117-1.656.117v-1.36zm12.538.65h4.14c-.157.356-.314.672-.472.948-.118.237-.297.51-.533.826h-2.426c-.276-.71-.512-1.3-.71-1.774zm-28.805.887l-.71.71c.317.277.907.887 1.775 1.833.276-.354.552-.61.828-.767-.237-.237-.868-.83-1.893-1.776zm-3.607.06c-.552.592-1.264 1.183-2.13 1.774.236.198.454.454.65.77.514-.434 1.283-1.007 2.308-1.717-.276-.316-.552-.59-.828-.827z" font-family="SimHei" letter-spacing="0" word-spacing="0"/><path d="M-.003 0l-.004 210.013 297.083.025-.048-210.043zm8.92 15.504h280.117v180.38H8.917z" fill="#a40"/><path style="line-height:125%;-inkscape-font-specification:'Georgia, Bold';text-align:start" d="M51.354 82.01c-1.98 0-3.73.312-5.254.937-1.524.612-2.78 1.433-3.77 2.46-1.016 1.056-1.77 2.234-2.266 3.536-.48 1.302-.722 2.715-.722 4.24 0 1.535.254 2.974.762 4.315.52 1.34 1.276 2.507 2.265 3.496 1.002 1.003 2.252 1.81 3.75 2.422 1.51.612 3.248.918 5.214.918 1.862 0 3.51-.26 4.94-.78 1.434-.522 2.69-1.277 3.77-2.267 1.03-.95 1.837-2.11 2.423-3.476.6-1.38.898-2.923.898-4.628 0-1.433-.24-2.813-.722-4.14-.47-1.342-1.198-2.534-2.188-3.575-.976-1.03-2.226-1.862-3.75-2.5-1.523-.638-3.307-.957-5.35-.957zm28.046 0c-1.98 0-3.73.312-5.254.937-1.523.612-2.78 1.433-3.77 2.46-1.015 1.056-1.77 2.234-2.265 3.536-.48 1.302-.72 2.715-.72 4.24 0 1.535.253 2.974.76 4.315.52 1.34 1.276 2.507 2.266 3.496 1.003 1.003 2.253 1.81 3.75 2.422 1.51.612 3.25.918 5.215.918 1.863 0 3.51-.26 4.942-.78 1.433-.522 2.69-1.277 3.77-2.267 1.028-.95 1.836-2.11 2.422-3.476.6-1.38.898-2.923.898-4.628 0-1.433-.24-2.813-.723-4.14-.47-1.342-1.198-2.534-2.188-3.575-.977-1.03-2.227-1.862-3.75-2.5-1.523-.638-3.307-.957-5.352-.957zm28.047 0c-1.98 0-3.73.312-5.254.937-1.523.612-2.78 1.433-3.77 2.46-1.015 1.056-1.77 2.234-2.265 3.536-.482 1.302-.722 2.715-.722 4.24 0 1.535.253 2.974.76 4.315.522 1.34 1.277 2.507 2.267 3.496 1.002 1.003 2.252 1.81 3.75 2.422 1.51.612 3.25.918 5.215.918 1.862 0 3.51-.26 4.94-.78 1.433-.522 2.69-1.277 3.77-2.267 1.03-.95 1.837-2.11 2.423-3.476.6-1.38.9-2.923.9-4.628 0-1.433-.242-2.813-.724-4.14-.468-1.342-1.198-2.534-2.187-3.575-.978-1.03-2.228-1.862-3.75-2.5-1.525-.638-3.308-.957-5.353-.957zm-79.14.04c-.21.298-.495.643-.86 1.034-.35.39-.807.768-1.367 1.133-.547.35-1.237.65-2.07.898-.82.248-1.797.37-2.93.37h-1.074v1.857h4.94v12.383c0 .546-.11.976-.33 1.29-.222.31-.528.533-.92.663-.31.104-.897.208-1.757.312-.847.104-1.465.17-1.856.196v1.484h16.113v-1.484c-.377-.026-.963-.105-1.758-.235s-1.36-.272-1.7-.43c-.377-.18-.67-.44-.88-.78-.194-.35-.292-.76-.292-1.23V88.064c0-.898.02-1.914.06-3.046.038-1.133.077-2.123.116-2.97h-3.437zm23.066 1.68c.872 0 1.608.24 2.207.72.6.483 1.08 1.167 1.445 2.052.352.86.6 1.842.743 2.95.156 1.106.234 2.35.234 3.73 0 1.536-.085 2.845-.254 3.925-.156 1.068-.423 2.038-.8 2.91-.352.808-.834 1.446-1.446 1.915-.612.468-1.335.703-2.168.703-.898 0-1.654-.26-2.266-.78-.612-.522-1.08-1.206-1.406-2.052-.364-.938-.618-1.914-.762-2.93-.13-1.016-.195-2.246-.195-3.69 0-1.382.078-2.645.234-3.79.156-1.16.403-2.136.742-2.93.377-.873.866-1.543 1.464-2.012.6-.48 1.342-.72 2.227-.72zm28.047 0c.872 0 1.608.24 2.207.72.6.483 1.08 1.167 1.445 2.052.352.86.6 1.842.742 2.95.157 1.106.235 2.35.235 3.73 0 1.536-.086 2.845-.255 3.925-.156 1.068-.423 2.038-.8 2.91-.352.808-.834 1.446-1.446 1.915-.613.468-1.336.703-2.17.703-.898 0-1.653-.26-2.265-.78-.612-.522-1.08-1.206-1.406-2.052-.366-.938-.62-1.914-.763-2.93-.13-1.016-.195-2.246-.195-3.69 0-1.382.078-2.645.234-3.79.157-1.16.404-2.136.743-2.93.376-.873.864-1.543 1.463-2.012.6-.48 1.342-.72 2.227-.72zm28.047 0c.872 0 1.608.24 2.207.72.6.483 1.08 1.167 1.445 2.052.35.86.598 1.842.74 2.95.158 1.106.236 2.35.236 3.73 0 1.536-.085 2.845-.254 3.925-.156 1.068-.423 2.038-.8 2.91-.353.808-.834 1.446-1.446 1.915-.612.468-1.335.703-2.168.703-.9 0-1.654-.26-2.266-.78-.612-.522-1.08-1.206-1.406-2.052-.365-.938-.62-1.914-.762-2.93-.13-1.016-.195-2.246-.195-3.69 0-1.382.077-2.645.233-3.79.156-1.16.404-2.136.742-2.93.378-.873.866-1.543 1.465-2.012.6-.48 1.34-.72 2.227-.72z" font-weight="bold" font-family="Georgia" letter-spacing="0" word-spacing="0" fill="#fff6d5"/><path style="line-height:125%;-inkscape-font-specification:'Georgia, Bold';text-align:start" d="M231.998 22.508c-1.377 0-2.596.217-3.656.652-1.06.426-1.933.997-2.62 1.713-.708.734-1.233 1.553-1.577 2.46-.336.905-.504 1.888-.504 2.948 0 1.07.18 2.07.532 3.003.362.933.888 1.745 1.576 2.434.698.697 1.566 1.258 2.607 1.683 1.05.426 2.262.64 3.63.64 1.295 0 2.44-.182 3.437-.544.996-.362 1.87-.888 2.623-1.576.716-.66 1.276-1.467 1.684-2.418.415-.96.624-2.034.624-3.22 0-.997-.167-1.958-.502-2.882-.327-.933-.833-1.76-1.522-2.486-.68-.716-1.55-1.296-2.61-1.74-1.06-.444-2.3-.666-3.722-.666zm19.512 0c-1.377 0-2.595.217-3.655.652-1.06.426-1.934.997-2.623 1.713-.706.734-1.232 1.553-1.576 2.46-.335.905-.504 1.888-.504 2.948 0 1.07.178 2.07.532 3.003.362.933.887 1.745 1.576 2.434.697.697 1.567 1.258 2.61 1.683 1.05.426 2.258.64 3.626.64 1.295 0 2.44-.182 3.438-.544.996-.362 1.87-.888 2.623-1.576.715-.66 1.278-1.467 1.685-2.418.417-.96.625-2.034.625-3.22 0-.997-.17-1.958-.504-2.882-.326-.933-.833-1.76-1.52-2.486-.68-.716-1.55-1.296-2.61-1.74-1.06-.444-2.3-.666-3.723-.666zm19.51 0c-1.375 0-2.593.217-3.653.652-1.06.426-1.934.997-2.623 1.713-.706.734-1.232 1.553-1.576 2.46-.335.905-.502 1.888-.502 2.948 0 1.07.176 2.07.53 3.003.362.933.887 1.745 1.575 2.434.7.697 1.57 1.258 2.61 1.683 1.052.426 2.26.64 3.628.64 1.295 0 2.44-.182 3.437-.544.997-.362 1.872-.888 2.623-1.576.716-.66 1.278-1.467 1.686-2.418.417-.96.625-2.034.625-3.22 0-.997-.17-1.958-.505-2.882-.326-.933-.833-1.76-1.52-2.486-.68-.716-1.55-1.296-2.61-1.74-1.06-.444-2.3-.666-3.724-.666zm-55.055.027c-.145.21-.346.45-.6.72-.244.273-.56.536-.95.79-.38.245-.86.453-1.44.625-.57.172-1.25.258-2.04.258h-.746v1.29h3.437v8.614c0 .38-.077.68-.23.898-.155.218-.367.37-.64.46-.217.074-.624.148-1.222.22-.59.073-1.02.117-1.29.135v1.033h11.208v-1.033c-.263-.018-.67-.072-1.223-.162-.552-.09-.946-.19-1.18-.3-.264-.126-.468-.308-.613-.544-.135-.246-.205-.53-.205-.856V26.72c0-.624.014-1.33.04-2.118.03-.79.056-1.478.083-2.067h-2.39zm16.047 1.17c.607 0 1.118.167 1.535.502.417.335.752.812 1.006 1.428.244.598.416 1.28.515 2.05.11.77.164 1.636.164 2.596 0 1.07-.06 1.98-.177 2.732-.11.743-.294 1.418-.557 2.025-.245.562-.58 1.006-1.006 1.332-.426.325-.928.487-1.508.487-.625 0-1.15-.18-1.576-.543-.426-.362-.752-.838-.978-1.427-.254-.653-.43-1.33-.53-2.037-.09-.707-.136-1.563-.136-2.57 0-.96.055-1.838.164-2.635.108-.807.28-1.485.515-2.038.263-.607.603-1.074 1.02-1.4.417-.335.933-.502 1.55-.502zm19.51 0c.608 0 1.12.167 1.537.502.415.335.75.812 1.004 1.428.245.598.416 1.28.516 2.05.11.77.164 1.636.164 2.596 0 1.07-.06 1.98-.178 2.732-.108.743-.294 1.418-.556 2.025-.245.562-.58 1.006-1.006 1.332-.426.325-.928.487-1.508.487-.625 0-1.15-.18-1.576-.543-.426-.362-.752-.838-.98-1.427-.252-.653-.428-1.33-.528-2.037-.09-.707-.137-1.563-.137-2.57 0-.96.056-1.838.164-2.635.108-.807.28-1.485.515-2.038.263-.607.603-1.074 1.02-1.4.416-.335.932-.502 1.548-.502zm19.513 0c.607 0 1.12.167 1.535.502.417.335.753.812 1.006 1.428.245.598.418 1.28.518 2.05.108.77.162 1.636.162 2.596 0 1.07-.058 1.98-.176 2.732-.11.743-.296 1.418-.56 2.025-.243.562-.577 1.006-1.002 1.332-.426.325-.93.487-1.51.487-.625 0-1.15-.18-1.576-.543-.426-.362-.752-.838-.98-1.427-.253-.653-.43-1.33-.528-2.037-.09-.707-.135-1.563-.135-2.57 0-.96.052-1.838.16-2.635.11-.807.28-1.485.517-2.038.262-.607.603-1.074 1.02-1.4.416-.335.932-.502 1.548-.502z" font-weight="bold" font-family="Georgia" letter-spacing="0" word-spacing="0" fill="#d45500"/><path style="line-height:125%" d="M223.577 198.33c-.363 0-.765.052-1.202.155-.437.103-.906.255-1.41.457v1.26c.496-.275.96-.482 1.392-.618.437-.136.85-.204 1.243-.204.552 0 1 .156 1.342.465.347.31.52.71.52 1.2 0 .3-.08.607-.24.92-.157.31-.436.688-.836 1.138-.21.24-.726.773-1.546 1.6-.816.826-1.462 1.484-1.936 1.975v1.05h5.862v-1.05h-4.36c1.007-1.027 1.786-1.825 2.338-2.394.552-.573.88-.92.983-1.038.375-.462.634-.862.774-1.2.146-.342.218-.702.218-1.082 0-.8-.286-1.44-.855-1.918-.57-.478-1.33-.717-2.286-.717zm8.34 0c-.93 0-1.676.286-2.237.86-.56.572-.842 1.332-.842 2.28 0 .97.27 1.735.804 2.296.54.556 1.272.835 2.196.835.445 0 .85-.096 1.217-.285.367-.19.67-.46.91-.816-.062 1.13-.312 1.972-.75 2.53-.432.55-1.06.827-1.885.827-.31 0-.624-.04-.946-.118-.32-.08-.64-.192-.953-.34v1.138c.348.124.683.215 1.004.277.322.062.638.093.95.093 1.168 0 2.097-.432 2.785-1.298.692-.87 1.038-2.033 1.038-3.488 0-1.558-.283-2.747-.848-3.563-.56-.82-1.374-1.23-2.442-1.23zm23.346 0c-.363 0-.765.052-1.202.155-.436.103-.904.255-1.407.457v1.26c.494-.275.958-.482 1.39-.618.437-.136.85-.204 1.243-.204.552 0 1 .156 1.343.465.345.31.52.71.52 1.2 0 .3-.082.607-.243.92-.156.31-.435.688-.834 1.138-.21.24-.726.773-1.547 1.6-.816.826-1.462 1.484-1.936 1.975v1.05h5.862v-1.05h-4.358c1.005-1.027 1.784-1.825 2.336-2.394.553-.573.88-.92.983-1.038.376-.462.634-.862.774-1.2.145-.342.217-.702.217-1.082 0-.8-.286-1.44-.855-1.918-.57-.478-1.33-.717-2.287-.717zm16.552 0c-1.034 0-1.825.41-2.374 1.23-.543.815-.816 2.004-.816 3.562 0 1.554.273 2.74.817 3.56.55.818 1.34 1.226 2.375 1.226s1.825-.408 2.37-1.225c.548-.82.822-2.007.822-3.56 0-1.56-.274-2.748-.823-3.564-.544-.82-1.334-1.23-2.37-1.23zm-34.67.165v1.053h4.432l-3.153 8.18h1.303l3.352-8.7v-.533h-5.936zm26.18 0l-2.207.447v1.137l2.22-.446v7.044h-2.04v1.05h5.317v-1.05h-2.04v-8.183h-1.25zm-31.407.825c.56 0 1.003.193 1.33.58.328.384.494.907.494 1.57 0 .668-.166 1.194-.495 1.577-.326.383-.768.576-1.33.576-.56 0-1.004-.193-1.334-.576-.326-.383-.49-.91-.49-1.577 0-.663.164-1.186.49-1.57.33-.387.775-.58 1.335-.58zm39.897 0c.648 0 1.132.316 1.454.95.325.63.487 1.582.487 2.852 0 1.266-.162 2.215-.488 2.85-.323.63-.807.947-1.455.947-.643 0-1.127-.317-1.453-.948-.322-.635-.48-1.584-.48-2.85 0-1.27.158-2.22.48-2.85.326-.636.81-.952 1.453-.952zm-27.054 1.483l2.463 3.302-2.69 3.624h1.342l2.015-2.722 2.017 2.72h1.342l-2.636-3.555 2.505-3.37h-1.344l-1.836 2.468-1.836-2.467h-1.343z" font-family="Sans" letter-spacing="0" word-spacing="0" fill="#fff"/><path style="line-height:normal;text-indent:0;text-align:start;text-decoration-line:none;text-decoration-style:solid;text-decoration-color:#000000;text-transform:none;block-progression:tb;isolation:auto;mix-blend-mode:normal" d="M.492.014l-.5.5v209.01l.5.5h296.09l.5-.5V.513l-.5-.5H.492zm.5 1h295.09v208.01H.992V1.013z" color="#000" font-family="sans-serif" white-space="normal" overflow="visible" solid-color="#000000"/></svg>