<svg xmlns="http://www.w3.org/2000/svg" viewBox="0 0 297 210" width="297" height="210"><path d="M199.14 141.333l-12.04-7.73-2.858 14.02-5.198-13.33-10.553 9.66 3.63-13.838-14.216 1.613 11.072-9.063-12.45-7.05 14.284-.826-5.927-13.023 12.04 7.73 2.86-14.02 5.197 13.33 10.554-9.66-3.63 13.84 14.216-1.614-11.07 9.062 12.448 7.052-14.284.824z" fill="#007e00"/><path d="M145.45 65.485l-9.65-4.514-.725 10.63-5.153-9.324-6.834 8.172 1.31-10.572-10.33 2.595 7.274-7.78-9.884-3.975 10.46-2.02-5.66-9.024 9.65 4.515.723-10.628 5.154 9.324 6.834-8.172-1.31 10.572 10.33-2.595-7.274 7.782 9.884 3.974-10.46 2.02z" fill="red"/><path style="line-height:125%;-inkscape-font-specification:'SimHei, Normal';text-align:start" d="M256.443 9.307c-.092.077-.215.16-.368.254.17.185.33.386.484.6h-.808c-.016-.168-.024-.283-.024-.345.016-.077.03-.193.047-.347-.154 0-.323-.014-.508-.045.03.17.054.415.07.738h-2.26c-.293 0-.578-.007-.855-.022v.37c.277-.017.562-.024.854-.024h2.283c.03.476.068.953.114 1.43.062.476.162.937.3 1.383.154.43.34.77.554 1.015.23.262.446.37.646.323.2-.03.36-.323.484-.876-.184-.048-.346-.132-.484-.255-.015.2-.047.377-.093.53-.03.155-.136.1-.32-.16-.185-.262-.34-.593-.462-.993-.124-.415-.208-.784-.254-1.107-.03-.323-.062-.753-.092-1.29h.714c.2 0 .47.006.807.022v-.37c-.23.016-.453.024-.668.024.138-.09.26-.17.37-.23-.247-.292-.424-.5-.532-.623zm14.554 0c-.108.415-.3.885-.577 1.407-.276.523-.538.9-.784 1.13.138.093.254.216.346.37.2-.23.407-.547.623-.947v2.514c0 .278-.008.617-.023 1.017h.53c-.016-.4-.03-.74-.046-1.016v-3.273c.185-.523.346-.854.485-.992-.138-.046-.323-.116-.553-.208zm-4.775.093c.016.184.024.345.024.484h-.9c-.445 0-.907-.008-1.383-.023v.393c.476-.015.938-.023 1.384-.023h.9v.392h-.6c-.355 0-.693-.008-1.016-.023v.368c.34-.015.686-.023 1.04-.023h1.798c.34 0 .67.008.992.023v-.37c-.323.016-.653.024-.992.024h-.715v-.392h1.245c.34 0 .7.008 1.084.023V9.86c-.4.016-.76.024-1.084.024h-1.245c0-.154.008-.315.023-.484h-.554zm16.4 0c.015.246.022.484.022.714v.762h-.507c.06-.323.123-.53.184-.623-.152-.03-.32-.07-.506-.115-.015.23-.062.515-.14.853-.06.324-.13.593-.206.808.123.03.262.077.415.14l.162-.693h.6v1.176c-.554.216-.93.332-1.13.347.107.17.19.33.253.484.184-.106.476-.237.876-.39v1.13c0 .26-.008.53-.023.807h.463c-.016-.292-.024-.562-.024-.808v-1.292c.26-.108.476-.192.645-.254-.03-.138-.054-.27-.07-.392-.184.077-.376.154-.576.23v-1.037c.23 0 .43.007.6.022v-.415c-.185.016-.386.024-.6.024v-.762c0-.246.015-.483.046-.714h-.485zm2.33 0c.03.154.045.384.045.69h-.346c-.26 0-.476-.006-.645-.02v.414c.185-.016.4-.023.646-.023h.347v.83h-.462c-.26 0-.5-.007-.714-.023v.416c.216-.015.462-.023.74-.023h1.152v.692h-1.13c-.292 0-.523-.008-.692-.023v.437c.2-.015.43-.023.692-.023h1.13v1.315c0 .137-.047.214-.14.23-.09.015-.276.015-.552 0 .092.17.154.345.185.53.353-.047.59-.108.714-.185.122-.06.192-.185.207-.37v-1.52c.323 0 .576.007.76.022v-.438c-.168.014-.422.022-.76.022v-.692h.208c.215 0 .415.008.6.023v-.416c-.2.016-.416.024-.647.024h-.876v-.83h.53c.293 0 .516.008.67.024v-.415c-.216.014-.44.02-.67.02h-.53c0-.306.008-.536.023-.69h-.484zm-25.65.046c.017.17.025.292.025.37h-.44c-.43 0-.752-.01-.968-.025v.394c.215-.016.538-.023.968-.023h.44v.37h.46v-.37h1.406v.37h.44v-.37h.53c.414 0 .722.008.922.024V9.79c-.26.017-.57.025-.923.025h-.53c0-.108.008-.23.023-.37h-.485c.017.14.024.262.024.37h-1.406c0-.108.008-.23.023-.37h-.507zm15.155 0c-.215.123-.538.23-.97.323-.43.075-1.03.152-1.798.23.122.138.198.276.23.414.522-.092.89-.153 1.107-.184v1.476h-.716c-.29 0-.567-.007-.83-.023v.438c.278-.014.555-.022.83-.022h.717v1.87c0 .275-.016.552-.047.83h.53c-.014-.293-.022-.57-.022-.83v-1.87h.853c.247 0 .493.008.74.023v-.437c-.247.016-.5.023-.762.023h-.83V10.16c.354-.06.784-.122 1.292-.184-.092-.092-.2-.27-.323-.53zm3.874.046c.016.338.024.676.024 1.015v3.436c0 .384.2.576.6.576h1.223c.138 0 .27-.054.392-.162.122-.108.237-.37.345-.784-.23-.06-.408-.13-.53-.208-.063.308-.124.508-.186.6-.047.093-.124.138-.23.138h-.877c-.185 0-.277-.107-.277-.323v-1.935c.445-.2.838-.393 1.176-.578.354-.2.623-.353.808-.46-.14-.14-.27-.293-.393-.462-.338.354-.87.7-1.59 1.038v-.97c0-.29.007-.598.02-.92h-.506zm-2.305.115c.015.26.023.577.023.946v3.09c-.03.185-.085.308-.162.37.108.184.216.345.323.484.138-.123.39-.277.76-.46.385-.186.754-.363 1.108-.532-.03-.123-.062-.285-.093-.484-.353.185-.63.33-.83.44-.184.09-.4.19-.646.3v-2.03h.553c.292 0 .607.006.945.022v-.485c-.338.016-.653.024-.945.024h-.554v-.783c0-.354.007-.654.022-.9h-.507zm-17.276 1.107c.015.216.023.37.023.46v1.04c0 .076-.008.2-.024.37h1.614v.322h-2.1v1.8h.463V13.25h1.637v.555c-.277.03-.523.06-.738.092-.215.016-.377.023-.484.023.046.138.092.284.138.438.185-.046.377-.084.577-.115.2-.03.392-.06.576-.092.185-.03.37-.053.554-.068.185-.03.384-.054.6-.07.046.092.1.193.16.3.124-.077.24-.146.347-.208-.046-.123-.115-.253-.207-.39l-.277-.463h.853v.81c0 .137-.023.214-.07.23-.045.015-.168.015-.368 0 .077.153.13.306.162.46.215-.03.39-.07.53-.115.138-.046.208-.192.208-.438v-1.29h-2.1v-.324h1.592c-.015-.154-.023-.27-.023-.347V11.2c0-.093.008-.255.023-.486h-3.667zm-6.274.023v.346c.215-.015.416-.023.6-.023h1.246c.138 0 .346.008.623.023v-.346c-.277.016-.485.023-.623.023h-1.246c-.184 0-.385-.007-.6-.023zm6.712.323h1.176v.438h-1.176v-.438zm1.638 0h1.153v.438h-1.154v-.438zm3.16.162c.015.092.022.2.022.323s-.008.26-.022.415h.53v-.415h4.013v.323h.507c-.016-.108-.023-.216-.023-.323 0-.123.008-.23.023-.323h-5.05zm-11.902.115v.346c.246-.015.538-.023.877-.023h1.384c.246 0 .546.008.9.023v-.346c-.277.015-.577.023-.9.023h-1.43c-.322 0-.6-.008-.83-.023zm12.824.484v.37c.384-.015.792-.022 1.222-.022h.923c.354 0 .722.007 1.107.022v-.37c-.385.016-.753.025-1.107.025h-.946c-.415 0-.815-.008-1.2-.024zm-5.72.025h1.176v.39h-1.176v-.39zm1.638 0h1.153v.39h-1.154v-.39zm-8.326.092c.015.23.023.53.023.9 0 .368-.008.7-.023.99h2.514c-.016-.29-.024-.637-.024-1.037 0-.4.008-.684.024-.853H252.5zm.39.3h1.732v.23h-1.73v-.23zm11.88.276c.015.123.023.277.023.46 0 .186-.008.363-.024.532h.876c-.14.077-.284.13-.438.16.123.155.215.332.276.532h-.622c-.37 0-.722-.008-1.06-.023v.392c.338-.015.69-.023 1.06-.023h3.252c.338 0 .707.008 1.107.023v-.392c-.4.015-.776.023-1.13.023h-.6c.17-.293.293-.462.37-.508-.185-.078-.338-.14-.46-.185h.9c-.017-.154-.024-.315-.024-.484 0-.184.008-.353.023-.507h-3.53zm-11.88.23h1.732v.23h-1.73v-.23zm12.387.093h2.514v.346h-2.513v-.346zm19.305.254c-.14.06-.284.115-.438.16.123.217.238.486.346.81.153-.078.3-.132.437-.163-.107-.26-.222-.53-.345-.807zm-31.69.16h1.73v.278h-1.73v-.277zm7.934 0h.715c-.138.094-.238.147-.3.163.062.077.14.184.23.323-.245.03-.46.045-.644.045v-.53zm4.89.255h1.614c-.062.138-.123.262-.185.37-.046.092-.115.2-.207.322h-.946c-.108-.277-.2-.507-.277-.692zm-11.233.346l-.276.278c.123.108.353.345.69.714.11-.138.216-.237.324-.3-.09-.09-.337-.322-.737-.69zm-1.407.024c-.215.23-.492.46-.83.692.092.077.177.177.254.3.2-.17.5-.393.9-.67-.108-.122-.216-.23-.324-.322z" font-family="SimHei" letter-spacing="0" word-spacing="0"/><path style="line-height:125%;-inkscape-font-specification:'Georgia, Bold';text-align:start" d="M38.653 130.744c-1.98 0-3.73.312-5.254.937-1.524.613-2.78 1.434-3.77 2.462-1.016 1.055-1.77 2.233-2.266 3.536-.482 1.302-.723 2.714-.723 4.238 0 1.536.255 2.975.763 4.316.52 1.34 1.276 2.507 2.266 3.496 1 1.003 2.25 1.81 3.75 2.422 1.51.612 3.247.918 5.214.918 1.862 0 3.51-.26 4.94-.78 1.433-.522 2.69-1.277 3.77-2.267 1.03-.95 1.836-2.108 2.422-3.475.6-1.38.9-2.923.9-4.63 0-1.43-.242-2.812-.724-4.14-.47-1.34-1.198-2.532-2.187-3.574-.977-1.028-2.227-1.86-3.75-2.5-1.524-.637-3.308-.956-5.352-.956zm28.047 0c-1.98 0-3.73.312-5.254.937-1.523.613-2.78 1.434-3.77 2.462-1.015 1.055-1.77 2.233-2.265 3.536-.48 1.302-.722 2.714-.722 4.238 0 1.536.254 2.975.762 4.316.52 1.34 1.276 2.507 2.266 3.496 1.002 1.003 2.252 1.81 3.75 2.422 1.51.612 3.248.918 5.214.918 1.862 0 3.51-.26 4.942-.78 1.432-.522 2.69-1.277 3.77-2.267 1.028-.95 1.835-2.108 2.42-3.475.6-1.38.9-2.923.9-4.63 0-1.43-.24-2.812-.723-4.14-.47-1.34-1.2-2.532-2.188-3.574-.977-1.028-2.227-1.86-3.75-2.5-1.524-.637-3.308-.956-5.352-.956zm28.047 0c-1.98 0-3.73.312-5.254.937-1.524.613-2.78 1.434-3.77 2.462-1.015 1.055-1.77 2.233-2.265 3.536-.482 1.302-.723 2.714-.723 4.238 0 1.536.254 2.975.762 4.316.52 1.34 1.276 2.507 2.265 3.496 1.003 1.003 2.253 1.81 3.75 2.422 1.51.612 3.25.918 5.215.918 1.862 0 3.51-.26 4.942-.78 1.43-.522 2.688-1.277 3.768-2.267 1.03-.95 1.836-2.108 2.422-3.475.6-1.38.9-2.923.9-4.63 0-1.43-.242-2.812-.724-4.14-.47-1.34-1.198-2.532-2.188-3.574-.976-1.028-2.226-1.86-3.75-2.5-1.523-.637-3.307-.956-5.35-.956zm-79.14.04c-.21.3-.496.644-.86 1.034-.352.39-.807.768-1.367 1.133-.547.353-1.237.652-2.07.9-.82.247-1.798.37-2.93.37H7.305v1.856h4.942v12.383c0 .546-.11.975-.332 1.288-.222.312-.528.534-.918.664-.313.104-.9.208-1.758.312-.847.105-1.466.17-1.856.196v1.484h16.113v-1.484c-.378-.026-.964-.104-1.758-.235-.795-.13-1.362-.273-1.7-.43-.378-.182-.67-.442-.88-.78-.194-.352-.292-.762-.292-1.23v-11.446c0-.9.02-1.915.06-3.048.038-1.133.077-2.123.116-2.97h-3.438zm23.066 1.68c.872 0 1.608.24 2.207.72.6.483 1.08 1.167 1.445 2.052.352.86.6 1.843.742 2.95.156 1.106.235 2.35.235 3.73 0 1.536-.085 2.845-.254 3.926-.157 1.067-.424 2.037-.8 2.91-.353.807-.834 1.445-1.446 1.914-.612.47-1.335.703-2.168.703-.9 0-1.654-.26-2.266-.782-.612-.52-1.08-1.205-1.406-2.05-.365-.94-.62-1.915-.762-2.93-.13-1.016-.195-2.247-.195-3.692 0-1.38.078-2.643.234-3.79.155-1.158.403-2.135.74-2.93.38-.87.867-1.542 1.466-2.01.6-.482 1.34-.723 2.227-.723zm28.047 0c.872 0 1.608.24 2.207.72.598.483 1.08 1.167 1.445 2.052.35.86.6 1.843.742 2.95.156 1.106.234 2.35.234 3.73 0 1.536-.084 2.845-.253 3.926-.157 1.067-.424 2.037-.8 2.91-.353.807-.835 1.445-1.447 1.914-.612.47-1.334.703-2.168.703-.898 0-1.653-.26-2.265-.782-.612-.52-1.08-1.205-1.406-2.05-.366-.94-.62-1.915-.763-2.93-.13-1.016-.195-2.247-.195-3.692 0-1.38.078-2.643.234-3.79.156-1.158.404-2.135.742-2.93.378-.87.866-1.542 1.465-2.01.6-.482 1.34-.723 2.227-.723zm28.046 0c.873 0 1.608.24 2.207.72.6.483 1.08 1.167 1.446 2.052.35.86.598 1.843.74 2.95.157 1.106.235 2.35.235 3.73 0 1.536-.084 2.845-.254 3.926-.155 1.067-.422 2.037-.8 2.91-.35.807-.833 1.445-1.445 1.914-.612.47-1.334.703-2.168.703-.898 0-1.653-.26-2.265-.782-.612-.52-1.08-1.205-1.407-2.05-.364-.94-.618-1.915-.76-2.93-.13-1.016-.197-2.247-.197-3.692 0-1.38.08-2.643.235-3.79.156-1.158.403-2.135.742-2.93.378-.87.866-1.542 1.465-2.01.6-.482 1.34-.723 2.226-.723z" font-weight="bold" font-family="Georgia" letter-spacing="0" word-spacing="0" fill="#fff6d5"/><path style="line-height:125%;-inkscape-font-specification:'Georgia, Bold';text-align:start" d="M252.457 16.196c-1.046 0-1.973.165-2.778.495-.807.325-1.47.76-1.993 1.303-.537.557-.936 1.18-1.198 1.868-.255.69-.384 1.437-.384 2.242 0 .812.136 1.572.404 2.28.275.71.675 1.327 1.198 1.85.53.53 1.19.956 1.98 1.28.8.323 1.72.485 2.758.485.985 0 1.855-.137 2.612-.413.757-.275 1.422-.674 1.993-1.197.545-.503.97-1.115 1.28-1.838.317-.73.476-1.546.476-2.448 0-.757-.127-1.487-.382-2.19-.248-.708-.633-1.337-1.156-1.888-.516-.544-1.177-.985-1.983-1.322-.805-.338-1.748-.506-2.828-.506zm14.826 0c-1.047 0-1.972.165-2.777.495-.805.325-1.47.76-1.993 1.303-.537.557-.936 1.18-1.198 1.868-.255.69-.383 1.437-.383 2.242 0 .812.135 1.572.404 2.28.275.71.674 1.327 1.198 1.85.53.53 1.19.956 1.982 1.28.8.323 1.717.485 2.756.485.984 0 1.855-.137 2.612-.413.757-.275 1.422-.674 1.993-1.197.544-.503.97-1.115 1.28-1.838.318-.73.476-1.546.476-2.448 0-.757-.128-1.487-.383-2.19-.248-.708-.633-1.337-1.156-1.888-.516-.544-1.177-.985-1.983-1.322-.804-.338-1.747-.506-2.827-.506zm14.825 0c-1.046 0-1.97.165-2.776.495-.806.325-1.47.76-1.993 1.303-.538.557-.937 1.18-1.2 1.868-.254.69-.38 1.437-.38 2.242 0 .812.133 1.572.402 2.28.275.71.674 1.327 1.197 1.85.53.53 1.19.956 1.982 1.28.8.323 1.717.485 2.756.485.984 0 1.855-.137 2.612-.413.757-.275 1.422-.674 1.993-1.197.544-.503.97-1.115 1.28-1.838.317-.73.476-1.546.476-2.448 0-.757-.13-1.487-.384-2.19-.248-.708-.633-1.337-1.156-1.888-.516-.544-1.176-.985-1.98-1.322-.807-.338-1.75-.506-2.832-.506zm-41.834.02c-.11.16-.263.34-.456.548-.185.206-.426.407-.722.6-.29.185-.654.344-1.094.474-.434.13-.95.196-1.55.196h-.566v.98h2.612v6.546c0 .29-.058.518-.176.683-.117.165-.278.28-.485.35-.165.055-.475.11-.93.166-.446.054-.773.088-.98.102v.785h8.517v-.785c-.2-.014-.51-.055-.93-.124-.42-.068-.718-.144-.897-.227-.2-.095-.354-.234-.464-.413-.103-.186-.156-.402-.156-.65v-6.05c0-.475.01-1.012.03-1.61.022-.6.043-1.123.064-1.57h-1.816zm12.193.89c.46 0 .85.126 1.167.38.316.255.57.618.764 1.086.186.454.316.973.392 1.558.082.585.124 1.243.124 1.972 0 .812-.045 1.504-.135 2.075-.083.564-.224 1.078-.424 1.54-.185.426-.44.763-.764 1.01-.323.25-.705.372-1.146.372-.475 0-.874-.138-1.197-.414-.325-.275-.573-.637-.745-1.084-.193-.496-.326-1.01-.402-1.548-.07-.537-.104-1.188-.104-1.952 0-.73.04-1.398.124-2.003.082-.614.213-1.13.392-1.55.2-.46.458-.815.774-1.063.317-.255.71-.382 1.177-.382zm14.826 0c.46 0 .85.126 1.166.38.316.255.57.618.764 1.086.186.454.316.973.392 1.558.082.585.124 1.243.124 1.972 0 .812-.045 1.504-.135 2.075-.082.564-.223 1.078-.423 1.54-.186.426-.44.763-.764 1.01-.324.25-.705.372-1.146.372-.475 0-.874-.138-1.197-.414-.324-.275-.572-.637-.744-1.084-.192-.496-.325-1.01-.4-1.548-.07-.537-.105-1.188-.105-1.952 0-.73.042-1.398.125-2.003.082-.614.212-1.13.39-1.55.2-.46.46-.815.776-1.063.317-.255.71-.382 1.177-.382zm14.826 0c.46 0 .85.126 1.165.38.317.255.572.618.765 1.086.185.454.317.973.393 1.558.082.585.123 1.243.123 1.972 0 .812-.044 1.504-.134 2.075-.082.564-.224 1.078-.424 1.54-.186.426-.44.763-.763 1.01-.323.25-.706.372-1.147.372-.475 0-.874-.138-1.198-.414-.323-.275-.57-.637-.743-1.084-.193-.496-.327-1.01-.402-1.548-.07-.537-.103-1.188-.103-1.952 0-.73.04-1.398.123-2.003.083-.614.213-1.13.392-1.55.2-.46.458-.815.775-1.063.317-.255.71-.382 1.177-.382z" font-weight="bold" font-family="Georgia" letter-spacing="0" word-spacing="0" fill="#d45500"/><path style="line-height:125%" d="M251.19 194.785c-.263 0-.553.038-.87.112-.314.075-.653.185-1.016.33v.912c.357-.2.692-.35 1.004-.448.316-.1.615-.148.898-.148.4 0 .723.113.97.336.25.224.376.512.376.867 0 .217-.058.44-.174.665-.114.223-.315.497-.604.822-.15.172-.524.558-1.117 1.157-.59.597-1.056 1.072-1.4 1.427v.76h4.237v-.76h-3.15c.727-.742 1.29-1.32 1.69-1.73.398-.414.635-.664.71-.75.27-.334.457-.623.558-.867.105-.247.157-.507.157-.78 0-.58-.208-1.042-.62-1.387-.41-.346-.96-.518-1.65-.518zm6.026 0c-.673 0-1.212.207-1.617.62-.406.415-.61.964-.61 1.65 0 .7.195 1.253.582 1.658.39.402.92.603 1.586.603.322 0 .614-.07.88-.207.265-.138.484-.334.657-.59-.045.816-.225 1.426-.54 1.828-.314.4-.768.598-1.364.598-.222 0-.45-.03-.682-.085-.232-.056-.462-.137-.69-.245v.823c.252.09.494.156.726.2.232.045.46.068.687.068.844 0 1.515-.313 2.012-.938.5-.63.75-1.47.75-2.52 0-1.126-.204-1.985-.612-2.574-.405-.593-.992-.89-1.764-.89zm16.866 0c-.262 0-.552.038-.868.112-.316.075-.654.185-1.018.33v.912c.358-.2.693-.35 1.005-.448.317-.1.616-.148.9-.148.398 0 .722.113.97.336.25.224.375.512.375.867 0 .217-.058.44-.175.665-.113.223-.314.497-.603.822-.152.172-.524.558-1.117 1.157-.59.597-1.056 1.072-1.4 1.427v.76h4.236v-.76h-3.15c.728-.742 1.29-1.32 1.69-1.73.4-.414.636-.664.71-.75.27-.334.458-.623.56-.867.104-.247.156-.507.156-.78 0-.58-.207-1.042-.618-1.387-.41-.346-.96-.518-1.652-.518zm11.96 0c-.748 0-1.32.296-1.716.89-.393.588-.59 1.447-.59 2.573 0 1.123.197 1.98.59 2.573.396.59.968.885 1.715.885.75 0 1.32-.295 1.713-.884.396-.592.594-1.45.594-2.572 0-1.126-.198-1.985-.594-2.574-.393-.593-.964-.89-1.712-.89zm-25.05.12v.76h3.203l-2.28 5.91h.943l2.422-6.285v-.385h-4.29zm18.915 0l-1.595.323v.82l1.604-.32v5.09h-1.473v.758h3.84v-.76h-1.473v-5.91h-.903zm-22.69.595c.404 0 .723.14.96.42.237.277.357.655.357 1.134 0 .483-.12.863-.358 1.14-.236.277-.555.415-.96.415-.405 0-.727-.14-.965-.416-.234-.277-.353-.657-.353-1.14 0-.48.12-.857.354-1.134.24-.28.56-.42.966-.42zm28.824 0c.47 0 .82.23 1.05.688.237.455.354 1.142.354 2.06 0 .914-.117 1.6-.353 2.06-.23.454-.58.683-1.05.683-.463 0-.813-.228-1.05-.683-.23-.46-.346-1.145-.346-2.06 0-.917.115-1.604.347-2.06.237-.458.587-.687 1.05-.687zm-19.545 1.073l1.78 2.385-1.945 2.618h.97l1.455-1.966 1.457 1.966h.97l-1.903-2.57 1.808-2.433h-.97l-1.326 1.782-1.327-1.782h-.97z" font-family="Sans" letter-spacing="0" word-spacing="0" fill="#d4aa00"/><path style="line-height:normal;text-indent:0;text-align:start;text-decoration-line:none;text-decoration-style:solid;text-decoration-color:#000000;text-transform:none;block-progression:tb;isolation:auto;mix-blend-mode:normal" d="M.492.014l-.5.5v209.01l.5.5h296.09l.5-.5V.513l-.5-.5H.492zm.5 1h295.09v208.01H.992V1.013z" color="#000" font-family="sans-serif" white-space="normal" overflow="visible" solid-color="#000000" fill="#ccc"/><path style="line-height:125%;-inkscape-font-specification:'SimHei, Normal';text-align:start" d="M63.408 155.347c-.122.1-.283.212-.486.334.223.244.436.507.638.79h-1.063c-.02-.222-.03-.373-.03-.454.02-.102.04-.254.06-.456-.202 0-.424-.02-.667-.06.04.222.07.546.09.97h-2.974c-.384 0-.76-.01-1.123-.03v.486c.364-.02.74-.03 1.123-.03h3.005c.042.627.092 1.254.153 1.88.08.628.212 1.235.394 1.822.203.567.446 1.013.73 1.336.303.344.586.486.85.425.262-.04.475-.426.637-1.154-.243-.06-.456-.172-.638-.334-.02.263-.062.496-.122.698-.04.203-.18.132-.424-.212-.243-.344-.446-.78-.608-1.306-.16-.546-.273-1.03-.333-1.456-.042-.425-.082-.992-.123-1.7h.94c.264 0 .618.01 1.063.03v-.485c-.304.02-.597.03-.88.03.182-.12.344-.222.486-.303-.324-.384-.557-.658-.7-.82zm19.153 0c-.14.546-.394 1.164-.758 1.852-.364.687-.708 1.183-1.032 1.487.182.12.334.283.456.485.263-.304.535-.72.82-1.245v3.31c0 .363-.01.81-.03 1.335h.696c-.02-.526-.04-.972-.06-1.336v-4.31c.243-.688.456-1.123.638-1.305-.182-.06-.426-.152-.73-.273zm-6.283.122c.02.242.03.454.03.636h-1.182c-.587 0-1.194-.01-1.82-.03v.516c.626-.02 1.233-.03 1.82-.03h1.183v.516h-.79c-.465 0-.91-.01-1.334-.03v.485c.445-.02.9-.03 1.366-.03h2.367c.445 0 .88.01 1.305.03v-.486c-.425.02-.86.03-1.305.03h-.94v-.515h1.638c.445 0 .92.01 1.426.03v-.516c-.525.02-1 .03-1.425.03h-1.64c0-.203.01-.414.03-.637h-.728zm21.582 0c.02.323.03.636.03.94v1.002h-.668c.08-.425.162-.7.242-.82-.202-.04-.424-.09-.667-.15-.02.302-.08.676-.182 1.12-.08.426-.172.78-.273 1.064.162.04.344.1.546.182.06-.263.132-.567.213-.91h.79v1.548c-.73.283-1.225.434-1.488.455.142.223.253.436.334.638.243-.142.627-.314 1.153-.516v1.487c0 .343-.01.698-.03 1.062h.607c-.02-.385-.03-.74-.03-1.063v-1.7c.343-.142.626-.253.85-.334-.042-.182-.072-.355-.093-.517-.242.1-.495.202-.758.303v-1.366c.303 0 .567.01.79.03v-.546c-.243.02-.507.032-.79.032v-1.002c0-.324.02-.637.06-.94h-.637zm3.065 0c.04.202.06.505.06.91h-.454c-.343 0-.627-.01-.85-.03v.546c.243-.02.527-.03.85-.03h.456v1.092h-.608c-.344 0-.657-.01-.94-.03v.546c.283-.02.607-.03.97-.03h1.52v.91h-1.49c-.383 0-.686-.01-.91-.03v.576c.264-.02.567-.03.91-.03h1.49v1.73c0 .182-.062.284-.184.304-.12.02-.364.02-.728 0 .12.223.203.455.243.698.465-.06.778-.142.94-.243.16-.082.253-.244.273-.487v-2.003c.425 0 .76.01 1 .03v-.576c-.22.02-.555.03-1 .03v-.91h.274c.283 0 .546.01.788.03v-.547c-.263.02-.546.03-.85.03h-1.153v-1.09h.698c.385 0 .678.01.88.03v-.548c-.283.02-.576.03-.88.03h-.698c0-.405.01-.708.03-.91h-.637zm-33.754.06c.02.222.032.384.032.486h-.577c-.567 0-.992-.01-1.275-.032v.517c.283-.02.708-.03 1.275-.03h.577v.486h.607v-.485h1.85v.486h.577v-.485h.698c.546 0 .952.01 1.215.03v-.516c-.344.02-.75.032-1.215.032h-.698c0-.142.01-.304.03-.487h-.637c.02.182.03.344.03.486h-1.85c0-.142.01-.304.03-.487h-.67zm19.944 0c-.283.16-.708.303-1.274.424-.567.102-1.356.203-2.368.304.162.182.262.364.303.546.688-.12 1.174-.202 1.457-.242v1.942h-.94c-.386 0-.75-.01-1.094-.03v.577c.365-.02.73-.03 1.093-.03h.942v2.46c0 .363-.02.727-.06 1.092h.698c-.02-.385-.03-.75-.03-1.093v-2.46h1.122c.324 0 .648.01.97.03v-.576c-.322.02-.656.03-1 .03H85.84v-2.033c.465-.08 1.032-.16 1.7-.242-.122-.12-.264-.355-.426-.7zm5.1.06c.02.446.03.89.03 1.336v4.522c0 .506.263.76.79.76h1.608c.182 0 .354-.072.516-.214.162-.14.314-.485.455-1.03-.303-.082-.537-.173-.698-.275-.08.404-.162.668-.243.79-.06.12-.162.18-.304.18h-1.152c-.243 0-.365-.14-.365-.424v-2.55c.588-.262 1.104-.516 1.55-.76.465-.262.82-.464 1.062-.605-.182-.182-.354-.384-.516-.607-.446.466-1.144.92-2.095 1.366v-1.276c0-.384.01-.788.03-1.213h-.667zm-3.036.152c.02.344.03.76.03 1.245v4.067c-.04.243-.11.404-.212.485.142.242.283.455.425.637.183-.162.516-.364 1.002-.607l1.458-.698c-.04-.162-.08-.375-.122-.638-.465.243-.83.435-1.092.577-.243.122-.526.254-.85.396v-2.672h.728c.385 0 .8.01 1.244.03v-.637c-.445.02-.86.03-1.244.03h-.728v-1.03c0-.467.01-.86.03-1.185h-.668zM66.443 157.2c.02.283.03.484.03.606v1.366c0 .1-.01.263-.03.486h2.125v.425h-2.763v2.367h.608v-1.912h2.155v.73c-.365.04-.688.08-.972.12-.283.02-.496.03-.637.03.06.182.12.374.18.576.244-.06.497-.11.76-.15.263-.04.516-.082.76-.122.242-.04.485-.07.727-.09.243-.042.506-.072.79-.093.06.12.13.253.212.394.16-.1.313-.192.455-.273-.06-.16-.152-.332-.274-.515l-.363-.607h1.123v1.063c0 .183-.03.284-.09.304-.062.02-.223.02-.486 0 .1.203.172.404.212.607.283-.04.516-.09.698-.15.182-.06.273-.254.273-.578v-1.7h-2.762v-.424h2.095c-.02-.202-.03-.355-.03-.456v-1.365c0-.122.01-.334.03-.638h-4.827zm-8.257.03v.454c.284-.02.547-.03.79-.03h1.64c.18 0 .455.01.82.03v-.455c-.365.02-.64.03-.82.03h-1.64c-.243 0-.506-.01-.79-.03zm8.834.424h1.548v.577H67.02v-.576zm2.155 0h1.517v.577h-1.517v-.576zm4.16.213c.02.12.03.263.03.425 0 .162-.01.344-.03.546h.696v-.546h5.283v.425h.668c-.02-.142-.03-.284-.03-.425 0-.162.01-.304.03-.425h-6.646zm-15.665.15v.457c.324-.02.71-.03 1.154-.03h1.82c.325 0 .72.01 1.185.03v-.456c-.365.02-.76.03-1.185.03h-1.88c-.426 0-.79-.01-1.095-.03zm16.877.64v.485c.506-.02 1.042-.03 1.61-.03h1.214c.466 0 .95.01 1.457.03v-.486c-.506.02-.99.03-1.456.03h-1.244c-.546 0-1.073-.01-1.58-.03zm-7.527.03h1.548v.515H67.02v-.515zm2.155 0h1.517v.515h-1.517v-.515zm-10.957.12c.02.305.03.7.03 1.185 0 .485-.01.92-.03 1.305h3.308c-.02-.385-.03-.84-.03-1.366 0-.525.01-.9.03-1.122h-3.308zm.515.395h2.277v.304h-2.277v-.304zm15.632.365c.02.162.03.363.03.606s-.01.476-.03.7h1.154c-.184.1-.375.17-.578.21.162.204.283.436.364.7h-.82c-.484 0-.95-.01-1.395-.03v.515c.446-.02.912-.03 1.397-.03h4.28c.445 0 .93.01 1.457.03v-.516c-.527.02-1.022.03-1.488.03h-.79c.224-.385.385-.607.486-.668-.242-.1-.444-.18-.606-.242h1.184c-.02-.203-.03-.415-.03-.638 0-.242.01-.465.03-.667h-4.645zm-15.632.304h2.277v.303h-2.277v-.302zm16.3.122h3.31v.455h-3.31v-.455zm25.406.334c-.183.08-.375.15-.577.212.162.283.313.638.455 1.063.202-.1.394-.17.576-.212-.14-.344-.293-.698-.455-1.062zm-41.707.212h2.277v.364h-2.277v-.364zm10.442 0h.94c-.18.12-.313.192-.394.213.082.102.183.243.305.426-.324.04-.607.06-.85.06v-.698zm6.435.334h2.125c-.08.182-.162.344-.243.486-.06.12-.152.262-.273.424h-1.246c-.142-.364-.263-.667-.364-.91zm-14.782.455l-.364.365c.162.14.465.454.91.94.14-.182.283-.313.425-.394-.123-.12-.446-.425-.972-.91zm-1.852.03c-.283.304-.648.607-1.093.91.12.102.233.234.335.396.263-.223.657-.517 1.183-.88-.14-.163-.282-.304-.424-.425z" font-family="SimHei" letter-spacing="0" word-spacing="0" fill="#fd5"/><path style="line-height:125%;-inkscape-font-specification:'Arial, Normal';text-align:start" d="M16.855 195.86c-.144.292-.392.594-.74.906-.348.31-.755.576-1.22.795v.805c.258-.095.55-.24.875-.43.326-.192.588-.383.79-.574v5.302h.83v-6.803h-.535zm4.92 0c-.643 0-1.157.167-1.54.503-.38.333-.6.818-.66 1.455l.857.088c.003-.425.125-.758.365-.998s.56-.36.96-.36c.38 0 .687.115.92.343.238.226.356.503.356.833 0 .314-.13.647-.388 1.002-.26.35-.756.827-1.493 1.43-.474.39-.84.733-1.09 1.03-.25.294-.432.594-.546.9-.07.184-.102.377-.096.577h4.476v-.8h-3.322c.093-.15.21-.3.352-.448.14-.15.462-.436.96-.855.598-.507 1.024-.903 1.28-1.193.26-.29.444-.566.555-.828.112-.263.167-.53.167-.8 0-.533-.19-.98-.57-1.34-.378-.36-.892-.54-1.542-.54zm-14.205.027l2.612 3.906v2.87h.896v-2.87l2.703-3.906H12.74l-1.312 1.992c-.29.443-.537.842-.74 1.196-.213-.382-.442-.764-.688-1.146l-1.336-2.043H7.57z" font-family="Arial" letter-spacing="0" word-spacing="0" fill="#fc0"/><path style="line-height:125%;-inkscape-font-specification:'Arial, Normal';text-align:start" d="M56.55 195.768c-.956 0-1.735.32-2.34.957-.603.634-.905 1.514-.905 2.638 0 .595.13 1.157.388 1.69.26.533.64.953 1.14 1.26.503.31 1.072.464 1.71.464.588 0 1.138-.138 1.646-.416.508-.28.9-.69 1.177-1.233.277-.542.416-1.157.416-1.844 0-.678-.133-1.28-.398-1.814-.262-.537-.643-.956-1.145-1.255-.502-.3-1.066-.447-1.69-.447zm-29.08.003c-.457 0-.87.08-1.243.234-.373.154-.658.38-.852.678-.194.295-.29.615-.29.957 0 .31.078.592.235.844.16.25.4.46.725.63.25.132.686.272 1.31.423.62.148 1.022.257 1.204.328.282.108.487.242.61.403.123.157.184.342.184.554 0 .21-.064.404-.194.582-.126.176-.32.315-.582.416-.262.102-.564.153-.906.153-.385 0-.73-.065-1.04-.198-.307-.135-.535-.31-.683-.527-.146-.22-.238-.497-.278-.836l-.846.072c.012.453.135.86.37 1.22.237.358.56.627.974.806.416.178.93.267 1.543.267.484 0 .92-.088 1.305-.263.388-.18.684-.427.89-.744.207-.32.31-.662.31-1.022 0-.363-.095-.684-.282-.96-.188-.28-.48-.513-.873-.694-.272-.123-.772-.267-1.502-.43-.726-.166-1.175-.327-1.347-.484-.176-.157-.264-.36-.264-.602 0-.28.122-.518.368-.715.25-.2.646-.3 1.188-.3.52 0 .913.11 1.178.328.268.22.426.543.472.97l.86-.063c-.016-.398-.128-.754-.334-1.068-.207-.316-.502-.552-.887-.712-.382-.164-.824-.247-1.326-.247zm3.473.117v.8h2.233v5.975h.896v-5.975h2.24v-.8h-5.37zm6.346 0v3.914c0 .72.084 1.286.257 1.702.172.413.462.728.865.947.404.218.922.327 1.557.327.652 0 1.178-.125 1.58-.375.402-.252.68-.578.835-.978.154-.4.23-.942.23-1.623v-3.913h-.896v3.91c0 .85-.14 1.424-.42 1.723-.282.298-.75.45-1.41.45-.384 0-.712-.077-.98-.228-.265-.15-.453-.365-.564-.642-.108-.28-.16-.715-.16-1.303v-3.91h-.897zm6.823 0v6.775h2.446c.408 0 .77-.038 1.085-.115.317-.077.586-.19.808-.338.225-.152.43-.357.62-.616.187-.262.34-.59.46-.99.12-.396.182-.85.182-1.366 0-.604-.09-1.14-.27-1.61-.175-.47-.44-.857-.8-1.16-.273-.233-.605-.394-.993-.484-.277-.064-.678-.097-1.205-.097h-2.334zm6.992 0v6.775h.897v-6.775h-.897zm5.448.652c.446 0 .85.113 1.207.34.36.226.63.545.816.958.188.41.283.89.283 1.44 0 .873-.22 1.546-.657 2.02-.434.475-.99.712-1.664.712-.663 0-1.215-.233-1.655-.7-.438-.473-.656-1.117-.656-1.933 0-1.02.226-1.747.682-2.182.46-.437 1.006-.656 1.64-.656zm-11.543.148h1.424c.533 0 .92.046 1.16.138.332.13.614.384.845.766.234.38.35.924.35 1.633 0 .51-.06.946-.18 1.306-.118.36-.282.644-.495.857-.15.15-.353.268-.61.35-.252.084-.6.126-1.048.126H45.01v-5.175z" font-family="Arial" letter-spacing="0" word-spacing="0" fill="green"/></svg>