<?xml version="1.0" encoding="UTF-8" standalone="no"?>
<svg
   xmlns:dc="http://purl.org/dc/elements/1.1/"
   xmlns:cc="http://creativecommons.org/ns#"
   xmlns:rdf="http://www.w3.org/1999/02/22-rdf-syntax-ns#"
   xmlns:svg="http://www.w3.org/2000/svg"
   xmlns="http://www.w3.org/2000/svg"
   xmlns:sodipodi="http://sodipodi.sourceforge.net/DTD/sodipodi-0.dtd"
   xmlns:inkscape="http://www.inkscape.org/namespaces/inkscape"
   viewBox="0 0 297 210"
   id="svg2"
   version="1.1"
   inkscape:version="0.91 r13725"
   sodipodi:docname="qr5.svg"
   width="297"
   height="210">
  <metadata
     id="metadata10">
    <rdf:RDF>
      <cc:Work
         rdf:about="">
        <dc:format>image/svg+xml</dc:format>
        <dc:type
           rdf:resource="http://purl.org/dc/dcmitype/StillImage" />
        <dc:title />
      </cc:Work>
    </rdf:RDF>
  </metadata>
  <defs
     id="defs8" />
  <sodipodi:namedview
     pagecolor="#ffffff"
     bordercolor="#666666"
     borderopacity="1"
     objecttolerance="10"
     gridtolerance="10"
     guidetolerance="10"
     inkscape:pageopacity="0"
     inkscape:pageshadow="2"
     inkscape:window-width="1487"
     inkscape:window-height="885"
     id="namedview6"
     showgrid="false"
     inkscape:zoom="3.3857143"
     inkscape:cx="148.5"
     inkscape:cy="105"
     inkscape:window-x="0"
     inkscape:window-y="0"
     inkscape:window-maximized="0"
     inkscape:current-layer="svg2"
     borderlayer="true"
     inkscape:showpageshadow="false" />
  <path
     style="opacity:1;fill:#007e00;fill-opacity:1;stroke:none;stroke-width:1;stroke-miterlimit:1;stroke-dasharray:none;stroke-dashoffset:0;stroke-opacity:1"
     d="m 199.14126,141.33307 -12.04033,-7.72898 -2.85911,14.019 -5.19786,-13.33001 -10.55322,9.66108 3.63002,-13.83944 -14.21637,1.61294 11.07135,-9.06265 -12.44934,-7.05129 14.28381,-0.82426 -5.92709,-13.02214 12.04034,7.72897 2.8591,-14.018996 5.19786,13.329996 10.55323,-9.661056 -3.63002,13.839416 14.21636,-1.61293 -11.07135,9.06265 12.44934,7.05128 -14.28381,0.82427 z"
     id="path4136"
     inkscape:connector-curvature="0" />
  <path
     style="opacity:1;fill:#ff0000;fill-opacity:1;stroke:none;stroke-width:1;stroke-miterlimit:1;stroke-dasharray:none;stroke-dashoffset:0;stroke-opacity:1"
     d="m 145.44893,65.485283 -9.6494,-4.51423 -0.72478,10.628446 -5.15313,-9.323866 -6.83361,8.172586 1.31146,-10.572106 -10.33222,2.59506 7.27511,-7.78215 -9.88426,-3.97368 10.45991,-2.01969 -5.66088,-9.02461 9.64939,4.51423 0.72479,-10.62844 5.15313,9.32386 6.83361,-8.17257 -1.31146,10.57209 10.33222,-2.59505 -7.27512,7.78214 9.88428,3.97368 -10.45992,2.01969 z"
     id="path4138"
     inkscape:connector-curvature="0" />
  <path
     style="font-style:normal;font-variant:normal;font-weight:normal;font-stretch:normal;font-size:medium;line-height:125%;font-family:SimHei;-inkscape-font-specification:'SimHei, Normal';text-align:start;letter-spacing:0px;word-spacing:0px;writing-mode:lr-tb;text-anchor:start;fill:#000000;fill-opacity:1;stroke:none;stroke-width:1px;stroke-linecap:butt;stroke-linejoin:miter;stroke-opacity:1"
     d="m 256.44335,9.3070109 c -0.0923,0.07688 -0.21487,0.161358 -0.36863,0.253614 0.16914,0.184514 0.33063,0.384882 0.48439,0.6001461 l -0.27723,0 -0.53007,0 c -0.0154,-0.1691381 -0.0236,-0.2842651 -0.0236,-0.3457661 0.0154,-0.07688 0.0311,-0.192772 0.0464,-0.346535 -0.15376,0 -0.32271,-0.01494 -0.50723,-0.0457 0.0308,0.169134 0.0532,0.415098 0.0685,0.7379951 l -2.2597,0 c -0.29214,0 -0.57699,-0.0075 -0.85376,-0.02285 l 0,0.36862 c 0.27677,-0.01536 0.56162,-0.02285 0.85376,-0.02285 l 2.2833,0 c 0.0308,0.476658 0.0688,0.952875 0.11501,1.429532 0.0615,0.476658 0.16168,0.937934 0.30007,1.383841 0.15376,0.430532 0.33842,0.769205 0.55368,1.015223 0.23065,0.261391 0.44596,0.369046 0.64585,0.32292 0.19989,-0.03077 0.36137,-0.323068 0.48438,-0.876611 -0.18452,-0.04613 -0.346,-0.130603 -0.48438,-0.253615 -0.0153,0.199889 -0.0468,0.377078 -0.0929,0.530841 -0.0308,0.153761 -0.13764,0.09993 -0.32216,-0.16146 -0.18451,-0.261398 -0.33852,-0.5926 -0.46153,-0.992376 -0.12301,-0.415157 -0.20749,-0.783719 -0.25362,-1.106615 -0.0308,-0.322899 -0.0614,-0.753521 -0.0922,-1.291685 l 0.71439,0 c 0.19989,0 0.46902,0.0075 0.8073,0.02285 l 0,-0.368617 c -0.23065,0.01536 -0.45342,0.02285 -0.66869,0.02285 0.13839,-0.09226 0.26175,-0.1692631 0.36938,-0.2307691 -0.24602,-0.292145 -0.42321,-0.499984 -0.53084,-0.622995 z m 14.55353,0 c -0.10763,0.415156 -0.29976,0.8846621 -0.57654,1.4074511 -0.27676,0.522784 -0.53843,0.899581 -0.78445,1.130221 0.13839,0.09226 0.25428,0.214858 0.34653,0.36862 0.1999,-0.230643 0.40697,-0.546138 0.62224,-0.945919 l 0,2.514065 c 0,0.27677 -0.008,0.615443 -0.0229,1.015224 l 0.53008,0 c -0.0154,-0.399781 -0.0303,-0.738454 -0.0457,-1.015224 l 0,-3.274909 c 0.18451,-0.5227881 0.346,-0.8532251 0.48439,-0.9916121 -0.13839,-0.04612 -0.32306,-0.115661 -0.55369,-0.207917 z m -4.7745,0.09291 c 0.0153,0.184513 0.0236,0.345235 0.0236,0.483622 l -0.89946,0 c -0.4459,0 -0.90718,-0.0075 -1.38384,-0.02285 l 0,0.3922271 c 0.47666,-0.01536 0.93794,-0.02285 1.38384,-0.02285 l 0.89946,0 0,0.392224 -0.60014,0 c -0.35365,0 -0.69156,-0.0082 -1.01447,-0.02363 l 0,0.369382 c 0.33828,-0.01536 0.68442,-0.02285 1.03807,-0.02285 l 1.79892,0 c 0.33827,0 0.66871,0.0075 0.99161,0.02285 l 0,-0.369382 c -0.3229,0.01536 -0.65334,0.02363 -0.99161,0.02363 l -0.71515,0 0,-0.392224 1.24523,0 c 0.33827,0 0.69936,0.0075 1.08376,0.02285 l 0,-0.3922271 c -0.39977,0.01536 -0.76087,0.02285 -1.08376,0.02285 l -1.24523,0 c 0,-0.153762 0.008,-0.314485 0.0229,-0.483622 l -0.55368,0 z m 16.39891,0 c 0.0154,0.246019 0.0229,0.483747 0.0229,0.7143861 l 0,0.761609 -0.50723,0 c 0.0615,-0.322899 0.1228,-0.530739 0.1843,-0.622996 -0.15376,-0.03077 -0.32271,-0.06887 -0.50722,-0.115001 -0.0154,0.230643 -0.0617,0.514724 -0.13862,0.852999 -0.0615,0.3229 -0.13027,0.592038 -0.20715,0.807302 0.12301,0.03077 0.26131,0.07711 0.41507,0.138613 0.0461,-0.199889 0.1,-0.430906 0.16146,-0.6923 l 0.59939,0 0,1.176682 c -0.55355,0.215264 -0.93034,0.330391 -1.13023,0.34577 0.10763,0.169138 0.19211,0.330621 0.25362,0.484384 0.18452,-0.107636 0.47683,-0.23847 0.87661,-0.392228 l 0,1.130221 c 0,0.261394 -0.008,0.530537 -0.0229,0.807306 l 0.46153,0 c -0.0154,-0.292149 -0.0236,-0.561287 -0.0236,-0.807306 l 0,-1.291685 c 0.2614,-0.107632 0.47671,-0.192109 0.64584,-0.253615 -0.0308,-0.138382 -0.0539,-0.269216 -0.0693,-0.392227 -0.18451,0.07688 -0.37665,0.153887 -0.57654,0.230768 l 0,-1.03807 c 0.23065,0 0.43102,0.0075 0.60015,0.02285 l 0,-0.415074 c -0.18451,0.01536 -0.38488,0.02363 -0.60015,0.02363 l 0,-0.761609 c 0,-0.2460181 0.0157,-0.4837431 0.0464,-0.7143861 l -0.48438,0 z m 2.32975,0 c 0.0308,0.153762 0.0457,0.384019 0.0457,0.6915391 l -0.34578,0 c -0.26139,0 -0.4767,-0.0075 -0.64584,-0.02285 l 0,0.415074 c 0.18451,-0.01536 0.39983,-0.02285 0.64584,-0.02285 l 0.34578,0 0,0.830153 -0.46154,0 c -0.26139,0 -0.49912,-0.0082 -0.71439,-0.02363 l 0,0.415835 c 0.21527,-0.01536 0.46123,-0.02363 0.73801,-0.02363 l 1.15306,0 0,0.692304 -1.13022,0 c -0.29215,0 -0.5224,-0.0075 -0.69154,-0.02285 l 0,0.437922 c 0.19989,-0.01536 0.43014,-0.02285 0.69154,-0.02285 l 1.13022,0 0,1.314535 c 0,0.138384 -0.0464,0.215389 -0.13861,0.230765 -0.0923,0.01536 -0.27691,0.01536 -0.55368,0 0.0923,0.169137 0.15431,0.345567 0.18507,0.53008 0.35365,-0.04613 0.59137,-0.10743 0.71438,-0.184311 0.12301,-0.0615 0.19254,-0.184864 0.20792,-0.369376 l 0,-1.521693 c 0.3229,0 0.57633,0.0075 0.76084,0.02285 l 0,-0.437922 c -0.16913,0.01536 -0.42256,0.02285 -0.76084,0.02285 l 0,-0.692304 0.20792,0 c 0.21526,0 0.41487,0.0082 0.59939,0.02363 l 0,-0.415835 c -0.1999,0.01536 -0.4152,0.02363 -0.64585,0.02363 l -0.8766,0 0,-0.830153 0.53083,0 c 0.29215,0 0.51493,0.0075 0.66869,0.02285 l 0,-0.415074 c -0.21526,0.01536 -0.43805,0.02285 -0.66869,0.02285 l -0.53083,0 c 0,-0.3075201 0.008,-0.5377771 0.0236,-0.6915391 l -0.48439,0 z m -25.64786,0.0457 c 0.0154,0.169138 0.0236,0.2925 0.0236,0.369382 l -0.43869,0 c -0.43053,0 -0.7535,-0.0082 -0.96877,-0.02363 l 0,0.3922251 c 0.21527,-0.01536 0.53824,-0.02285 0.96877,-0.02285 l 0.43869,0 0,0.368621 0.46077,0 0,-0.368621 1.40669,0 0,0.368621 0.43868,0 0,-0.368621 0.53008,0 c 0.41515,0 0.72318,0.0075 0.92307,0.02285 l 0,-0.3922251 c -0.2614,0.01536 -0.56942,0.02363 -0.92307,0.02363 l -0.53008,0 c 0,-0.107637 0.008,-0.230999 0.0229,-0.369382 l -0.48438,0 c 0.0153,0.138383 0.0229,0.261745 0.0229,0.369382 l -1.40669,0 c 0,-0.107637 0.008,-0.230999 0.0229,-0.369382 l -0.50723,0 z m 15.15368,0 c -0.21526,0.123008 -0.53823,0.230663 -0.96876,0.322919 -0.43053,0.07688 -1.03011,0.153888 -1.79892,0.230769 0.12301,0.1383861 0.19926,0.2766911 0.23001,0.4150741 0.52279,-0.09226 0.89211,-0.153555 1.10737,-0.184306 l 0,1.475991 -0.71514,0 c -0.29215,0 -0.56876,-0.0075 -0.83015,-0.02285 l 0,0.437922 c 0.27677,-0.01536 0.55337,-0.02285 0.83015,-0.02285 l 0.71514,0 0,1.868223 c 0,0.27677 -0.0157,0.553379 -0.0464,0.830149 l 0.53084,0 c -0.0154,-0.292145 -0.0229,-0.568755 -0.0229,-0.830149 l 0,-1.868223 0.853,0 c 0.24602,0 0.49198,0.0075 0.738,0.02285 l 0,-0.437922 c -0.24602,0.01536 -0.49945,0.02285 -0.76084,0.02285 l -0.83016,0 0,-1.545299 c 0.35365,-0.0615 0.78428,-0.122805 1.29168,-0.1843071 -0.0922,-0.09226 -0.19991,-0.269447 -0.32291,-0.530841 z m 3.87429,0.04646 c 0.0153,0.338275 0.0229,0.6761871 0.0229,1.0144581 l 0,3.43637 c 0,0.384405 0.20037,0.576537 0.60015,0.576537 l 1.22237,0 c 0.13839,0 0.26923,-0.05383 0.39223,-0.161459 0.12301,-0.107636 0.23814,-0.368539 0.34578,-0.783695 -0.23065,-0.06151 -0.40784,-0.131036 -0.53084,-0.207917 -0.0616,0.30752 -0.12281,0.507888 -0.18432,0.600145 -0.0461,0.09226 -0.12313,0.137852 -0.23076,0.137852 l -0.87585,0 c -0.18451,0 -0.27722,-0.107659 -0.27722,-0.322923 l 0,-1.936767 c 0.4459,-0.199889 0.8384,-0.392781 1.17667,-0.577298 0.35366,-0.199888 0.6228,-0.353136 0.80731,-0.460772 -0.13839,-0.138383 -0.26922,-0.292394 -0.39223,-0.461532 -0.33827,0.353651 -0.86907,0.699795 -1.59175,1.03807 l 0,-0.968766 c 0,-0.292145 0.008,-0.5994041 0.0229,-0.9223031 l -0.50723,0 z m -2.30614,0.115001 c 0.0153,0.261394 0.0229,0.5768891 0.0229,0.9459161 l 0,3.090599 c -0.0308,0.184517 -0.0846,0.307114 -0.16146,0.36862 0.10763,0.184513 0.21529,0.345996 0.32292,0.484379 0.13838,-0.123007 0.39181,-0.276258 0.76084,-0.460772 0.38441,-0.184513 0.75373,-0.361703 1.10738,-0.530837 -0.0308,-0.123011 -0.0614,-0.284494 -0.0922,-0.484382 -0.35365,0.184513 -0.63026,0.330289 -0.83015,0.437925 -0.18451,0.09226 -0.39982,0.192437 -0.64584,0.300072 l 0,-2.029682 0.55369,0 c 0.29215,0 0.60688,0.0075 0.94515,0.02285 l 0,-0.484384 c -0.33827,0.01536 -0.653,0.02359 -0.94515,0.02359 l -0.55369,0 0,-0.784455 c 0,-0.353651 0.008,-0.6534381 0.0229,-0.8994571 l -0.50723,0 z m -17.27552,1.1073791 c 0.0153,0.215264 0.0236,0.368515 0.0236,0.460772 l 0,1.03807 c 0,0.07688 -0.008,0.200239 -0.0236,0.369376 l 1.6146,0 0,0.322924 -2.09899,0 0,1.798914 0.46154,0 0,-1.453144 1.63745,0 0,0.553687 c -0.27676,0.03077 -0.52272,0.0614 -0.73799,0.09216 -0.21527,0.01536 -0.37675,0.02285 -0.48439,0.02285 0.0461,0.138382 0.0925,0.284163 0.13862,0.43792 0.18451,-0.04612 0.37665,-0.08425 0.57654,-0.115001 0.19988,-0.03077 0.39202,-0.0614 0.57653,-0.09215 0.18451,-0.03077 0.36917,-0.05393 0.55369,-0.0693 0.18451,-0.03077 0.38412,-0.05393 0.59938,-0.0693 0.0461,0.09226 0.1,0.19244 0.16146,0.300076 0.12301,-0.07688 0.2389,-0.146415 0.34654,-0.207921 -0.0461,-0.123007 -0.11567,-0.253081 -0.20792,-0.391463 l -0.27647,-0.461536 0.853,0 0,0.807302 c 0,0.138386 -0.0232,0.215392 -0.0693,0.230768 -0.0461,0.01536 -0.16873,0.01536 -0.36861,0 0.0769,0.153762 0.1307,0.307009 0.16146,0.460772 0.21526,-0.03077 0.39169,-0.06888 0.53007,-0.115002 0.13839,-0.04613 0.20792,-0.192667 0.20792,-0.438686 l 0,-1.290924 -2.09898,0 0,-0.322919 1.59176,0 c -0.0154,-0.153763 -0.0236,-0.26965 -0.0236,-0.346531 l 0,-1.03731 c 0,-0.09226 0.008,-0.253739 0.0236,-0.484382 l -3.6679,0 z m -6.27336,0.02285 0,0.34577 c 0.21527,-0.01536 0.41564,-0.02285 0.60015,-0.02285 l 1.24523,0 c 0.13838,0 0.34622,0.0075 0.62299,0.02285 l 0,-0.34577 c -0.27677,0.01536 -0.48461,0.02285 -0.62299,0.02285 l -1.24523,0 c -0.18451,0 -0.38488,-0.0075 -0.60015,-0.02285 z m 6.71205,0.32292 1.17591,0 0,0.437925 -1.17591,0 0,-0.437925 z m 1.63745,0 1.15307,0 0,0.437925 -1.15307,0 0,-0.437925 z m 3.1599,0.161463 c 0.0153,0.09226 0.0229,0.199912 0.0229,0.322919 0,0.123012 -0.008,0.261316 -0.0229,0.415079 l 0.53008,0 0,-0.415079 4.01367,0 0,0.322923 0.50722,0 c -0.0153,-0.107635 -0.0229,-0.215291 -0.0229,-0.322923 0,-0.123007 0.008,-0.230663 0.0229,-0.322919 l -5.05097,0 z m -11.90163,0.115002 0,0.34653 c 0.24602,-0.01536 0.53834,-0.02363 0.87661,-0.02363 l 1.38385,0 c 0.24601,0 0.5458,0.0082 0.89945,0.02363 l 0,-0.34653 c -0.27677,0.01536 -0.57656,0.02359 -0.89945,0.02359 l -1.42955,0 c -0.32289,0 -0.60026,-0.0082 -0.83091,-0.02359 z m 12.82393,0.484383 0,0.369377 c 0.38442,-0.01536 0.79186,-0.02285 1.22238,-0.02285 l 0.92308,0 c 0.35365,0 0.7222,0.0075 1.10661,0.02285 l 0,-0.369377 c -0.38441,0.01536 -0.75296,0.02363 -1.10661,0.02363 l -0.94592,0 c -0.41516,0 -0.81512,-0.0082 -1.19954,-0.02363 z m -5.71965,0.02363 1.17591,0 0,0.391463 -1.17591,0 0,-0.391463 z m 1.63745,0 1.15307,0 0,0.391463 -1.15307,0 0,-0.391463 z m -8.32589,0.09215 c 0.0154,0.230644 0.0229,0.530432 0.0229,0.899457 0,0.369027 -0.008,0.699468 -0.0229,0.991612 l 2.51407,0 c -0.0154,-0.292144 -0.0236,-0.638289 -0.0236,-1.038069 0,-0.399777 0.008,-0.683862 0.0236,-0.853 l -2.51407,0 z m 0.39146,0.299312 1.73038,0 0,0.230769 -1.73038,0 0,-0.230769 z m 11.87803,0.277226 c 0.0154,0.123007 0.0236,0.276259 0.0236,0.460772 0,0.184513 -0.008,0.361702 -0.0236,0.53084 l 0.87661,0 c -0.13839,0.07688 -0.28417,0.130709 -0.43793,0.16146 0.12301,0.153762 0.21496,0.330188 0.27646,0.530076 l -0.62223,0 c -0.36902,0 -0.72264,-0.0075 -1.06092,-0.02285 l 0,0.392227 c 0.33828,-0.01536 0.6919,-0.02285 1.06092,-0.02285 l 3.25206,0 c 0.33827,0 0.70684,0.0075 1.10662,0.02285 l 0,-0.392227 c -0.39978,0.01536 -0.77657,0.02285 -1.13023,0.02285 l -0.59938,0 c 0.16914,-0.292144 0.29174,-0.461099 0.36862,-0.507229 -0.18451,-0.07688 -0.33777,-0.138181 -0.46078,-0.184307 l 0.89947,0 c -0.0153,-0.153762 -0.0229,-0.315245 -0.0229,-0.484382 0,-0.184514 0.008,-0.353471 0.0229,-0.50723 l -3.52929,0 z m -11.87803,0.230764 1.73038,0 0,0.230008 -1.73038,0 0,-0.230008 z m 12.38602,0.09216 2.51406,0 0,0.34577 -2.51406,0 0,-0.34577 z m 19.30444,0.253615 c -0.13838,0.0615 -0.28416,0.115333 -0.43792,0.161463 0.12301,0.215265 0.23813,0.484403 0.34576,0.807302 0.15377,-0.07688 0.29954,-0.130708 0.43793,-0.161459 -0.10763,-0.261394 -0.22276,-0.530536 -0.34577,-0.807306 z m -31.69046,0.161463 1.73038,0 0,0.276462 -1.73038,0 0,-0.276462 z m 7.93443,0 0.71515,0 c -0.13839,0.09225 -0.23857,0.146081 -0.30007,0.16146 0.0615,0.07688 0.1385,0.184537 0.23076,0.322919 -0.24601,0.03077 -0.46133,0.0457 -0.64584,0.0457 l 0,-0.530076 z m 4.88951,0.253615 1.61461,0 c -0.0616,0.138383 -0.12281,0.261745 -0.18431,0.369378 -0.0461,0.09226 -0.11566,0.199151 -0.20792,0.322158 l -0.94592,0 c -0.10763,-0.276769 -0.19958,-0.507023 -0.27646,-0.691536 z m -11.23217,0.345766 -0.27647,0.277226 c 0.12302,0.107632 0.35326,0.345361 0.69154,0.714387 0.10763,-0.138383 0.21529,-0.237807 0.32292,-0.299308 -0.0922,-0.09226 -0.33822,-0.323274 -0.73799,-0.692305 z m -1.40669,0.02359 c -0.21527,0.230643 -0.49264,0.4609 -0.83092,0.691539 0.0923,0.07688 0.1775,0.177066 0.25438,0.300073 0.19989,-0.169138 0.49968,-0.392681 0.89946,-0.66945 -0.10763,-0.123011 -0.21529,-0.229902 -0.32292,-0.322162 z"
     id="path4148"
     inkscape:connector-curvature="0" />
  <path
     style="font-style:normal;font-variant:normal;font-weight:bold;font-stretch:normal;font-size:medium;line-height:125%;font-family:Georgia;-inkscape-font-specification:'Georgia, Bold';text-align:start;letter-spacing:0px;word-spacing:0px;writing-mode:lr-tb;text-anchor:start;fill:#fff6d5;fill-opacity:1;stroke:none;stroke-width:1px;stroke-linecap:butt;stroke-linejoin:miter;stroke-opacity:1"
     d="m 38.653094,130.74394 c -1.979167,0 -3.730469,0.3125 -5.253907,0.9375 -1.523438,0.61198 -2.779948,1.4323 -3.769531,2.46094 -1.015625,1.05469 -1.770833,2.23307 -2.265625,3.53516 -0.481771,1.30208 -0.722656,2.71484 -0.722656,4.23828 0,1.53646 0.253906,2.97526 0.761719,4.3164 0.520833,1.34115 1.276041,2.50652 2.265625,3.4961 1.002604,1.00261 2.252604,1.8099 3.75,2.42188 1.510416,0.61198 3.248697,0.91796 5.214843,0.91796 1.861979,0 3.509115,-0.26041 4.941407,-0.78125 1.432291,-0.52083 2.688802,-1.27603 3.769531,-2.26562 1.028646,-0.95052 1.835938,-2.10938 2.421875,-3.47657 0.598959,-1.3802 0.898437,-2.92317 0.898437,-4.6289 0,-1.43229 -0.240885,-2.8125 -0.722656,-4.14063 -0.46875,-1.34114 -1.197917,-2.53255 -2.1875,-3.57422 -0.976562,-1.02864 -2.226562,-1.86197 -3.75,-2.5 -1.523437,-0.63802 -3.307292,-0.95703 -5.351562,-0.95703 z m 28.046875,0 c -1.979167,0 -3.730469,0.3125 -5.253907,0.9375 -1.523438,0.61198 -2.779948,1.4323 -3.769531,2.46094 -1.015625,1.05469 -1.770833,2.23307 -2.265625,3.53516 -0.481771,1.30208 -0.722656,2.71484 -0.722656,4.23828 0,1.53646 0.253906,2.97526 0.761719,4.3164 0.520833,1.34115 1.276041,2.50652 2.265625,3.4961 1.002604,1.00261 2.252604,1.8099 3.75,2.42188 1.510416,0.61198 3.248697,0.91796 5.214843,0.91796 1.861979,0 3.509115,-0.26041 4.941407,-0.78125 1.432291,-0.52083 2.688802,-1.27603 3.769531,-2.26562 1.028646,-0.95052 1.835938,-2.10938 2.421875,-3.47657 0.598959,-1.3802 0.898437,-2.92317 0.898437,-4.6289 0,-1.43229 -0.240885,-2.8125 -0.722656,-4.14063 -0.46875,-1.34114 -1.197917,-2.53255 -2.1875,-3.57422 -0.976562,-1.02864 -2.226562,-1.86197 -3.75,-2.5 -1.523437,-0.63802 -3.307292,-0.95703 -5.351562,-0.95703 z m 28.046879,0 c -1.97917,0 -3.73048,0.3125 -5.25391,0.9375 -1.52344,0.61198 -2.779949,1.4323 -3.769532,2.46094 -1.015625,1.05469 -1.770833,2.23307 -2.265625,3.53516 -0.481771,1.30208 -0.722656,2.71484 -0.722656,4.23828 0,1.53646 0.253906,2.97526 0.761719,4.3164 0.520833,1.34115 1.276041,2.50652 2.265625,3.4961 1.002604,1.00261 2.252599,1.8099 3.749999,2.42188 1.51041,0.61198 3.2487,0.91796 5.21484,0.91796 1.86198,0 3.50912,-0.26041 4.94141,-0.78125 1.432292,-0.52083 2.688812,-1.27603 3.769532,-2.26562 1.02865,-0.95052 1.83594,-2.10938 2.42188,-3.47657 0.59895,-1.3802 0.89843,-2.92317 0.89843,-4.6289 0,-1.43229 -0.24089,-2.8125 -0.72265,-4.14063 -0.46876,-1.34114 -1.19792,-2.53255 -2.1875,-3.57422 -0.97657,-1.02864 -2.22657,-1.86197 -3.75,-2.5 -1.523442,-0.63802 -3.307292,-0.95703 -5.351562,-0.95703 z m -79.140629,0.0391 c -0.208334,0.29947 -0.494792,0.64453 -0.859375,1.03515 -0.351563,0.39063 -0.807292,0.76823 -1.367188,1.13281 -0.546875,0.35157 -1.236979,0.65105 -2.070312,0.89844 -0.820313,0.2474 -1.7968749,0.3711 -2.9296879,0.3711 l -1.074219,0 0,1.85546 4.9414069,0 0,12.38282 c 0,0.54687 -0.110678,0.97656 -0.332032,1.28906 -0.221354,0.3125 -0.527344,0.53385 -0.917968,0.66406 -0.3125,0.10417 -0.898438,0.20834 -1.7578129,0.3125 -0.846354,0.10414 -1.464844,0.16925 -1.855469,0.19532 l 0,1.48437 16.1132819,0 0,-1.48437 c -0.377604,-0.026 -0.963542,-0.10416 -1.757813,-0.23438 -0.794271,-0.1302 -1.360677,-0.27344 -1.699219,-0.42969 -0.377604,-0.18229 -0.670573,-0.44271 -0.878906,-0.78125 -0.195312,-0.35156 -0.292969,-0.76172 -0.292969,-1.23047 l 0,-11.44531 c 0,-0.89844 0.01953,-1.91406 0.05859,-3.04687 0.03907,-1.13282 0.07813,-2.1224 0.117188,-2.96875 l -3.4375,0 z m 23.066406,1.67968 c 0.872396,0 1.608073,0.24089 2.207031,0.72266 0.598959,0.48177 1.080729,1.16536 1.445313,2.05078 0.351562,0.85938 0.598958,1.84245 0.742187,2.94922 0.15625,1.10677 0.234375,2.35026 0.234375,3.73047 0,1.53646 -0.08463,2.84505 -0.253906,3.92578 -0.15625,1.06771 -0.423177,2.03776 -0.800781,2.91016 -0.351563,0.80729 -0.833334,1.44531 -1.445313,1.91406 -0.611979,0.46875 -1.334635,0.70313 -2.167969,0.70313 -0.898438,0 -1.653646,-0.26042 -2.265625,-0.78125 -0.611979,-0.52084 -1.080729,-1.20443 -1.40625,-2.05079 -0.364583,-0.9375 -0.618489,-1.91406 -0.761718,-2.92969 -0.130209,-1.01562 -0.195313,-2.24609 -0.195313,-3.6914 0,-1.38021 0.07813,-2.64323 0.234375,-3.78906 0.15625,-1.15886 0.403646,-2.13542 0.742188,-2.92969 0.377604,-0.8724 0.865885,-1.54297 1.464843,-2.01172 0.598958,-0.48177 1.341146,-0.72266 2.226563,-0.72266 z m 28.046875,0 c 0.872396,0 1.608073,0.24089 2.207031,0.72266 0.598959,0.48177 1.080729,1.16536 1.445313,2.05078 0.351562,0.85938 0.598958,1.84245 0.742187,2.94922 0.15625,1.10677 0.234375,2.35026 0.234375,3.73047 0,1.53646 -0.08463,2.84505 -0.253906,3.92578 -0.15625,1.06771 -0.423177,2.03776 -0.800781,2.91016 -0.351563,0.80729 -0.833334,1.44531 -1.445313,1.91406 -0.611979,0.46875 -1.334635,0.70313 -2.167969,0.70313 -0.898438,0 -1.653646,-0.26042 -2.265625,-0.78125 -0.611979,-0.52084 -1.080729,-1.20443 -1.40625,-2.05079 -0.364583,-0.9375 -0.618489,-1.91406 -0.761718,-2.92969 -0.130209,-1.01562 -0.195313,-2.24609 -0.195313,-3.6914 0,-1.38021 0.07813,-2.64323 0.234375,-3.78906 0.15625,-1.15886 0.403646,-2.13542 0.742188,-2.92969 0.377604,-0.8724 0.865885,-1.54297 1.464843,-2.01172 0.598958,-0.48177 1.341146,-0.72266 2.226563,-0.72266 z m 28.046878,0 c 0.87239,0 1.60807,0.24089 2.20703,0.72266 0.59895,0.48177 1.08072,1.16536 1.44531,2.05078 0.35156,0.85938 0.59895,1.84245 0.74219,2.94922 0.15624,1.10677 0.23437,2.35026 0.23437,3.73047 0,1.53646 -0.08464,2.84505 -0.2539,3.92578 -0.15626,1.06771 -0.42318,2.03776 -0.80078,2.91016 -0.35156,0.80729 -0.83334,1.44531 -1.44532,1.91406 -0.61198,0.46875 -1.33463,0.70313 -2.16797,0.70313 -0.89843,0 -1.65364,-0.26042 -2.26562,-0.78125 -0.61198,-0.52084 -1.08073,-1.20443 -1.40625,-2.05079 -0.36459,-0.9375 -0.61849,-1.91406 -0.76172,-2.92969 -0.13021,-1.01562 -0.19531,-2.24609 -0.19531,-3.6914 0,-1.38021 0.07813,-2.64323 0.23437,-3.78906 0.15626,-1.15886 0.40365,-2.13542 0.74219,-2.92969 0.37761,-0.8724 0.86589,-1.54297 1.46484,-2.01172 0.59896,-0.48177 1.34115,-0.72266 2.22657,-0.72266 z"
     id="path4187"
     inkscape:connector-curvature="0" />
  <path
     style="font-style:normal;font-variant:normal;font-weight:bold;font-stretch:normal;font-size:medium;line-height:125%;font-family:Georgia;-inkscape-font-specification:'Georgia, Bold';text-align:start;letter-spacing:0px;word-spacing:0px;writing-mode:lr-tb;text-anchor:start;fill:#d45500;fill-opacity:1;stroke:none;stroke-width:1px;stroke-linecap:butt;stroke-linejoin:miter;stroke-opacity:1"
     d="m 252.45674,16.19557 c -1.04623,0 -1.97284,0.16529 -2.77817,0.495679 -0.80533,0.323506 -1.4685,0.757761 -1.99162,1.301527 -0.53688,0.557531 -0.93608,1.180129 -1.19764,1.868439 -0.25468,0.688311 -0.38289,1.435618 -0.38289,2.240941 0,0.812206 0.13522,1.572051 0.40367,2.28101 0.27532,0.70896 0.67452,1.326032 1.19764,1.849147 0.53,0.53 1.18967,0.95576 1.98123,1.279266 0.79844,0.323506 1.71805,0.485289 2.7574,0.485289 0.98427,0 1.85481,-0.137246 2.61195,-0.41257 0.75714,-0.275324 1.4218,-0.674526 1.9931,-1.197642 0.54377,-0.502467 0.96953,-1.114548 1.27927,-1.837274 0.31663,-0.72961 0.4749,-1.545539 0.4749,-2.447226 0,-0.757142 -0.12673,-1.486921 -0.38141,-2.188998 -0.24778,-0.70896 -0.63297,-1.338568 -1.15608,-1.889218 -0.51624,-0.543765 -1.1774,-0.985031 -1.98272,-1.322303 -0.80532,-0.337271 -1.74798,-0.506067 -2.82863,-0.506067 z m 14.82583,0 c -1.04624,0 -1.97137,0.16529 -2.77669,0.495679 -0.80533,0.323506 -1.46999,0.757761 -1.99311,1.301527 -0.53687,0.557531 -0.93608,1.180129 -1.19764,1.868439 -0.25467,0.688311 -0.38289,1.435618 -0.38289,2.240941 0,0.812206 0.13523,1.572051 0.40367,2.28101 0.27533,0.70896 0.67452,1.326032 1.19765,1.849147 0.52999,0.53 1.19115,0.95576 1.9827,1.279266 0.79844,0.323506 1.71657,0.485289 2.75591,0.485289 0.98429,0 1.85482,-0.137246 2.61196,-0.41257 0.75715,-0.275324 1.4218,-0.674526 1.99311,-1.197642 0.54376,-0.502467 0.971,-1.114548 1.28075,-1.837274 0.31662,-0.72961 0.4749,-1.545539 0.4749,-2.447226 0,-0.757142 -0.12822,-1.486921 -0.38289,-2.188998 -0.2478,-0.70896 -0.63298,-1.338568 -1.15609,-1.889218 -0.51624,-0.543765 -1.17739,-0.985031 -1.98272,-1.322303 -0.80532,-0.337271 -1.74797,-0.506067 -2.82862,-0.506067 z m 14.82582,0 c -1.04623,0 -1.97136,0.16529 -2.77669,0.495679 -0.80532,0.323506 -1.46999,0.757761 -1.9931,1.301527 -0.53688,0.557531 -0.93608,1.180129 -1.19764,1.868439 -0.25468,0.688311 -0.3814,1.435618 -0.3814,2.240941 0,0.812206 0.13374,1.572051 0.40217,2.28101 0.27533,0.70896 0.67453,1.326032 1.19764,1.849147 0.53001,0.53 1.19116,0.95576 1.98272,1.279266 0.79844,0.323506 1.71657,0.485289 2.75591,0.485289 0.98428,0 1.85482,-0.137246 2.61196,-0.41257 0.75714,-0.275324 1.42181,-0.674526 1.9931,-1.197642 0.54377,-0.502467 0.97101,-1.114548 1.28075,-1.837274 0.31663,-0.72961 0.4749,-1.545539 0.4749,-2.447226 0,-0.757142 -0.12821,-1.486921 -0.38289,-2.188998 -0.24779,-0.70896 -0.63297,-1.338568 -1.15608,-1.889218 -0.51624,-0.543765 -1.17591,-0.985031 -1.98124,-1.322303 -0.80532,-0.337271 -1.74947,-0.506067 -2.83011,-0.506067 z m -41.83436,0.02078 c -0.11013,0.158311 -0.26288,0.341127 -0.4556,0.54762 -0.18585,0.206493 -0.42677,0.406836 -0.72274,0.599563 -0.28909,0.185844 -0.65324,0.344123 -1.09376,0.474902 -0.43363,0.130778 -0.95053,0.195896 -1.54936,0.195896 l -0.56692,0 0,0.980968 2.61196,0 0,6.544734 c 0,0.289091 -0.0581,0.517477 -0.17512,0.682671 -0.11701,0.165194 -0.2788,0.281408 -0.48529,0.350239 -0.16519,0.05506 -0.47474,0.111151 -0.92902,0.166216 -0.44741,0.05507 -0.77448,0.08864 -0.98097,0.102401 l 0,0.785071 8.51705,0 0,-0.785071 c -0.19961,-0.01377 -0.50915,-0.05435 -0.92902,-0.123178 -0.41987,-0.06883 -0.7189,-0.144465 -0.89786,-0.227063 -0.19961,-0.09636 -0.35438,-0.235093 -0.46451,-0.414054 -0.10324,-0.185844 -0.15583,-0.40223 -0.15583,-0.650021 l 0,-6.05054 c 0,-0.474934 0.0105,-1.011381 0.0312,-1.610212 0.0206,-0.598829 0.0417,-1.12274 0.0623,-1.570142 l -1.81651,0 z m 12.1931,0.888955 c 0.46117,0 0.84985,0.126731 1.16648,0.381406 0.31662,0.254674 0.57156,0.616801 0.76429,1.084853 0.18585,0.454285 0.31608,0.973205 0.39179,1.558269 0.0826,0.585064 0.12466,1.242716 0.12466,1.972325 0,0.812206 -0.0456,1.503427 -0.13504,2.074725 -0.0826,0.564415 -0.22335,1.077809 -0.42296,1.538977 -0.18584,0.426753 -0.44079,0.764342 -0.7643,1.012134 -0.32351,0.247791 -0.70518,0.371016 -1.14569,0.371016 -0.47494,0 -0.87414,-0.137246 -1.19765,-0.412571 -0.32351,-0.275324 -0.57144,-0.637451 -0.74352,-1.084852 -0.19272,-0.495584 -0.32647,-1.010999 -0.40218,-1.547882 -0.0688,-0.536881 -0.10389,-1.187522 -0.10389,-1.951547 0,-0.729609 0.0421,-1.397777 0.12466,-2.00349 0.0826,-0.612597 0.21284,-1.128012 0.3918,-1.547881 0.19961,-0.461169 0.45806,-0.816284 0.77468,-1.064076 0.31662,-0.254675 0.70881,-0.381406 1.17687,-0.381406 z m 14.82583,0 c 0.46116,0 0.84985,0.126731 1.16647,0.381406 0.31662,0.254674 0.57157,0.616801 0.76429,1.084853 0.18584,0.454285 0.31608,0.973205 0.3918,1.558269 0.0826,0.585064 0.12466,1.242716 0.12466,1.972325 0,0.812206 -0.0456,1.503427 -0.13505,2.074725 -0.0826,0.564415 -0.22335,1.077809 -0.42296,1.538977 -0.18585,0.426753 -0.44079,0.764342 -0.76429,1.012134 -0.32351,0.247791 -0.70518,0.371016 -1.14571,0.371016 -0.47493,0 -0.87413,-0.137246 -1.19764,-0.412571 -0.3235,-0.275324 -0.57144,-0.637451 -0.74351,-1.084852 -0.19273,-0.495584 -0.32647,-1.010999 -0.40218,-1.547882 -0.0688,-0.536881 -0.10389,-1.187522 -0.10389,-1.951547 0,-0.729609 0.0421,-1.397777 0.12466,-2.00349 0.0826,-0.612597 0.21283,-1.128012 0.3918,-1.547881 0.19961,-0.461169 0.45806,-0.816284 0.77468,-1.064076 0.31662,-0.254675 0.70881,-0.381406 1.17687,-0.381406 z m 14.82582,0 c 0.46117,0 0.84986,0.126731 1.16647,0.381406 0.31663,0.254674 0.57157,0.616801 0.7643,1.084853 0.18585,0.454285 0.31757,0.973205 0.39328,1.558269 0.0826,0.585064 0.12318,1.242716 0.12318,1.972325 0,0.812206 -0.0441,1.503427 -0.13357,2.074725 -0.0826,0.564415 -0.22484,1.077809 -0.42445,1.538977 -0.18584,0.426753 -0.4393,0.764342 -0.7628,1.012134 -0.32351,0.247791 -0.70666,0.371016 -1.14719,0.371016 -0.47493,0 -0.87413,-0.137246 -1.19764,-0.412571 -0.3235,-0.275324 -0.57144,-0.637451 -0.74352,-1.084852 -0.19273,-0.495584 -0.32647,-1.010999 -0.40218,-1.547882 -0.0688,-0.536881 -0.1024,-1.187522 -0.1024,-1.951547 0,-0.729609 0.0406,-1.397777 0.12318,-2.00349 0.0826,-0.612597 0.21284,-1.128012 0.39179,-1.547881 0.19961,-0.461169 0.45806,-0.816284 0.77469,-1.064076 0.31661,-0.254675 0.70881,-0.381406 1.17686,-0.381406 z"
     id="path4201"
     inkscape:connector-curvature="0" />
  <path
     style="font-style:normal;font-weight:normal;font-size:medium;line-height:125%;font-family:Sans;letter-spacing:0px;word-spacing:0px;fill:#d4aa00;fill-opacity:1;stroke:none;stroke-width:1px;stroke-linecap:butt;stroke-linejoin:miter;stroke-opacity:1"
     d="m 251.18933,194.78491 c -0.26211,0 -0.55226,0.0379 -0.86798,0.11237 -0.31573,0.0745 -0.65442,0.18471 -1.0178,0.33065 l 0,0.9106 c 0.35742,-0.19956 0.69214,-0.34861 1.00488,-0.4469 0.31573,-0.0983 0.61473,-0.14724 0.89769,-0.14724 0.39912,0 0.7228,0.11243 0.97001,0.33582 0.2502,0.22339 0.37587,0.51223 0.37587,0.86668 0,0.21743 -0.0582,0.43883 -0.17437,0.66519 -0.11319,0.22339 -0.31427,0.49682 -0.6032,0.82148 -0.1519,0.17275 -0.52453,0.55861 -1.11725,1.1573 -0.58975,0.5957 -1.05632,1.07151 -1.39884,1.42596 l 0,0.75947 4.23526,0 0,-0.75947 -3.149,0 c 0.72676,-0.74165 1.28904,-1.31846 1.68816,-1.7295 0.39912,-0.41401 0.63593,-0.66405 0.71039,-0.75043 0.27105,-0.33359 0.45801,-0.62245 0.55928,-0.86669 0.10426,-0.24721 0.15629,-0.50741 0.15629,-0.78143 0,-0.57783 -0.20636,-1.04042 -0.6174,-1.38592 -0.41103,-0.34551 -0.96098,-0.51794 -1.65199,-0.51794 z m 6.02674,0 c -0.67315,0 -1.21204,0.20726 -1.61712,0.62127 -0.40508,0.41401 -0.60836,0.96306 -0.60836,1.64811 0,0.69996 0.19403,1.25338 0.58124,1.65846 0.39018,0.4021 0.91893,0.60319 1.58611,0.60319 0.32168,0 0.61451,-0.0696 0.8796,-0.20666 0.26509,-0.13701 0.48469,-0.33283 0.65745,-0.58898 -0.0447,0.8161 -0.22548,1.42555 -0.5412,1.82765 -0.31274,0.39913 -0.76696,0.59803 -1.36266,0.59803 -0.2234,0 -0.45096,-0.0286 -0.68328,-0.0852 -0.23232,-0.0566 -0.46207,-0.13818 -0.68844,-0.24541 l 0,0.82277 c 0.2502,0.0893 0.49228,0.15552 0.72461,0.2002 0.23232,0.0447 0.46078,0.0672 0.68714,0.0672 0.84293,0 1.51366,-0.31224 2.01107,-0.93772 0.50039,-0.62847 0.75044,-1.46856 0.75044,-2.51997 0,-1.12588 -0.20418,-1.98448 -0.61224,-2.57422 -0.40507,-0.59272 -0.99292,-0.88864 -1.76436,-0.88864 z m 16.86609,0 c -0.2621,0 -0.55225,0.0379 -0.86797,0.11237 -0.31572,0.0745 -0.65443,0.18471 -1.0178,0.33065 l 0,0.9106 c 0.35742,-0.19956 0.69214,-0.34861 1.00488,-0.4469 0.31572,-0.0983 0.61473,-0.14724 0.89768,-0.14724 0.39913,0 0.7228,0.11243 0.97002,0.33582 0.25019,0.22339 0.37586,0.51223 0.37586,0.86668 0,0.21743 -0.0582,0.43883 -0.17436,0.66519 -0.11319,0.22339 -0.31428,0.49682 -0.60319,0.82148 -0.15191,0.17275 -0.52455,0.55861 -1.11727,1.1573 -0.58974,0.5957 -1.0563,1.07151 -1.39883,1.42596 l 0,0.75947 4.23525,0 0,-0.75947 -3.14899,0 c 0.72676,-0.74165 1.28904,-1.31846 1.68815,-1.7295 0.39913,-0.41401 0.63595,-0.66405 0.71041,-0.75043 0.27104,-0.33359 0.458,-0.62245 0.55927,-0.86669 0.10424,-0.24721 0.15628,-0.50741 0.15628,-0.78143 0,-0.57783 -0.20635,-1.04042 -0.61739,-1.38592 -0.41104,-0.34551 -0.96097,-0.51794 -1.652,-0.51794 z m 11.9592,0 c -0.74761,0 -1.31914,0.29591 -1.71528,0.88864 -0.39316,0.58974 -0.59028,1.44833 -0.59028,2.57422 0,1.12289 0.19712,1.9802 0.59028,2.57292 0.39614,0.58975 0.96767,0.88477 1.71528,0.88477 0.7476,0 1.31825,-0.29502 1.71141,-0.88477 0.39614,-0.59272 0.59414,-1.45003 0.59414,-2.57292 0,-1.12589 -0.198,-1.98448 -0.59414,-2.57422 -0.39316,-0.59273 -0.96381,-0.88864 -1.71141,-0.88864 z m -25.04986,0.12012 0,0.76076 3.20324,0 -2.27843,5.9105 0.9416,0 2.42181,-6.28636 0,-0.3849 -4.28822,0 z m 18.91591,0 -1.59516,0.3229 0,0.82148 1.60421,-0.32162 0,5.08903 -1.47376,0 0,0.75947 3.84131,0 0,-0.75947 -1.47375,0 0,-5.91179 -0.90285,0 z m -22.69134,0.59544 c 0.40507,0 0.72437,0.1398 0.95968,0.41978 0.23828,0.277 0.35778,0.65451 0.35778,1.13404 0,0.48253 -0.1195,0.86222 -0.35778,1.13922 -0.23531,0.27701 -0.55461,0.4159 -0.95968,0.4159 -0.40508,1e-5 -0.72657,-0.13889 -0.96485,-0.4159 -0.2353,-0.277 -0.3539,-0.65669 -0.3539,-1.13922 0,-0.47953 0.1186,-0.85704 0.3539,-1.13404 0.23828,-0.27998 0.55977,-0.41978 0.96485,-0.41978 z m 28.82529,0 c 0.46762,0 0.81777,0.22846 1.05009,0.68715 0.2353,0.45571 0.35261,1.14276 0.35261,2.06015 0,0.9144 -0.11731,1.60016 -0.35261,2.05885 -0.23232,0.45571 -0.58247,0.68456 -1.05009,0.68456 -0.46465,0 -0.8148,-0.22885 -1.05009,-0.68456 -0.23233,-0.45869 -0.34746,-1.14445 -0.34746,-2.05885 1e-5,-0.91739 0.11513,-1.60444 0.34746,-2.06015 0.23529,-0.45869 0.58544,-0.68715 1.05009,-0.68715 z m -19.54622,1.07205 1.77857,2.38564 -1.9439,2.61813 0.97001,0 1.45566,-1.96585 1.45696,1.96585 0.97002,0 -1.90386,-2.56904 1.80957,-2.43473 -0.97001,0 -1.32651,1.78245 -1.32651,-1.78245 -0.97,0 z"
     id="path4219"
     inkscape:connector-curvature="0" />
  <path
     style="color:#000000;font-style:normal;font-variant:normal;font-weight:normal;font-stretch:normal;font-size:medium;line-height:normal;font-family:sans-serif;text-indent:0;text-align:start;text-decoration:none;text-decoration-line:none;text-decoration-style:solid;text-decoration-color:#000000;letter-spacing:normal;word-spacing:normal;text-transform:none;direction:ltr;block-progression:tb;writing-mode:lr-tb;baseline-shift:baseline;text-anchor:start;white-space:normal;clip-rule:nonzero;display:inline;overflow:visible;visibility:visible;opacity:1;isolation:auto;mix-blend-mode:normal;color-interpolation:sRGB;color-interpolation-filters:linearRGB;solid-color:#000000;solid-opacity:1;fill:#cccccc;fill-opacity:1;fill-rule:nonzero;stroke:none;stroke-width:1;stroke-linecap:butt;stroke-linejoin:miter;stroke-miterlimit:1;stroke-dasharray:none;stroke-dashoffset:0;stroke-opacity:1;color-rendering:auto;image-rendering:auto;shape-rendering:auto;text-rendering:auto;enable-background:accumulate"
     d="m 0.4921875,0.01367188 -0.5,0.5 0,209.00976812 0.5,0.5 296.0898425,0 0.5,-0.5 0,-209.00976812 -0.5,-0.5 -296.0898425,0 z m 0.5,1.00000002 295.0898425,0 0,208.0097681 -295.0898425,0 0,-208.0097681 z"
     id="rect4149"
     inkscape:connector-curvature="0" />
  <path
     style="font-style:normal;font-variant:normal;font-weight:normal;font-stretch:normal;font-size:medium;line-height:125%;font-family:SimHei;-inkscape-font-specification:'SimHei, Normal';text-align:start;letter-spacing:0px;word-spacing:0px;writing-mode:lr-tb;text-anchor:start;fill:#ffdd55;fill-opacity:1;stroke:none;stroke-width:1px;stroke-linecap:butt;stroke-linejoin:miter;stroke-opacity:1"
     d="m 63.407562,155.34706 c -0.12142,0.10118 -0.28277,0.21236 -0.48513,0.33378 0.2226,0.24283 0.43512,0.50653 0.63748,0.78983 l -0.36485,0 -0.69761,0 c -0.0202,-0.2226 -0.0311,-0.37411 -0.0311,-0.45505 0.0202,-0.10118 0.0409,-0.2537 0.0611,-0.45606 -0.20236,0 -0.42471,-0.0197 -0.66755,-0.0601 0.0405,0.22259 0.07,0.54629 0.0902,0.97124 l -2.9739,0 c -0.38448,0 -0.75936,-0.01 -1.1236,-0.0301 l 0,0.48513 c 0.36424,-0.0202 0.73912,-0.0301 1.1236,-0.0301 l 3.00497,0 c 0.0405,0.62731 0.0906,1.25404 0.15135,1.88135 0.0809,0.62732 0.21279,1.23438 0.39491,1.82123 0.20236,0.5666 0.44539,1.01232 0.72869,1.33609 0.30354,0.34401 0.58691,0.48569 0.84997,0.42499 0.26307,-0.0405 0.47559,-0.42518 0.63748,-1.15368 -0.24284,-0.0607 -0.45536,-0.17188 -0.63748,-0.33377 -0.0202,0.26306 -0.0616,0.49626 -0.12228,0.69862 -0.0405,0.20236 -0.18115,0.13152 -0.42399,-0.21249 -0.24282,-0.34402 -0.44551,-0.7799 -0.6074,-1.30603 -0.16189,-0.54638 -0.27307,-1.03143 -0.33378,-1.45638 -0.0405,-0.42495 -0.0808,-0.99168 -0.12127,-1.69994 l 0.94017,0 c 0.26307,0 0.61727,0.01 1.06246,0.0301 l 0,-0.48512 c -0.30354,0.0202 -0.59673,0.0301 -0.88003,0.0301 0.18212,-0.12141 0.34447,-0.22276 0.48612,-0.3037 -0.32377,-0.38449 -0.55697,-0.65802 -0.69862,-0.81991 z m 19.15337,0 c -0.14165,0.54638 -0.39451,1.16428 -0.75876,1.8523 -0.36424,0.68802 -0.70861,1.1839 -1.03239,1.48744 0.18213,0.12142 0.33465,0.28277 0.45606,0.48513 0.26307,-0.30354 0.53559,-0.71875 0.8189,-1.24489 l 0,3.30867 c 0,0.36424 -0.01,0.80996 -0.0301,1.3361 l 0.697616,0 c -0.0202,-0.52614 -0.0399,-0.97186 -0.0601,-1.3361 l 0,-4.30999 c 0.242826,-0.68802 0.455346,-1.1229 0.637476,-1.30502 -0.18213,-0.0607 -0.42516,-0.15222 -0.728686,-0.27364 z m -6.28355,0.12229 c 0.0202,0.24283 0.0311,0.45435 0.0311,0.63647 l -1.18374,0 c -0.58684,0 -1.19391,-0.01 -1.82122,-0.0301 l 0,0.5162 c 0.62731,-0.0202 1.23438,-0.0301 1.82122,-0.0301 l 1.18374,0 0,0.51619 -0.78982,0 c -0.46543,0 -0.91014,-0.0108 -1.3351,-0.0311 l 0,0.48613 c 0.44519,-0.0202 0.90074,-0.0301 1.36616,-0.0301 l 2.36749,0 c 0.44519,0 0.88007,0.01 1.30502,0.0301 l 0,-0.48613 c -0.42495,0.0202 -0.85983,0.0311 -1.30502,0.0311 l -0.94118,0 0,-0.51619 1.6388,0 c 0.44519,0 0.9204,0.01 1.4263,0.0301 l 0,-0.5162 c -0.52613,0.0202 -1.00135,0.0301 -1.4263,0.0301 l -1.6388,0 c 0,-0.20236 0.01,-0.41388 0.0301,-0.63647 l -0.72868,0 z m 21.581996,0 c 0.0202,0.32377 0.0301,0.63664 0.0301,0.94017 l 0,1.00233 -0.66755,0 c 0.081,-0.42496 0.16162,-0.69849 0.24256,-0.8199 -0.20236,-0.0405 -0.42471,-0.0906 -0.66754,-0.15135 -0.0202,0.30354 -0.0812,0.67741 -0.18243,1.1226 -0.0809,0.42496 -0.17145,0.77916 -0.27263,1.06246 0.16189,0.0405 0.34391,0.10148 0.54627,0.18242 0.0607,-0.26306 0.13155,-0.5671 0.21249,-0.91111 l 0.78883,0 0,1.54859 c -0.7285,0.2833 -1.22438,0.43482 -1.48745,0.45506 0.14165,0.22259 0.25283,0.43511 0.33378,0.63747 0.24283,-0.14165 0.62753,-0.31384 1.15367,-0.51619 l 0,1.48744 c 0,0.34401 -0.01,0.69822 -0.0301,1.06247 l 0.6074,0 c -0.0202,-0.38449 -0.0311,-0.73869 -0.0311,-1.06247 l 0,-1.69994 c 0.34402,-0.14165 0.62738,-0.25283 0.84997,-0.33377 -0.0405,-0.18212 -0.071,-0.35431 -0.0912,-0.5162 -0.24283,0.10118 -0.49569,0.20253 -0.75876,0.30371 l 0,-1.36617 c 0.30354,0 0.56724,0.01 0.78983,0.0301 l 0,-0.54626 c -0.24283,0.0202 -0.50652,0.0311 -0.78983,0.0311 l 0,-1.00233 c 0,-0.32377 0.0207,-0.63663 0.0611,-0.94017 l -0.63748,0 z m 3.066102,0 c 0.0405,0.20236 0.0601,0.50539 0.0601,0.91011 l -0.45506,0 c -0.34401,0 -0.627372,-0.01 -0.849972,-0.0301 l 0,0.54626 c 0.24283,-0.0202 0.526202,-0.0301 0.849972,-0.0301 l 0.45506,0 0,1.09253 -0.60741,0 c -0.34401,0 -0.656872,-0.0108 -0.940182,-0.0311 l 0,0.54727 c 0.28331,-0.0202 0.607002,-0.0311 0.971262,-0.0311 l 1.51751,0 0,0.91111 -1.48745,0 c -0.38448,0 -0.687512,-0.01 -0.910112,-0.0301 l 0,0.57634 c 0.26307,-0.0202 0.566102,-0.0301 0.910112,-0.0301 l 1.48745,0 0,1.73001 c 0,0.18212 -0.061,0.28346 -0.18242,0.3037 -0.12142,0.0202 -0.36444,0.0202 -0.72869,0 0.12142,0.22259 0.20309,0.45478 0.24357,0.69762 0.46542,-0.0607 0.77828,-0.14139 0.94017,-0.24257 0.16189,-0.0809 0.2534,-0.24329 0.27364,-0.48612 l 0,-2.00264 c 0.42495,0 0.75848,0.01 1.00131,0.0301 l 0,-0.57634 c -0.22259,0.0202 -0.55612,0.0301 -1.00131,0.0301 l 0,-0.91111 0.27363,0 c 0.2833,0 0.54599,0.0108 0.78883,0.0311 l 0,-0.54727 c -0.26307,0.0202 -0.54643,0.0311 -0.84997,0.0311 l -1.15367,0 0,-1.09253 0.69861,0 c 0.38449,0 0.67768,0.01 0.88004,0.0301 l 0,-0.54626 c -0.2833,0.0202 -0.5765,0.0301 -0.88004,0.0301 l -0.69861,0 c 0,-0.40472 0.0108,-0.70775 0.0311,-0.91011 l -0.63748,0 z m -33.754198,0.0601 c 0.0202,0.22259 0.0311,0.38495 0.0311,0.48613 l -0.57734,0 c -0.56661,0 -0.99165,-0.0108 -1.27496,-0.0311 l 0,0.51619 c 0.28331,-0.0202 0.70835,-0.0301 1.27496,-0.0301 l 0.57734,0 0,0.48513 0.6064,0 0,-0.48513 1.85129,0 0,0.48513 0.57734,0 0,-0.48513 0.69761,0 c 0.54637,0 0.95175,0.01 1.21482,0.0301 l 0,-0.51619 c -0.34401,0.0202 -0.74939,0.0311 -1.21482,0.0311 l -0.69761,0 c 0,-0.14166 0.01,-0.30401 0.0301,-0.48613 l -0.63748,0 c 0.0202,0.18212 0.0301,0.34447 0.0301,0.48613 l -1.85129,0 c 0,-0.14166 0.01,-0.30401 0.0301,-0.48613 l -0.66755,0 z m 19.943196,0 c -0.2833,0.16188 -0.70835,0.30356 -1.27495,0.42498 -0.56661,0.10118 -1.35569,0.20252 -2.36749,0.30371 0.16189,0.18212 0.26223,0.36414 0.3027,0.54626 0.68803,-0.12142 1.17408,-0.20209 1.45738,-0.24256 l 0,1.9425 -0.94118,0 c -0.38448,0 -0.74852,-0.01 -1.09253,-0.0301 l 0,0.57633 c 0.36425,-0.0202 0.72828,-0.0301 1.09253,-0.0301 l 0.94118,0 0,2.4587 c 0,0.36424 -0.0207,0.72828 -0.0611,1.09253 l 0.69862,0 c -0.0202,-0.38449 -0.0301,-0.74852 -0.0301,-1.09253 l 0,-2.4587 1.1226,0 c 0.32378,0 0.64748,0.01 0.97126,0.0301 l 0,-0.57633 c -0.32378,0.0202 -0.65731,0.0301 -1.00132,0.0301 l -1.09254,0 0,-2.03371 c 0.46543,-0.0809 1.03216,-0.16162 1.69994,-0.24256 -0.12141,-0.12142 -0.2631,-0.35461 -0.42498,-0.69862 z m 5.09881,0.0611 c 0.0202,0.44519 0.0301,0.8899 0.0301,1.33509 l 0,4.52248 c 0,0.5059 0.26369,0.75876 0.78983,0.75876 l 1.60872,0 c 0.18213,0 0.35432,-0.0708 0.5162,-0.21249 0.16189,-0.14166 0.31341,-0.48502 0.45506,-1.0314 -0.30354,-0.0809 -0.53674,-0.17245 -0.69862,-0.27363 -0.081,0.40472 -0.16162,0.66841 -0.24257,0.78983 -0.0607,0.12142 -0.16205,0.18142 -0.3037,0.18142 l -1.15267,0 c -0.24283,0 -0.36484,-0.14168 -0.36484,-0.42498 l 0,-2.54891 c 0.58684,-0.26307 1.10339,-0.51693 1.54858,-0.75976 0.46543,-0.26307 0.81964,-0.46475 1.06247,-0.60641 -0.18213,-0.18212 -0.35431,-0.38481 -0.5162,-0.6074 -0.44519,0.46542 -1.14376,0.92097 -2.09485,1.36616 l 0,-1.27495 c 0,-0.38448 0.01,-0.78886 0.0301,-1.21381 l -0.66755,0 z m -3.03503,0.15135 c 0.0202,0.34401 0.0301,0.75922 0.0301,1.24488 l 0,4.06742 c -0.0405,0.24284 -0.11132,0.40419 -0.21249,0.48513 0.14165,0.24283 0.28333,0.45535 0.42498,0.63747 0.18212,-0.16188 0.51565,-0.36357 1.00132,-0.6064 0.5059,-0.24283 0.99195,-0.47602 1.45738,-0.69862 -0.0405,-0.16189 -0.0808,-0.37441 -0.12129,-0.63747 -0.46542,0.24283 -0.82946,0.43468 -1.09253,0.57633 -0.24283,0.12142 -0.52619,0.25326 -0.84997,0.39492 l 0,-2.67119 0.72869,0 c 0.38449,0 0.7987,0.01 1.24388,0.0301 l 0,-0.63748 c -0.44518,0.0202 -0.85939,0.0311 -1.24388,0.0311 l -0.72869,0 0,-1.03239 c 0,-0.46543 0.01,-0.85997 0.0301,-1.18374 l -0.66754,0 z m -22.735666,1.45738 c 0.0202,0.2833 0.0311,0.48499 0.0311,0.6064 l 0,1.36617 c 0,0.10117 -0.0108,0.26352 -0.0311,0.48612 l 2.12492,0 0,0.42499 -2.7624,0 0,2.36748 0.60741,0 0,-1.91243 2.15499,0 0,0.72869 c -0.36424,0.0405 -0.68794,0.0808 -0.97125,0.12128 -0.2833,0.0202 -0.49582,0.0301 -0.63748,0.0301 0.0607,0.18212 0.12172,0.37398 0.18243,0.57633 0.24283,-0.0607 0.49569,-0.11088 0.75876,-0.15135 0.26306,-0.0405 0.51592,-0.0808 0.75875,-0.12128 0.24283,-0.0405 0.48586,-0.071 0.72869,-0.0912 0.24283,-0.0405 0.50553,-0.071 0.78883,-0.0912 0.0607,0.12142 0.13155,0.25327 0.21249,0.39492 0.16189,-0.10118 0.31441,-0.19269 0.45606,-0.27364 -0.0607,-0.16188 -0.15222,-0.33307 -0.27363,-0.51519 l -0.36385,-0.60741 1.1226,0 0,1.06246 c 0,0.18213 -0.0305,0.28347 -0.0912,0.30371 -0.0607,0.0202 -0.22206,0.0202 -0.48512,0 0.10117,0.20236 0.17201,0.40404 0.21249,0.6064 0.2833,-0.0405 0.51549,-0.0906 0.69761,-0.15135 0.18213,-0.0607 0.27364,-0.25356 0.27364,-0.57733 l 0,-1.69894 -2.7624,0 0,-0.42498 2.09486,0 c -0.0202,-0.20236 -0.0311,-0.35488 -0.0311,-0.45606 l 0,-1.36516 c 0,-0.12142 0.0108,-0.33394 0.0311,-0.63748 l -4.82719,0 z m -8.25613,0.0301 0,0.45505 c 0.2833,-0.0202 0.547,-0.0301 0.78983,-0.0301 l 1.6388,0 c 0.18212,0 0.45565,0.01 0.8199,0.0301 l 0,-0.45505 c -0.36425,0.0202 -0.63778,0.0301 -0.8199,0.0301 l -1.6388,0 c -0.24283,0 -0.50653,-0.01 -0.78983,-0.0301 z m 8.83347,0.42498 1.54758,0 0,0.57634 -1.54758,0 0,-0.57634 z m 2.15499,0 1.51752,0 0,0.57634 -1.51752,0 0,-0.57634 z m 4.15863,0.21249 c 0.0202,0.12142 0.0301,0.2631 0.0301,0.42499 0,0.16189 -0.01,0.3439 -0.0301,0.54627 l 0.69762,0 0,-0.54627 5.28224,0 0,0.42498 0.66754,0 c -0.0202,-0.14165 -0.0301,-0.28333 -0.0301,-0.42498 0,-0.16189 0.01,-0.30357 0.0301,-0.42499 l -6.6474,0 z m -15.66329,0.15135 0,0.45606 c 0.32378,-0.0202 0.70848,-0.0311 1.15367,-0.0311 l 1.82123,0 c 0.32377,0 0.71831,0.0108 1.18374,0.0311 l 0,-0.45606 c -0.36425,0.0202 -0.75879,0.031 -1.18374,0.031 l -1.88137,0 c -0.42495,0 -0.78999,-0.0108 -1.09353,-0.031 z m 16.8771,0.63748 0,0.48613 c 0.50591,-0.0202 1.04213,-0.0301 1.60873,-0.0301 l 1.21482,0 c 0.46543,0 0.95047,0.01 1.45637,0.0301 l 0,-0.48613 c -0.5059,0.0202 -0.99094,0.0311 -1.45637,0.0311 l -1.24488,0 c -0.54638,0 -1.07276,-0.0108 -1.57867,-0.0311 z m -7.52743,0.0311 1.54758,0 0,0.51519 -1.54758,0 0,-0.51519 z m 2.15499,0 1.51752,0 0,0.51519 -1.51752,0 0,-0.51519 z m -10.95739,0.12128 c 0.0202,0.30354 0.0301,0.69808 0.0301,1.18374 0,0.48566 -0.01,0.92054 -0.0301,1.30503 l 3.30867,0 c -0.0202,-0.38449 -0.031,-0.84003 -0.031,-1.36617 0,-0.52613 0.0108,-0.9 0.031,-1.1226 l -3.30867,0 z m 0.51519,0.39391 2.27728,0 0,0.30371 -2.27728,0 0,-0.30371 z m 15.63223,0.36485 c 0.0202,0.16188 0.0311,0.36357 0.0311,0.6064 0,0.24283 -0.0108,0.47603 -0.0311,0.69862 l 1.15367,0 c -0.18213,0.10118 -0.37398,0.17202 -0.57634,0.21249 0.16189,0.20237 0.2829,0.43455 0.36384,0.69762 l -0.81889,0 c -0.48566,0 -0.95105,-0.01 -1.39624,-0.0301 l 0,0.51619 c 0.44519,-0.0202 0.91058,-0.0301 1.39624,-0.0301 l 4.27991,0 c 0.44519,0 0.93024,0.01 1.45638,0.0301 l 0,-0.51619 c -0.52614,0.0202 -1.02202,0.0301 -1.48745,0.0301 l -0.78883,0 c 0.2226,-0.38448 0.38395,-0.60684 0.48513,-0.66755 -0.24283,-0.10118 -0.44452,-0.18185 -0.60641,-0.24256 l 1.18375,0 c -0.0202,-0.20236 -0.0301,-0.41488 -0.0301,-0.63747 0,-0.24284 0.01,-0.46519 0.0301,-0.66755 l -4.64476,0 z m -15.63223,0.3037 2.27728,0 0,0.3027 -2.27728,0 0,-0.3027 z m 16.30077,0.12128 3.30867,0 0,0.45506 -3.30867,0 0,-0.45506 z m 25.405858,0.33377 c -0.18212,0.0809 -0.37397,0.15179 -0.576332,0.2125 0.161892,0.2833 0.313402,0.6375 0.455052,1.06246 0.20236,-0.10118 0.39421,-0.17202 0.57634,-0.21249 -0.14165,-0.34401 -0.29317,-0.69822 -0.45506,-1.06247 z m -41.706628,0.2125 2.27728,0 0,0.36384 -2.27728,0 0,-0.36384 z m 10.4422,0 0.94118,0 c -0.18212,0.12141 -0.31397,0.19225 -0.39491,0.21249 0.0809,0.10118 0.18228,0.24286 0.3037,0.42498 -0.32377,0.0405 -0.60714,0.0601 -0.84997,0.0601 l 0,-0.69761 z m 6.43491,0.33377 2.12492,0 c -0.081,0.18212 -0.16162,0.34448 -0.24256,0.48613 -0.0607,0.12141 -0.15222,0.26209 -0.27364,0.42398 l -1.24488,0 c -0.14165,-0.36425 -0.26266,-0.66728 -0.36384,-0.91011 z m -14.78225,0.45505 -0.36385,0.36485 c 0.1619,0.14165 0.46492,0.45452 0.91011,0.94018 0.14165,-0.18212 0.28334,-0.31297 0.42499,-0.39391 -0.12141,-0.12142 -0.44512,-0.42545 -0.97125,-0.91112 z m -1.85129,0.031 c -0.28331,0.30354 -0.64835,0.60658 -1.09354,0.91011 0.12142,0.10118 0.2336,0.23303 0.33478,0.39492 0.26306,-0.2226 0.65761,-0.51679 1.18374,-0.88104 -0.14165,-0.16189 -0.28333,-0.30257 -0.42498,-0.42399 z"
     id="path4148-4"
     inkscape:connector-curvature="0" />
  <path
     style="font-style:normal;font-variant:normal;font-weight:normal;font-stretch:normal;font-size:medium;line-height:125%;font-family:Arial;-inkscape-font-specification:'Arial, Normal';text-align:start;letter-spacing:0px;word-spacing:0px;writing-mode:lr-tb;text-anchor:start;fill:#ffcc00;fill-opacity:1;stroke:none;stroke-width:1px;stroke-linecap:butt;stroke-linejoin:miter;stroke-opacity:1"
     d="M 16.855469 195.85938 C 16.71068 196.15204 16.463343 196.45448 16.115234 196.76562 C 15.767125 197.07677 15.359703 197.34182 14.894531 197.56055 L 14.894531 198.36523 C 15.153303 198.26974 15.446067 198.12459 15.769531 197.93359 C 16.096076 197.74259 16.358354 197.55232 16.558594 197.36133 L 16.558594 202.66211 L 17.390625 202.66211 L 17.390625 195.85938 L 16.855469 195.85938 z M 21.775391 195.85938 C 21.131543 195.85938 20.618323 196.02749 20.236328 196.36328 C 19.854334 196.69599 19.634705 197.18067 19.576172 197.81836 L 20.431641 197.90625 C 20.434721 197.48113 20.556588 197.14849 20.796875 196.9082 C 21.037163 196.66792 21.357334 196.54883 21.757812 196.54883 C 22.136728 196.54883 22.443608 196.66266 22.677734 196.89062 C 22.914941 197.11551 23.033203 197.39303 23.033203 197.72266 C 23.033203 198.03688 22.903302 198.37034 22.644531 198.72461 C 22.38576 199.0758 21.888609 199.55245 21.152344 200.15625 C 20.67793 200.5444 20.313157 200.88785 20.060547 201.18359 C 19.811018 201.47933 19.629607 201.779 19.515625 202.08398 C 19.444798 202.26882 19.413789 202.46187 19.419922 202.66211 L 23.896484 202.66211 L 23.896484 201.86328 L 20.574219 201.86328 C 20.666637 201.71233 20.784073 201.56193 20.925781 201.41406 C 21.067489 201.26311 21.38766 200.97755 21.886719 200.55859 C 22.484357 200.05337 22.910325 199.65677 23.166016 199.36719 C 23.424786 199.07761 23.609801 198.80092 23.720703 198.53906 C 23.831605 198.27721 23.886719 198.01133 23.886719 197.74023 C 23.886719 197.20729 23.697274 196.76082 23.318359 196.40039 C 22.939445 196.03996 22.425399 195.85938 21.775391 195.85938 z M 7.5703125 195.88672 L 10.181641 199.79297 L 10.181641 202.66211 L 11.078125 202.66211 L 11.078125 199.79297 L 13.78125 195.88672 L 12.738281 195.88672 L 11.425781 197.87891 C 11.136204 198.32251 10.888867 198.72191 10.685547 199.07617 C 10.472985 198.69418 10.244496 198.31168 9.9980469 197.92969 L 8.6621094 195.88672 L 7.5703125 195.88672 z "
     id="path4145" />
  <path
     style="font-style:normal;font-variant:normal;font-weight:normal;font-stretch:normal;font-size:medium;line-height:125%;font-family:Arial;-inkscape-font-specification:'Arial, Normal';text-align:start;letter-spacing:0px;word-spacing:0px;writing-mode:lr-tb;text-anchor:start;fill:#008000;fill-opacity:1;stroke:none;stroke-width:1px;stroke-linecap:butt;stroke-linejoin:miter;stroke-opacity:1"
     d="M 56.548828 195.76758 C 55.593839 195.76758 54.814737 196.08692 54.210938 196.72461 C 53.607138 197.35922 53.304688 198.23886 53.304688 199.36328 C 53.304687 199.95784 53.434588 200.51979 53.693359 201.05273 C 53.952131 201.58567 54.331846 202.00639 54.833984 202.31445 C 55.336124 202.62252 55.905283 202.77734 56.542969 202.77734 C 57.131365 202.77734 57.681153 202.63859 58.189453 202.36133 C 58.697754 202.08099 59.089933 201.66914 59.367188 201.12695 C 59.644442 200.58477 59.783203 199.97018 59.783203 199.2832 C 59.783203 198.60546 59.649698 198.00169 59.384766 197.46875 C 59.122914 196.93272 58.742374 196.51366 58.240234 196.21484 C 57.738095 195.91602 57.174191 195.76758 56.548828 195.76758 z M 27.46875 195.77148 C 27.01282 195.77148 26.599316 195.84987 26.226562 196.00391 C 25.853808 196.15793 25.569078 196.38282 25.375 196.68164 C 25.180921 196.97738 25.083984 197.29673 25.083984 197.63867 C 25.083984 197.94981 25.163201 198.23176 25.320312 198.48438 C 25.480504 198.7339 25.721458 198.94385 26.044922 199.11328 C 26.294451 199.24575 26.731232 199.38616 27.353516 199.53711 C 27.975798 199.68498 28.376838 199.79438 28.558594 199.86523 C 28.84201 199.97305 29.046698 200.10738 29.169922 200.26758 C 29.293147 200.42469 29.353516 200.60971 29.353516 200.82227 C 29.353516 201.03175 29.289542 201.22562 29.160156 201.4043 C 29.033852 201.5799 28.839977 201.71865 28.578125 201.82031 C 28.316274 201.92197 28.013822 201.97266 27.671875 201.97266 C 27.286798 201.97266 26.940873 201.90786 26.632812 201.77539 C 26.324752 201.63984 26.097088 201.46369 25.949219 201.24805 C 25.804429 201.02933 25.711922 200.75098 25.671875 200.41211 L 24.826172 200.48438 C 24.838495 200.93723 24.961187 201.34465 25.195312 201.70508 C 25.432519 202.06243 25.75712 202.33109 26.169922 202.50977 C 26.585804 202.68845 27.099849 202.77734 27.712891 202.77734 C 28.196546 202.77734 28.632502 202.68927 29.017578 202.51367 C 29.405735 202.335 29.701802 202.08683 29.908203 201.76953 C 30.114604 201.44914 30.21875 201.10847 30.21875 200.74805 C 30.21875 200.38453 30.123464 200.06436 29.935547 199.78711 C 29.74763 199.50677 29.456818 199.2755 29.0625 199.09375 C 28.791407 198.97052 28.290651 198.82734 27.560547 198.66406 C 26.833523 198.49771 26.385405 198.33679 26.212891 198.17969 C 26.037296 198.02257 25.949219 197.82149 25.949219 197.57812 C 25.949219 197.29779 26.071911 197.06044 26.318359 196.86328 C 26.567889 196.66304 26.963672 196.5625 27.505859 196.5625 C 28.026482 196.5625 28.418662 196.67191 28.683594 196.89062 C 28.95161 197.10935 29.110043 197.43313 29.15625 197.86133 L 30.015625 197.79688 C 30.000222 197.39947 29.888041 197.04274 29.681641 196.72852 C 29.475239 196.4143 29.179998 196.17777 28.794922 196.01758 C 28.412927 195.8543 27.970889 195.77148 27.46875 195.77148 z M 30.943359 195.88672 L 30.943359 196.6875 L 33.175781 196.6875 L 33.175781 202.66211 L 34.072266 202.66211 L 34.072266 196.6875 L 36.3125 196.6875 L 36.3125 195.88672 L 30.943359 195.88672 z M 37.289062 195.88672 L 37.289062 199.80078 C 37.289063 200.51856 37.374361 201.08607 37.546875 201.50195 C 37.719389 201.91476 38.008549 202.2305 38.412109 202.44922 C 38.815669 202.66795 39.334145 202.77734 39.96875 202.77734 C 40.621839 202.77734 41.148349 202.65188 41.548828 202.40234 C 41.952387 202.14974 42.230735 201.82431 42.384766 201.42383 C 42.538796 201.02335 42.615234 200.48159 42.615234 199.80078 L 42.615234 195.88672 L 41.71875 195.88672 L 41.71875 199.79688 C 41.71875 200.64712 41.579163 201.22071 41.298828 201.51953 C 41.018493 201.81835 40.549875 201.96875 39.890625 201.96875 C 39.505549 201.96875 39.17817 201.89314 38.910156 201.74219 C 38.645224 201.59124 38.456605 201.37687 38.345703 201.09961 C 38.237882 200.81928 38.185547 200.38527 38.185547 199.79688 L 38.185547 195.88672 L 37.289062 195.88672 z M 44.113281 195.88672 L 44.113281 202.66211 L 46.558594 202.66211 C 46.968315 202.66211 47.330309 202.62389 47.644531 202.54688 C 47.961834 202.46986 48.231322 202.35686 48.453125 202.20898 C 48.67801 202.05804 48.884348 201.85252 49.072266 201.59375 C 49.260182 201.3319 49.413059 201.00286 49.533203 200.60547 C 49.653347 200.20807 49.714844 199.75274 49.714844 199.23828 C 49.714844 198.63448 49.623988 198.09716 49.445312 197.62891 C 49.269718 197.15757 49.003835 196.77065 48.646484 196.46875 C 48.37231 196.23462 48.0405 196.07372 47.652344 195.98438 C 47.375088 195.91971 46.97405 195.88672 46.447266 195.88672 L 44.113281 195.88672 z M 51.105469 195.88672 L 51.105469 202.66211 L 52.001953 202.66211 L 52.001953 195.88672 L 51.105469 195.88672 z M 56.552734 196.53906 C 56.999422 196.53906 57.402415 196.65289 57.759766 196.88086 C 58.120197 197.10575 58.391335 197.42509 58.576172 197.83789 C 58.764089 198.24761 58.859375 198.72787 58.859375 199.2793 C 58.859375 200.15111 58.640572 200.82441 58.203125 201.29883 C 57.768759 201.77324 57.213716 202.00977 56.539062 202.00977 C 55.876732 202.00977 55.325293 201.77684 54.884766 201.30859 C 54.44732 200.83726 54.228516 200.19332 54.228516 199.37695 C 54.228516 198.35727 54.456179 197.62968 54.912109 197.19531 C 55.37112 196.75787 55.918129 196.53906 56.552734 196.53906 z M 45.009766 196.6875 L 46.433594 196.6875 C 46.966539 196.6875 47.353462 196.73375 47.59375 196.82617 C 47.926455 196.95556 48.208407 197.2098 48.439453 197.5918 C 48.673579 197.97071 48.789062 198.51607 48.789062 199.22461 C 48.789063 199.736 48.729519 200.17082 48.609375 200.53125 C 48.492312 200.8886 48.327796 201.17416 48.115234 201.38672 C 47.964284 201.53767 47.76155 201.65511 47.505859 201.73828 C 47.253249 201.82146 46.903719 201.86328 46.457031 201.86328 L 45.009766 201.86328 L 45.009766 196.6875 z "
     id="path4151" />
</svg>
