<svg xmlns="http://www.w3.org/2000/svg" viewBox="0 0 420 198" width="420" height="198"><path style="line-height:125%;-inkscape-font-specification:FreeSerif" d="M125.197 125.557h27.32v27.62h3.965c1.044-17.536 3.34-20.042 18.79-20.042h92.696c15.45 0 18.163 2.714 18.79 20.043h3.964v-27.62h29.13v-13.71h-29.13V99.682h29.13v-13.71h-29.13V83.45c0-40.503-22.548-50.526-37.58-50.526-27.14 0-32.986 27.35-35.073 35.7-1.88-7.307-6.056-28.598-30.065-28.598-21.413 0-33.368 15.584-35.23 45.947h-27.578v13.71h27.32v12.164h-27.32v13.71zm35.043-18.308v-9.19c0-24.008 10.023-36.74 28.604-36.74 16.285 0 25.467 11.066 25.467 30.69v19.83h-47.807c-4.384 0-6.263-1.46-6.263-4.59zm62.426 4.59c0-27.767 1.252-54.903 30.69-54.903C277.99 56.937 283 75.93 283 98.687c0 10.23-1.882 13.153-8.562 13.153h-51.772z" font-size="1121.495" font-family="FreeSerif" letter-spacing="0" word-spacing="0" fill="#f2f2f2"/><path style="line-height:125%;-inkscape-font-specification:'Arial, Normal';text-align:start" d="M380.45 10.143v9.882h1.126v-.896c.48.705 1.144 1.058 1.988 1.058.85 0 1.58-.337 2.186-1.006.607-.67.91-1.617.91-2.844 0-.517-.073-1.003-.217-1.457-.143-.453-.343-.84-.6-1.16-.25-.323-.574-.572-.97-.747-.39-.18-.808-.27-1.248-.27-.796 0-1.45.322-1.96.965v-3.525h-1.214zm7.698 0v1.394h1.215v-1.394h-1.215zm4.498.222l-1.207.727v1.773h-.89v.944h.89v4.118c0 .728.05 1.208.148 1.437.1.225.27.406.512.545.242.14.585.21 1.025.21.27 0 .574-.036.916-.108l-.175-1.073c-.22.03-.396.046-.53.046-.18 0-.32-.03-.42-.088-.093-.058-.163-.135-.208-.234-.04-.1-.06-.322-.06-.668V13.81h1.218v-.945h-1.22v-2.5zm4.752 2.338c-.373 0-.722.05-1.05.15-.324.093-.58.21-.77.35-.252.18-.45.406-.6.68-.143.27-.214.564-.214.883 0 .35.086.672.26.964.18.288.443.516.785.682.345.162.962.355 1.852.58.66.166 1.074.302 1.24.41.24.158.358.373.358.647 0 .304-.135.572-.405.802-.27.224-.682.337-1.24.337-.553 0-.985-.13-1.295-.385-.305-.256-.493-.625-.56-1.106l-1.2.19c.135.758.445 1.33.93 1.717.49.387 1.2.58 2.13.58.563 0 1.066-.097 1.51-.29.446-.198.785-.474 1.018-.83.24-.358.358-.74.358-1.145 0-.414-.096-.76-.29-1.04-.192-.278-.46-.488-.802-.632-.337-.148-.934-.337-1.793-.566-.592-.162-.95-.266-1.07-.31-.212-.086-.367-.195-.466-.325-.1-.127-.148-.268-.148-.425 0-.247.12-.462.357-.646.238-.186.636-.28 1.193-.28.472 0 .836.105 1.092.312.26.206.42.494.473.863l1.186-.162c-.076-.463-.215-.83-.418-1.106-.202-.278-.516-.498-.943-.66-.422-.162-.915-.244-1.477-.244zm-9.25.162v7.16h1.215v-7.16h-1.215zm-4.63.836c.525 0 .973.224 1.34.67.374.444.56 1.135.56 2.07 0 .912-.192 1.6-.578 2.062-.387.458-.847.687-1.377.687-.652 0-1.167-.313-1.55-.938-.233-.382-.35-1.003-.35-1.86 0-.873.193-1.537.58-1.996.386-.462.844-.695 1.375-.695z" font-family="Arial" letter-spacing="0" word-spacing="0" fill="#1a1a1a"/><path style="line-height:125%;-inkscape-font-specification:'Constantia, Normal';text-align:start" d="M339.598 22.768c-2.336 0-4.22.726-5.653 2.18-1.43 1.453-2.146 3.413-2.146 5.878 0 2.4.682 4.283 2.05 5.65 1.367 1.368 3.164 2.05 5.392 2.05 2.315 0 4.188-.742 5.62-2.227 1.442-1.498 2.163-3.504 2.163-6.023 0-2.357-.672-4.2-2.017-5.523-1.335-1.324-3.14-1.986-5.41-1.986zm17.826 0c-2.336 0-4.22.726-5.65 2.18-1.432 1.453-2.15 3.413-2.15 5.878 0 2.4.685 4.283 2.052 5.65 1.367 1.368 3.166 2.05 5.394 2.05 2.315 0 4.188-.742 5.62-2.227 1.442-1.498 2.164-3.504 2.164-6.023 0-2.357-.674-4.2-2.02-5.523-1.335-1.324-3.14-1.986-5.41-1.986zm17.828 0c-2.336 0-4.22.726-5.652 2.18-1.432 1.453-2.147 3.413-2.147 5.878 0 2.4.684 4.283 2.05 5.65 1.368 1.368 3.165 2.05 5.393 2.05 2.315 0 4.188-.742 5.62-2.227 1.442-1.498 2.164-3.504 2.164-6.023 0-2.357-.672-4.2-2.018-5.523-1.335-1.324-3.14-1.986-5.41-1.986zm17.826 0c-2.336 0-4.22.726-5.65 2.18-1.432 1.453-2.15 3.413-2.15 5.878 0 2.4.685 4.283 2.052 5.65 1.367 1.368 3.164 2.05 5.393 2.05 2.314 0 4.19-.742 5.62-2.227 1.443-1.498 2.163-3.504 2.163-6.023 0-2.357-.672-4.2-2.018-5.523-1.335-1.324-3.138-1.986-5.41-1.986zm-65.93.162c-2.163.387-4.328.743-6.492 1.066l.08.678 3.31.322c.044 1.67.065 3.584.065 5.748v2.682c0 1.066-.008 2.034-.03 2.906-.01.27-.156.442-.435.518l-2.633.66.064.646c1.98-.032 3.5-.05 4.555-.05 1.056 0 2.578.018 4.57.05l-.048-.646-2.568-.66c-.29-.076-.442-.27-.453-.582-.02-.872-.03-2.02-.03-3.44v-3.94c0-2.002.064-3.946.193-5.83l-.145-.128zm12.174 1.066c1.454 0 2.564.558 3.328 1.678.765 1.11 1.147 2.763 1.147 4.96 0 2.238-.35 3.9-1.05 4.987-.7 1.088-1.783 1.632-3.247 1.632-1.443 0-2.55-.608-3.326-1.824-.764-1.217-1.147-2.89-1.147-5.022 0-2.142.345-3.747 1.034-4.812.69-1.066 1.777-1.598 3.262-1.598zm17.828 0c1.454 0 2.562.558 3.327 1.678.764 1.11 1.146 2.763 1.146 4.96 0 2.238-.35 3.9-1.05 4.987-.7 1.088-1.78 1.632-3.245 1.632-1.442 0-2.55-.608-3.326-1.824-.764-1.217-1.147-2.89-1.147-5.022 0-2.142.345-3.747 1.034-4.812.688-1.066 1.775-1.598 3.26-1.598zm17.827 0c1.453 0 2.56.558 3.326 1.678.764 1.11 1.146 2.763 1.146 4.96 0 2.238-.35 3.9-1.05 4.987-.7 1.088-1.782 1.632-3.246 1.632-1.442 0-2.55-.608-3.326-1.824-.764-1.217-1.146-2.89-1.146-5.022 0-2.142.344-3.747 1.033-4.812.69-1.066 1.776-1.598 3.262-1.598zm17.828 0c1.453 0 2.562.558 3.326 1.678.765 1.11 1.147 2.763 1.147 4.96 0 2.238-.35 3.9-1.048 4.987-.7 1.088-1.784 1.632-3.248 1.632-1.442 0-2.55-.608-3.326-1.824-.764-1.217-1.146-2.89-1.146-5.022 0-2.142.344-3.747 1.033-4.812.69-1.066 1.776-1.598 3.262-1.598z" font-family="Constantia" letter-spacing="0" word-spacing="0" fill="#ff7f2a"/><path style="line-height:125%;-inkscape-font-specification:'FangSong, Normal';text-align:start" d="M29.26 37.363q1.573 1.572 2.99 3.144l-.945 1.258 4.56-.315q.786-2.2 1.1-3.46.315-1.256.158-2.2l-8.648.786q.157 1.1-.472 1.415l-1.572-2.2q.473-.314.316-2.358 0-2.2-.315-3.93l.316-.315 1.415 1.572 11.164-.944.786-1.1 1.887 1.414-.944 1.1-.786 3.145 1.258 1.1-3.774.315 1.73 1.73q-.47.157-1.257 1.258-.63 1.1-1.258 2.672 10.22-.628 10.377-.943l2.36 1.73q-3.46 0-15.41.63-11.95.785-13.993 1.1l-1.887-1.888q2.515.157 12.263-.315-.943-2.2-1.886-3.93l.47-.472zm5.66-19.81q6.762-.473 6.92-.944l2.043 1.728q-2.673 0-9.12.786-6.288.63-7.074.944l-2.045-1.887q2.2.158 7.86-.47v-2.674q-8.017.63-9.118.944L22.5 14.093q2.516.314 11.006-.472v-1.885q0-2.36-1.1-3.617l.63-.47 2.672 1.885q-.944.472-.787 2.044v1.887q8.334-.63 9.12-1.258l1.887 2.044q-2.673-.314-11.006.63v2.672zm12.894 1.57l2.516 1.888q-1.1.315-5.19 5.347l-.628-.315 2.36-3.773-25.158 1.886q-.47 2.358-2.044 4.56l-.943-2.517q2.2-1.73 2.516-6.604h.786l-.158 3.144 24.84-2.043 1.102-1.573zm-8.49 12.265l-11.006.943.157 2.674 10.377-.786.472-2.83zm4.56-4.717q-2.516-.156-6.29.316-3.616.314-7.547.786-3.93.314-4.402.47l-1.887-1.728q2.516 0 10.22-.63 7.86-.628 7.704-.942l2.2 1.73zM39.93 51.998q-.63.472-1.572 2.516 7.547-.786 9.59-1.415l2.202 1.73q-4.088.156-12.107.942l-1.572 3.93 4.403-.47.944-1.102 1.886 1.73-1.257.943-1.1 6.446 1.57 1.1-8.96.943v2.988l10.848-1.1 1.1-1.415 1.887 2.044-1.1 1.1q-1.414 7.39-2.358 10.22-.786 2.83-1.415 3.458-1.415-2.044-4.874-5.345l.472-.472 4.088 2.83q1.415-3.615 2.358-11.005l-11.005.944v3.93l4.088-.63-1.73-2.044.472-.63q1.887 1.574 4.245 3.618-.157 1.572-.628 2.987-1.1-1.414-1.887-2.986-4.56 1.1-10.85 2.987l-2.043-1.886q2.36-.157 6.918-1.1v-4.088l-9.276 1.1v7.862q0 3.616-.63 3.773l-1.57-2.672q.785-1.258.785-4.088t-.158-4.402q0-1.73-.787-4.245l.787-.157 1.415 2.515 9.433-.942V69.45l-5.503.787q.158 2.673-.63 2.044l-1.414-2.358q.472-1.258.315-2.83 0-1.572-.157-3.302 0-1.886-.786-4.56l.472-.314 1.415 1.887 3.617-.314-1.257-1.416q.314-1.1.314-2.516-6.918.472-9.59.786l-2.045-1.415q5.502-.158 11.634-.63 0-2.673-1.1-4.717l.47-.47 2.674 2.043q-.472.47-.472 2.987l6.132-.472q.943-3.458.472-5.187l.786-.157 2.044 2.672zm-5.975 12.107q2.83-.315 4.403-.63l1.572 1.416q-1.73 0-5.975.473v2.673l5.818-.63 1.257-6.917-7.075.785v2.83zm-3.46-3.774l4.875-.47 1.1-3.93-5.974.47v3.93zm-3.772 4.56q1.73-.156 5.817-.628v-2.83l-5.974.786.157 2.673zm5.817 3.303V65.52q-1.73.157-4.402.786l-1.415-1.1.314 3.616 5.503-.63zM32.496 128.22l.943 1.1q3.773-2.674 6.288-5.818-1.572-1.572-3.46-3.302-1.257 2.36-2.357 3.774l-.47-.315q2.2-4.246 3.458-8.806 1.415-4.56.63-5.974l.47-.315 2.202 2.044q-.63.47-.943 1.414-.158.787-1.1 3.93 8.017-1.257 8.96-1.728l1.73 1.73q-1.415 0-5.03.628l1.1 1.572q-.63.63-1.1 1.415-.315.787-2.202 3.932 3.302 3.144 4.402 3.616t2.044.63h2.36l.157.785-5.66.944q.157-.944-4.088-5.032-2.202 2.673-7.076 5.503v1.573l8.333-.786.786-1.1 1.886 1.415-.944.942q-.472 2.36-1.1 5.346-.63 2.83-1.416 4.717-2.358-2.988-4.402-5.346l.315-.473 3.616 2.516q.785-3.145 1.257-6.446l-8.333.63v11.476q0 1.258-.472 1.415l-1.572-2.515q.786-.315.63-2.36v-7.86l-7.548.786v6.76q.157 1.257-.472 1.257l-1.572-2.83q.63-.47.63-2.2v-3.303q0-1.415-.16-3.144l.316-.157 1.1 2.044 7.705-.63q.156-1.886-.16-3.144l.316-.314zm-1.887-1.888q.785-.943 1.257-6.76l-4.717.47v9.906l-.472.157-1.572-2.515q.63-.63.63-1.258v-6.29l-4.875.473v6.446q1.573-1.886 2.202-3.458.786-1.572.63-2.2l.47-.158 1.26 1.73q-.63.47-1.574 1.73-.943 1.1-2.83 3.143l-.157 2.516q0 .63-.313.63l-1.73-2.36q.472-.63.472-1.258v-6.918q0-1.572-.473-3.144l.786-.157.944 2.044 5.188-.472v-6.604q0-1.415-.63-2.83l.316-.314 2.202 1.887q-.472.47-.472 2.358v5.346l4.717-.47.786-1.416L34.225 118l-.786 1.1q-.787 8.018-1.416 8.962l-1.415-1.73zm6.13-6.76l.63-.158q.47.63 2.987 3.145 2.516-3.775 2.83-5.976l-5.66 1.1-.786 1.887zm-3.458-7.076q-.63.315-1.415 1.258l-3.145 3.93-.47-.47q1.414-2.045 2.357-4.09 1.1-2.043.628-2.83l.63-.156 1.414 2.358zm-13.05-.786q1.73 1.572 3.773 3.302-.314.943-.943 2.515-1.1-2.358-3.144-5.503l.314-.314zm7.704 9.434q1.572 1.1 2.987 2.2l-.628 2.202q-1.258-2.2-2.673-4.088l.314-.314z" font-family="FangSong" letter-spacing="0" word-spacing="0" fill="#00f"/><path style="line-height:125%;-inkscape-font-specification:'Constantia, Normal';text-align:start" d="M46.258 147.37c-3.386 0-6.116 1.055-8.192 3.16-2.075 2.108-3.113 4.95-3.113 8.523 0 3.48.99 6.21 2.973 8.19 1.982 1.983 4.588 2.974 7.818 2.974 3.355 0 6.07-1.077 8.145-3.23 2.09-2.17 3.135-5.08 3.135-8.73 0-3.42-.975-6.088-2.925-8.007-1.935-1.92-4.55-2.88-7.842-2.88zm25.842 0c-3.387 0-6.116 1.055-8.192 3.16-2.075 2.108-3.113 4.95-3.113 8.523 0 3.48.99 6.21 2.973 8.19 1.98 1.983 4.588 2.974 7.818 2.974 3.355 0 6.07-1.077 8.144-3.23 2.092-2.17 3.137-5.08 3.137-8.73 0-3.42-.975-6.088-2.926-8.007-1.934-1.92-4.548-2.88-7.84-2.88zm25.84 0c-3.385 0-6.115 1.055-8.19 3.16-2.075 2.108-3.113 4.95-3.113 8.523 0 3.48.99 6.21 2.972 8.19 1.98 1.983 4.588 2.974 7.818 2.974 3.355 0 6.07-1.077 8.144-3.23 2.09-2.17 3.137-5.08 3.137-8.73 0-3.42-.976-6.088-2.927-8.007-1.935-1.92-4.55-2.88-7.842-2.88zm25.843 0c-3.386 0-6.116 1.055-8.19 3.16-2.077 2.108-3.114 4.95-3.114 8.523 0 3.48.99 6.21 2.97 8.19 1.983 1.983 4.59 2.974 7.82 2.974 3.355 0 6.07-1.077 8.144-3.23 2.09-2.17 3.137-5.08 3.137-8.73 0-3.42-.974-6.088-2.925-8.007-1.935-1.92-4.55-2.88-7.842-2.88zm-95.572.235c-3.136.562-6.27 1.077-9.407 1.545l.117.985 4.797.467c.062 2.418.094 5.197.094 8.334v3.884c0 1.545-.015 2.95-.046 4.213-.016.39-.225.64-.63.75l-3.818.96.094.937c2.87-.047 5.072-.07 6.602-.07 1.53 0 3.736.023 6.623.07l-.07-.938-3.72-.96c-.423-.108-.642-.39-.657-.843-.032-1.265-.047-2.925-.047-4.985v-5.71c0-2.903.095-5.72.282-8.452l-.21-.188zm17.65 1.545c2.108 0 3.716.813 4.824 2.436 1.108 1.607 1.66 4.002 1.66 7.185 0 3.247-.507 5.658-1.522 7.234-1.014 1.576-2.58 2.365-4.703 2.365-2.092 0-3.7-.884-4.823-2.647-1.108-1.764-1.662-4.19-1.662-7.28 0-3.105.5-5.43 1.498-6.974 1-1.546 2.575-2.32 4.728-2.32zm25.843 0c2.107 0 3.712.813 4.82 2.436 1.108 1.607 1.663 4.002 1.663 7.185 0 3.247-.508 5.658-1.522 7.234-1.014 1.576-2.583 2.365-4.705 2.365-2.092 0-3.698-.884-4.82-2.647-1.11-1.764-1.663-4.19-1.663-7.28 0-3.105.5-5.43 1.498-6.974.998-1.546 2.575-2.32 4.728-2.32zm25.842 0c2.107 0 3.712.813 4.82 2.436 1.108 1.607 1.662 4.002 1.662 7.185 0 3.247-.507 5.658-1.52 7.234-1.015 1.576-2.584 2.365-4.706 2.365-2.09 0-3.696-.884-4.82-2.647-1.107-1.764-1.662-4.19-1.662-7.28 0-3.105.5-5.43 1.498-6.974 1-1.546 2.575-2.32 4.73-2.32zm25.84 0c2.106 0 3.714.813 4.822 2.436 1.108 1.607 1.662 4.002 1.662 7.185 0 3.247-.508 5.658-1.522 7.234-1.015 1.576-2.583 2.365-4.705 2.365-2.09 0-3.7-.884-4.823-2.647-1.108-1.764-1.66-4.19-1.66-7.28 0-3.105.5-5.43 1.498-6.974 1-1.546 2.573-2.32 4.727-2.32z" font-family="Constantia" letter-spacing="0" word-spacing="0" fill="red"/><path style="line-height:125%;-inkscape-font-specification:'Constantia, Normal';text-align:start" d="M127.27 174.086c-1.417 0-2.525.41-3.327 1.226-.797.814-1.197 1.922-1.197 3.323 0 1.344.37 2.41 1.11 3.2.746.784 1.796 1.177 3.152 1.177 1.43 0 2.54-.426 3.334-1.276.797-.854 1.195-1.98 1.195-3.38 0-1.32-.372-2.36-1.117-3.122-.74-.765-1.79-1.148-3.15-1.148zm-38.245.06c-.906 0-1.635.2-2.185.602-.547.4-.82.97-.82 1.7 0 .366.065.685.195.96.13.27.3.5.515.692.22.186.462.35.73.492.266.14.542.273.825.394.25.114.494.23.73.346.233.113.442.24.624.383.185.142.333.31.442.51.11.194.164.42.164.68 0 .493-.17.875-.51 1.142-.336.267-.805.4-1.408.4-.45 0-.89-.086-1.318-.256l-.426-1.723-.272.043-.298 2.064.037.05c.782.218 1.494.327 2.138.327 1 0 1.78-.212 2.343-.637.568-.425.85-1.04.85-1.846 0-.34-.063-.636-.192-.89-.126-.256-.296-.475-.51-.657-.21-.182-.448-.34-.71-.475-.264-.137-.536-.267-.816-.388-.255-.114-.5-.23-.74-.346-.24-.116-.452-.25-.642-.4-.187-.15-.336-.323-.45-.52-.11-.2-.164-.43-.164-.694 0-.462.157-.82.473-1.08.32-.26.746-.39 1.28-.39.356 0 .747.072 1.172.214l.395 1.512.242-.043.358-1.896-.043-.043c-.7-.15-1.37-.224-2.01-.224zm23.99.104c-.398 0-.785.01-1.16.03-.378.02-.77.03-1.173.03-.494 0-1.002-.007-1.524-.023l.012.262.754.235c.093.033.14.102.144.207.004.134.006.283.006.45.004.165.008.352.008.558v4.924c0 .243-.004.465-.008.668 0 .198-.002.377-.006.54-.004.092-.058.156-.164.188l-.746.225.026.26c.514-.012 1.016-.018 1.505-.018.372 0 .71.006 1.02.018.307.012.657.02 1.05.02 1.43 0 2.537-.415 3.326-1.24.793-.83 1.19-1.994 1.19-3.49 0-1.272-.357-2.23-1.07-2.872-.71-.648-1.776-.973-3.192-.973zm-45.12.037l.013.262.553.17c.16.043.285.12.378.23.097.11.22.286.37.532l2.138 3.706v1.716c0 .243-.002.466-.006.668 0 .2-.002.38-.006.54-.008.098-.063.16-.164.19l-.815.243.026.26c.56-.012 1.083-.018 1.573-.018.478 0 1 .006 1.567.018l-.012-.26-.754-.232c-.138-.037-.21-.104-.213-.206l-.01-.54v-2.508l2.1-3.748c.082-.14.16-.26.237-.357.08-.097.194-.168.34-.213l.613-.193-.023-.263c-.417.016-.848.024-1.29.024-.457 0-.904-.007-1.34-.023l.013.28.545.146c.178.048.267.134.267.26 0 .09-.035.202-.103.34-.07.137-.154.303-.255.498l-1.403 2.655-1.603-2.787c-.094-.162-.173-.305-.237-.426-.06-.126-.092-.23-.092-.315 0-.056.02-.104.055-.14.037-.04.1-.072.184-.092l.57-.156-.026-.263c-.583.016-1.147.024-1.693.024-.627 0-1.125-.007-1.494-.023zm23.966 0l-.042.05.16 2.173.24-.043.542-1.615h2.142v6.058c0 .478-.003.87-.01 1.178-.005.097-.058.16-.16.19l-.898.267.025.26c.602-.012 1.152-.018 1.65-.018.48 0 1.036.006 1.664.018l-.012-.26-.898-.268c-.1-.028-.154-.092-.16-.19-.007-.307-.012-.7-.012-1.177v-6.058h2.144l.39 1.658.24-.043.384-2.13-.037-.05c-1.008.016-1.965.024-2.87.024H94.72c-.91 0-1.863-.007-2.86-.023zm7.833 0l.012.262.754.235c.092.033.14.102.144.207.004.134.005.283.005.45.003.165.007.352.007.558v3.484c0 1.207.27 2.097.813 2.672.542.57 1.382.856 2.52.856 1.16 0 2.012-.318 2.55-.953.542-.637.813-1.62.813-2.947v-3.673l.01-.448c.005-.105.055-.174.148-.207l.766-.236-.025-.263c-.505.016-.934.024-1.286.024-.37 0-.808-.007-1.322-.023l.01.28.712.206c.1.033.152.095.156.188.01.143.014.298.014.468.004.166.006.348.006.547v3.394c0 1.08-.186 1.85-.56 2.312-.37.46-.974.693-1.803.693-.818 0-1.41-.223-1.778-.668-.37-.45-.553-1.253-.553-2.41v-3.869l.01-.467c.01-.1.062-.162.16-.187l.752-.224-.025-.263c-.518.016-1.02.024-1.506.024-.482 0-.984-.007-1.507-.023zm18.815 0l.013.262.753.235c.094.033.143.102.147.207.004.134.006.283.006.45.004.165.006.352.006.558v4.924c0 .243-.002.465-.006.668 0 .198-.002.377-.006.54-.008.096-.063.16-.164.188l-.748.225.025.26c.514-.012 1.016-.018 1.506-.018.48 0 .983.006 1.505.018l-.014-.26-.684-.213c-.138-.036-.21-.106-.213-.207l-.012-.54v-6.157l.013-.467c.008-.1.06-.162.158-.187l.755-.224-.025-.263c-.52.016-1.02.024-1.506.024-.482 0-.984-.007-1.506-.023zm8.543.29c1.073 0 1.868.346 2.382 1.034.514.69.77 1.67.77 2.95 0 1.365-.244 2.367-.73 3.006-.48.636-1.23.954-2.245.954-1.033 0-1.816-.35-2.35-1.05-.534-.706-.8-1.717-.8-3.036 0-1.296.235-2.26.704-2.897.475-.64 1.23-.96 2.27-.96zm-14.425.19c1.15 0 1.99.305 2.52.917.53.607.794 1.54.794 2.804 0 1.3-.28 2.265-.838 2.897-.56.627-1.37.94-2.44.94-.23 0-.463-.004-.693-.012-.228-.013-.46-.035-.7-.067v-7.424c.28-.02.53-.035.748-.043.222-.01.425-.014.607-.014zm-30.32 2.253c-.76 0-1.52.257-2.278.77l.23.4c.47-.25.936-.376 1.397-.376.393 0 .725.11.996.33.272.217.407.513.407.885 0 .18-.03.355-.09.52-.06.167-.15.33-.268.493-.114.158-.257.317-.427.478-.17.163-.365.335-.587.513-.223.182-.486.378-.79.588-.303.212-.646.44-1.027.687l.042.498c.704-.012 1.475-.018 2.313-.018.902 0 1.768.006 2.593.018l.043-.043.122-1.948-.267.05-.473 1h-3.017l-.008-.03c.49-.29.926-.567 1.306-.826.38-.263.702-.523.965-.778s.464-.514.602-.777c.137-.267.207-.554.207-.86 0-.495-.192-.88-.572-1.155-.377-.28-.85-.418-1.42-.418zm-4.123.06c-.814.146-1.626.28-2.44.4l.03.256 1.244.12c.016.63.025 1.348.025 2.162v1.007c0 .4-.003.766-.01 1.094-.005.1-.06.164-.165.192l-.99.25.023.243c.745-.012 1.317-.018 1.713-.018.398 0 .97.006 1.72.018l-.02-.243-.964-.25c-.11-.028-.166-.1-.17-.216-.008-.328-.012-.76-.012-1.295v-1.48c0-.753.024-1.483.072-2.19l-.054-.05z" font-family="Constantia" letter-spacing="0" word-spacing="0" fill="#ccc"/><path d="M395.203 167.037c-3.743-.16-7.21 2.325-8.15 6.102-1.076 4.314 1.55 8.685 5.867 9.76 4.316 1.077 8.688-1.55 9.764-5.865 1.076-4.316-1.55-8.687-5.866-9.764-.54-.133-1.08-.21-1.615-.233zm-1.86 4.48c.118-.01.244-.004.378.016.785.116 1.164.552 1.298 1.13.412-.794 1.046-1.198 2.144-.813 1.363.477 1.48 1.61 1.193 3.12l1.467.364-.22.885-1.448-.363c-.057.23-.116.462-.18.704l1.452.364-.22.883-1.47-.366-.162.63-.287 1.15-1.012-.437s.173-.65.16-.642c.062-.25-.102-.362-.21-.406l-2.317-.578.024-.094c-.014.036-.024.07-.03.094l-1.656-.414c-.188-.01-.424.054-.514.412-.01-.014-.158.643-.158.643l-.945-.234.304-1.22h.005c.045-.183.088-.37.132-.564l-1.453-.364.22-.883 1.424.356c.054-.238.108-.478.166-.71l-1.414-.352.22-.885 1.452.364c.336-.977.82-1.725 1.654-1.79zm.01 1.747c-.745.14-.938 1.426-1.046 1.863l1.765.44c.125-.5.632-2.038-.367-2.288-.13-.033-.247-.036-.353-.016zm2.81.28c-.827.184-1.07 1.72-1.2 2.245l1.945.483c.15-.6.742-2.447-.355-2.72-.143-.036-.273-.036-.39-.01z" fill="#f7931a"/><path d="M394.695 105.992c-.632.053-1.178.23-1.64.533-.925.606-1.39 1.702-1.39 3.293 0 .542.025 1.03.073 1.457.048.428.11.818.186 1.162.073.35.154.66.242.94.088.278.17.535.236.764l10.235 2.47v-3.04l-8.297-1.978c-.082-.41-.125-.81-.125-1.203 0-.41.078-.71.234-.91.158-.196.363-.32.613-.375.252-.056.543-.06.875-.01.334.046.677.11 1.03.192l5.67 1.346v-3.037l-5.79-1.39c-.802-.195-1.52-.267-2.153-.214zm-6.146 9.322c-.517 0-.9.173-1.154.512-.25.34-.376.72-.376 1.143 0 .284.053.553.162.803.11.25.256.473.44.663.183.19.4.343.65.46.254.114.52.172.806.172.518 0 .903-.17 1.152-.51.252-.338.377-.72.377-1.142 0-.286-.052-.554-.162-.807-.11-.25-.254-.47-.437-.663-.184-.19-.4-.343-.653-.457-.25-.114-.52-.176-.806-.176zm3.364 1v3.04l10.725 2.55v-3.02l-10.726-2.57zm4.137 5.858c-.65 0-1.247.088-1.782.266-.538.176-1.002.438-1.397.783-.392.35-.7.79-.917 1.325-.217.538-.326 1.16-.326 1.867 0 .964.208 1.822.62 2.568.417.747.95 1.38 1.603 1.895.65.518 1.385.91 2.2 1.174.815.264 1.633.395 2.45.395.65 0 1.246-.085 1.783-.263.537-.178 1-.438 1.395-.786.395-.346.7-.785.918-1.314.217-.53.328-1.157.328-1.877 0-.992-.21-1.865-.623-2.62-.414-.754-.947-1.383-1.6-1.886-.652-.504-1.387-.884-2.2-1.14-.817-.258-1.635-.388-2.45-.388zm.307 3.016c.42 0 .868.057 1.336.17.47.118.902.292 1.295.523.395.233.72.518.98.856.258.34.386.735.386 1.184 0 .57-.19.965-.57 1.184-.382.215-.912.324-1.593.324-.42 0-.863-.057-1.333-.172-.468-.117-.9-.29-1.295-.522-.393-.23-.72-.515-.98-.855-.257-.34-.385-.735-.385-1.183 0-.57.19-.966.57-1.183.382-.218.912-.326 1.59-.326zm-4.1 7.044c-.19.396-.34.833-.456 1.317-.115.48-.173 1.027-.173 1.64 0 .978.177 1.865.53 2.658.354.796.837 1.475 1.447 2.03.612.56 1.326.988 2.142 1.286.816.3 1.686.447 2.61.447.61 0 1.196-.085 1.753-.255.557-.17 1.042-.444 1.458-.826.415-.38.742-.864.99-1.448.242-.584.366-1.297.366-2.14 0-.64-.06-1.19-.172-1.653-.117-.463-.252-.883-.4-1.265l-2.426.225c.12.286.225.612.306.98.08.366.122.746.122 1.14 0 .802-.212 1.355-.64 1.653-.43.3-.992.45-1.685.45-1.17 0-2.1-.297-2.794-.887-.692-.593-1.04-1.39-1.04-2.397 0-.422.044-.78.134-1.07.088-.293.185-.575.295-.847l-2.367-1.04zm-.343 9.247v3.385l-3.162-.777.49 3.162 8.442 1.998c.693.163 1.352.257 1.978.285.625.027 1.18-.07 1.66-.285.483-.22.864-.584 1.143-1.102.277-.517.416-1.244.416-2.18 0-.653-.05-1.218-.16-1.695-.11-.474-.238-.915-.388-1.323l-2.324.225c.11.313.193.62.254.926.06.306.092.623.092.95 0 .394-.055.697-.165.907-.108.212-.26.356-.458.438-.197.08-.432.116-.705.1-.27-.012-.562-.06-.875-.14l-3.752-.898v-3.365l-2.486-.61zm-3.365 7.416c-.517 0-.9.17-1.154.508-.25.34-.376.722-.376 1.143 0 .286.053.554.162.807.11.25.256.47.44.662.183.19.4.342.65.46.254.113.52.17.806.17.518 0 .903-.168 1.152-.51.252-.338.377-.72.377-1.142 0-.285-.052-.552-.162-.805-.11-.25-.254-.474-.437-.663-.184-.19-.4-.342-.653-.457-.25-.116-.52-.174-.806-.174zm3.364 1v3.036l10.725 2.548v-3.017l-10.726-2.568zm4.156 5.844c-.61 0-1.18.074-1.71.223-.53.15-.992.38-1.387.69-.394.317-.708.71-.94 1.187-.23.474-.346 1.04-.346 1.693 0 .312.034.603.102.875.068.272.162.544.284.815l-5.26-1.262.49 3.16 14.823 3.528c.19-.394.342-.814.45-1.255.108-.442.19-.86.245-1.254.053-.394.084-.745.09-1.05.006-.305.01-.522.01-.645 0-.95-.18-1.834-.54-2.648-.36-.815-.85-1.523-1.468-2.12-.62-.6-1.344-1.07-2.182-1.417-.835-.347-1.723-.52-2.662-.52zm.225 3.016c.53 0 1.042.09 1.53.265.49.178.927.42 1.316.724.388.306.698.67.928 1.094.23.42.348.87.348 1.346v.365c0 .095-.004.175-.012.245-.007.066-.017.13-.03.19-.014.063-.028.135-.042.216l-5.586-1.345c-.216-.245-.36-.52-.43-.826-.065-.306-.1-.554-.1-.745 0-.584.183-.986.55-1.203.367-.217.877-.326 1.53-.326z" fill="#4d4d4d"/><rect width="418.882" height="196.944" x=".406" y=".651" ry="3.845" fill="none" stroke="#f1f1f1" stroke-miterlimit="1"/><path d="M41.155 95.844c-.682-3.684-3.878-6.506-7.77-6.58-4.446-.084-8.12 3.454-8.202 7.902-.085 4.447 3.453 8.12 7.9 8.205 4.447.085 8.12-3.452 8.205-7.9.01-.555-.036-1.1-.133-1.626zm-4.783-.812c.035.114.058.237.07.372.06.79-.278 1.258-.81 1.517.864.226 1.4.754 1.27 1.91-.16 1.435-1.24 1.8-2.773 1.86l-.03 1.51-.91-.016.028-1.49c-.236-.005-.476-.01-.726-.02l-.03 1.496-.91-.017.028-1.514c-.213-.006-.428-.014-.65-.018l-1.184-.023.2-1.084s.674.022.662.012c.258.004.33-.18.35-.296L31 96.845l.097.002c-.04-.006-.074-.007-.1-.008l.034-1.708c-.03-.186-.147-.402-.516-.41.01-.01-.662-.01-.662-.01l.017-.973 1.258.023v.006c.19.002.383.003.58.002l.03-1.498.91.018-.03 1.467c.244 0 .49-.002.73.002l.026-1.457.912.018-.03 1.495c1.027.11 1.865.414 2.114 1.213zm-1.7.4c-.303-.694-1.6-.594-2.05-.602l-.033 1.82c.513.01 2.126.16 2.146-.87.002-.134-.02-.25-.064-.348zm.356 2.802c-.364-.764-1.917-.657-2.457-.667l-.036 2.004c.617.012 2.55.178 2.572-.953.003-.148-.026-.274-.078-.383z" fill="#f7931a"/></svg>