<?xml version="1.0" encoding="UTF-8" standalone="no"?>
<svg
   xmlns:dc="http://purl.org/dc/elements/1.1/"
   xmlns:cc="http://creativecommons.org/ns#"
   xmlns:rdf="http://www.w3.org/1999/02/22-rdf-syntax-ns#"
   xmlns:svg="http://www.w3.org/2000/svg"
   xmlns="http://www.w3.org/2000/svg"
   xmlns:sodipodi="http://sodipodi.sourceforge.net/DTD/sodipodi-0.dtd"
   xmlns:inkscape="http://www.inkscape.org/namespaces/inkscape"
   viewBox="0 0 420 198"
   id="svg2"
   version="1.1"
   inkscape:version="0.91 r13725"
   sodipodi:docname="qr32-1b.svg"
   width="420"
   height="198"
   inkscape:export-filename="C:\y12\PLAN2015\SVG\590CPW\qr32-1b.png"
   inkscape:export-xdpi="300.10901"
   inkscape:export-ydpi="300.10901">
  <metadata
     id="metadata10">
    <rdf:RDF>
      <cc:Work
         rdf:about="">
        <dc:format>image/svg+xml</dc:format>
        <dc:type
           rdf:resource="http://purl.org/dc/dcmitype/StillImage" />
        <dc:title></dc:title>
      </cc:Work>
    </rdf:RDF>
  </metadata>
  <defs
     id="defs8" />
  <sodipodi:namedview
     pagecolor="#ffffff"
     bordercolor="#666666"
     borderopacity="1"
     objecttolerance="10"
     gridtolerance="10"
     guidetolerance="10"
     inkscape:pageopacity="0"
     inkscape:pageshadow="2"
     inkscape:window-width="1747"
     inkscape:window-height="885"
     id="namedview6"
     showgrid="false"
     inkscape:zoom="3.0690476"
     inkscape:cx="268.142"
     inkscape:cy="108.55145"
     inkscape:window-x="61"
     inkscape:window-y="23"
     inkscape:window-maximized="0"
     inkscape:current-layer="svg2"
     borderlayer="true"
     inkscape:showpageshadow="false" />
  <path
     style="font-style:normal;font-variant:normal;font-weight:normal;font-stretch:normal;font-size:1121.49536133px;line-height:125%;font-family:FreeSerif;-inkscape-font-specification:FreeSerif;letter-spacing:0px;word-spacing:0px;fill:#f2f2f2;fill-opacity:1;stroke:none"
     inkscape:connector-curvature="0"
     id="path3022"
     d="m 125.19747,125.55683 27.32019,0 0,27.62083 3.96463,0 c 1.04387,-17.53701 3.3404,-20.04232 18.78967,-20.04232 l 92.69575,0 c 15.44928,0 18.16336,2.71408 18.78968,20.04232 l 3.96462,0 0,-27.62083 29.13026,0 0,-13.7102 -29.13026,0 0,-12.163176 29.13026,0 0,-13.710197 -29.13026,0 0,-2.52408 c 0,-40.50215 -22.54763,-50.52545 -37.57936,-50.52545 -27.14061,0 -32.98632,27.34943 -35.07406,35.70039 -1.87897,-7.30709 -6.05448,-28.59789 -30.06349,-28.59789 -21.41303,0 -33.36791,15.58391 -35.23064,45.94703 l -27.57699,0 0,13.710197 27.32019,0 0,12.163176 -27.32019,0 0,13.7102 z m 35.04275,-18.3074 0,-9.188156 c 0,-24.008997 10.02327,-36.740077 28.60415,-36.740077 16.28438,0 25.46628,11.06505 25.46628,30.68981 l 0,19.829363 -47.8072,0 c -4.38426,0 -6.26323,-1.45934 -6.26323,-4.59094 z m 62.42557,4.59094 c 0,-27.766933 1.25268,-54.903433 30.68981,-54.903433 24.63533,0 29.64385,18.9943 29.64385,41.750667 0,10.229916 -1.88106,13.152766 -8.56183,13.152766 l -51.77183,0 z" />
  <g
     style="font-style:normal;font-variant:normal;font-weight:normal;font-stretch:normal;font-size:1041.66662598px;line-height:125%;font-family:FreeSerif;-inkscape-font-specification:FreeSerif;letter-spacing:0px;word-spacing:0px;fill:#f2f2f2;fill-opacity:1;stroke:none"
     id="text3024"
     transform="matrix(0.20042323,0,0,0.20042323,187.38376,-6.2165024)" />
  <path
     style="font-style:normal;font-variant:normal;font-weight:normal;font-stretch:normal;font-size:medium;line-height:125%;font-family:Arial;-inkscape-font-specification:'Arial, Normal';text-align:start;letter-spacing:0px;word-spacing:0px;writing-mode:lr-tb;text-anchor:start;fill:#1a1a1a;fill-opacity:1;stroke:none;stroke-width:1px;stroke-linecap:butt;stroke-linejoin:miter;stroke-opacity:1"
     d="M 380.45117 10.142578 L 380.45117 20.025391 L 381.57617 20.025391 L 381.57617 19.128906 C 382.05708 19.834532 382.71951 20.1875 383.56445 20.1875 C 384.41391 20.1875 385.14325 19.851311 385.75 19.181641 C 386.35675 18.511971 386.66016 17.564869 386.66016 16.337891 C 386.66016 15.821031 386.58718 15.334797 386.44336 14.880859 C 386.29953 14.426922 386.09993 14.039808 385.84375 13.720703 C 385.59206 13.397104 385.26856 13.147939 384.87305 12.972656 C 384.48203 12.792879 384.06545 12.703125 383.625 12.703125 C 382.82949 12.703125 382.17643 13.025265 381.66406 13.667969 L 381.66406 10.142578 L 380.45117 10.142578 z M 388.14844 10.142578 L 388.14844 11.537109 L 389.36328 11.537109 L 389.36328 10.142578 L 388.14844 10.142578 z M 392.64648 10.365234 L 391.43945 11.091797 L 391.43945 12.865234 L 390.54883 12.865234 L 390.54883 13.808594 L 391.43945 13.808594 L 391.43945 17.927734 C 391.43945 18.655832 391.48901 19.136018 391.58789 19.365234 C 391.68677 19.589956 391.85691 19.770829 392.09961 19.910156 C 392.3423 20.049484 392.68454 20.119141 393.125 20.119141 C 393.39466 20.119141 393.69944 20.08363 394.04102 20.011719 L 393.86523 18.939453 C 393.64501 18.970913 393.46882 18.986328 393.33398 18.986328 C 393.1542 18.986328 393.0149 18.956864 392.91602 18.898438 C 392.82162 18.84001 392.75196 18.76294 392.70703 18.664062 C 392.66656 18.565185 392.64648 18.342165 392.64648 17.996094 L 392.64648 13.808594 L 393.86523 13.808594 L 393.86523 12.865234 L 392.64648 12.865234 L 392.64648 10.365234 z M 397.39844 12.703125 C 397.0254 12.703125 396.67575 12.752685 396.34766 12.851562 C 396.02406 12.945946 395.76689 13.063798 395.57812 13.203125 C 395.32644 13.382902 395.12683 13.608652 394.97852 13.882812 C 394.8347 14.152478 394.76367 14.44652 394.76367 14.765625 C 394.76367 15.11619 394.85011 15.438331 395.02539 15.730469 C 395.20516 16.018112 395.46701 16.245815 395.80859 16.412109 C 396.15467 16.573909 396.77222 16.767466 397.66211 16.992188 C 398.32279 17.158481 398.73605 17.294478 398.90234 17.402344 C 399.14055 17.559649 399.25977 17.774668 399.25977 18.048828 C 399.25977 18.354449 399.12514 18.622347 398.85547 18.851562 C 398.5858 19.076284 398.17254 19.189453 397.61523 19.189453 C 397.06242 19.189453 396.63043 19.06087 396.32031 18.804688 C 396.01469 18.548506 395.82718 18.180123 395.75977 17.699219 L 394.56055 17.888672 C 394.69538 18.64823 395.00484 19.220901 395.49023 19.607422 C 395.98013 19.993943 396.69075 20.1875 397.62109 20.1875 C 398.1829 20.1875 398.68591 20.089745 399.13086 19.896484 C 399.57581 19.69873 399.91472 19.423419 400.14844 19.068359 C 400.38664 18.708805 400.50586 18.326374 400.50586 17.921875 C 400.50586 17.508388 400.41006 17.161467 400.2168 16.882812 C 400.02354 16.604158 399.75564 16.393822 399.41406 16.25 C 399.07698 16.101684 398.47953 15.91281 397.62109 15.683594 C 397.02783 15.521797 396.67018 15.417994 396.54883 15.373047 C 396.33759 15.287652 396.18286 15.179166 396.08398 15.048828 C 395.9851 14.922984 395.93555 14.782305 395.93555 14.625 C 395.93555 14.377807 396.05476 14.162787 396.29297 13.978516 C 396.53118 13.794244 396.92902 13.701172 397.48633 13.701172 C 397.95824 13.701172 398.32194 13.804975 398.57812 14.011719 C 398.8388 14.218462 398.99685 14.506457 399.05078 14.875 L 400.23633 14.712891 C 400.15992 14.249964 400.02061 13.881582 399.81836 13.607422 C 399.61611 13.328767 399.30197 13.109065 398.875 12.947266 C 398.45252 12.785466 397.96024 12.703125 397.39844 12.703125 z M 388.14844 12.865234 L 388.14844 20.025391 L 389.36328 20.025391 L 389.36328 12.865234 L 388.14844 12.865234 z M 383.51758 13.701172 C 384.04343 13.701172 384.49084 13.924192 384.85938 14.369141 C 385.23242 14.814089 385.41797 15.504612 385.41797 16.439453 C 385.41797 17.351822 385.22636 18.039027 384.83984 18.501953 C 384.45332 18.960385 383.99323 19.189453 383.46289 19.189453 C 382.8112 19.189453 382.29609 18.876679 381.91406 18.251953 C 381.68036 17.869927 381.5625 17.249061 381.5625 16.390625 C 381.5625 15.518706 381.75606 14.854916 382.14258 14.396484 C 382.5291 13.933558 382.98724 13.701172 383.51758 13.701172 z "
     id="path4247" />
  <path
     style="font-style:normal;font-variant:normal;font-weight:normal;font-stretch:normal;font-size:medium;line-height:125%;font-family:Constantia;-inkscape-font-specification:'Constantia, Normal';text-align:start;letter-spacing:0px;word-spacing:0px;writing-mode:lr-tb;text-anchor:start;fill:#ff7f2a;fill-opacity:1;stroke:none;stroke-width:1px;stroke-linecap:butt;stroke-linejoin:miter;stroke-opacity:1"
     d="M 339.59766 22.767578 C 337.26163 22.767578 335.37707 23.493977 333.94531 24.947266 C 332.51355 26.400554 331.79883 28.360964 331.79883 30.826172 C 331.79883 33.226789 332.48244 35.109395 333.84961 36.476562 C 335.21678 37.84373 337.01381 38.527344 339.24219 38.527344 C 341.55669 38.527344 343.42957 37.784412 344.86133 36.298828 C 346.30385 34.802479 347.02539 32.796378 347.02539 30.277344 C 347.02539 27.919787 346.35345 26.078014 345.00781 24.753906 C 343.67294 23.429799 341.8691 22.767578 339.59766 22.767578 z M 357.42383 22.767578 C 355.0878 22.767578 353.2052 23.493977 351.77344 24.947266 C 350.34168 26.400554 349.625 28.360964 349.625 30.826172 C 349.625 33.226789 350.30861 35.109395 351.67578 36.476562 C 353.04295 37.84373 354.84194 38.527344 357.07031 38.527344 C 359.38481 38.527344 361.2577 37.784412 362.68945 36.298828 C 364.13198 34.802479 364.85352 32.796378 364.85352 30.277344 C 364.85352 27.919787 364.17962 26.078014 362.83398 24.753906 C 361.49911 23.429799 359.69526 22.767578 357.42383 22.767578 z M 375.25195 22.767578 C 372.91593 22.767578 371.03137 23.493977 369.59961 24.947266 C 368.16785 26.400554 367.45312 28.360964 367.45312 30.826172 C 367.45312 33.226789 368.13674 35.109395 369.50391 36.476562 C 370.87107 37.84373 372.6681 38.527344 374.89648 38.527344 C 377.21098 38.527344 379.08387 37.784412 380.51562 36.298828 C 381.95815 34.802479 382.67969 32.796378 382.67969 30.277344 C 382.67969 27.919787 382.00775 26.078014 380.66211 24.753906 C 379.32724 23.429799 377.52339 22.767578 375.25195 22.767578 z M 393.07812 22.767578 C 390.7421 22.767578 388.85949 23.493977 387.42773 24.947266 C 385.99597 26.400554 385.2793 28.360964 385.2793 30.826172 C 385.2793 33.226789 385.96291 35.109395 387.33008 36.476562 C 388.69724 37.84373 390.49428 38.527344 392.72266 38.527344 C 395.03715 38.527344 396.91199 37.784412 398.34375 36.298828 C 399.78627 34.802479 400.50586 32.796378 400.50586 30.277344 C 400.50586 27.919787 399.83391 26.078014 398.48828 24.753906 C 397.15341 23.429799 395.34957 22.767578 393.07812 22.767578 z M 327.14844 22.929688 C 324.98466 23.317231 322.82004 23.673141 320.65625 23.996094 L 320.73633 24.673828 L 324.04688 24.996094 C 324.08994 26.664684 324.11133 28.580356 324.11133 30.744141 L 324.11133 33.425781 C 324.11133 34.491527 324.10161 35.460059 324.08008 36.332031 C 324.06931 36.601159 323.92442 36.774254 323.64453 36.849609 L 321.01172 37.509766 L 321.07617 38.15625 C 323.05695 38.123957 324.57588 38.107422 325.63086 38.107422 C 326.68583 38.107422 328.20767 38.123957 330.19922 38.15625 L 330.15234 37.509766 L 327.58398 36.849609 C 327.2933 36.774254 327.14159 36.579766 327.13086 36.267578 C 327.10933 35.395605 327.09961 34.249118 327.09961 32.828125 L 327.09961 28.888672 C 327.09961 26.886363 327.16379 24.942486 327.29297 23.058594 L 327.14844 22.929688 z M 339.32227 23.996094 C 340.77556 23.996094 341.88607 24.554257 342.65039 25.673828 C 343.41471 26.782633 343.79688 28.436732 343.79688 30.632812 C 343.79687 32.871953 343.44583 34.533818 342.74609 35.621094 C 342.04637 36.708369 340.96405 37.251953 339.5 37.251953 C 338.05747 37.251953 336.94891 36.644191 336.17383 35.427734 C 335.40951 34.211278 335.02734 32.53774 335.02734 30.40625 C 335.02734 28.263995 335.37158 26.659495 336.06055 25.59375 C 336.74951 24.528005 337.83669 23.996094 339.32227 23.996094 z M 357.15039 23.996094 C 358.60368 23.996094 359.71224 24.554257 360.47656 25.673828 C 361.24088 26.782633 361.62305 28.436732 361.62305 30.632812 C 361.62305 32.871953 361.27395 34.533818 360.57422 35.621094 C 359.87449 36.708369 358.79218 37.251953 357.32812 37.251953 C 355.8856 37.251953 354.77704 36.644191 354.00195 35.427734 C 353.23763 34.211278 352.85547 32.53774 352.85547 30.40625 C 352.85547 28.263995 353.19971 26.659495 353.88867 25.59375 C 354.57764 24.528005 355.6648 23.996094 357.15039 23.996094 z M 374.97656 23.996094 C 376.42985 23.996094 377.53841 24.554257 378.30273 25.673828 C 379.06706 26.782633 379.44922 28.436732 379.44922 30.632812 C 379.44922 32.871953 379.10012 34.533818 378.40039 35.621094 C 377.70066 36.708369 376.61835 37.251953 375.1543 37.251953 C 373.71178 37.251953 372.60322 36.644191 371.82812 35.427734 C 371.0638 34.211278 370.68164 32.53774 370.68164 30.40625 C 370.68164 28.263995 371.02588 26.659495 371.71484 25.59375 C 372.40381 24.528005 373.49098 23.996094 374.97656 23.996094 z M 392.80469 23.996094 C 394.25798 23.996094 395.36654 24.554257 396.13086 25.673828 C 396.89518 26.782633 397.27734 28.436732 397.27734 30.632812 C 397.27734 32.871953 396.92824 34.533818 396.22852 35.621094 C 395.52878 36.708369 394.44648 37.251953 392.98242 37.251953 C 391.5399 37.251953 390.43134 36.644191 389.65625 35.427734 C 388.89193 34.211278 388.50977 32.53774 388.50977 30.40625 C 388.50977 28.263995 388.854 26.659495 389.54297 25.59375 C 390.23194 24.528005 391.31911 23.996094 392.80469 23.996094 z "
     id="path4230" />
  <path
     inkscape:connector-curvature="0"
     id="path4262"
     style="font-style:normal;font-variant:normal;font-weight:normal;font-stretch:normal;font-size:medium;line-height:125%;font-family:FangSong;-inkscape-font-specification:'FangSong, Normal';text-align:start;letter-spacing:0px;word-spacing:0px;writing-mode:lr-tb;text-anchor:start;fill:#0000ff;fill-opacity:1;stroke:none;stroke-width:1px;stroke-linecap:butt;stroke-linejoin:miter;stroke-opacity:1"
     d="m 29.261215,37.362563 q 1.572267,1.572269 2.987313,3.144538 l -0.943364,1.257815 4.559579,-0.314454 q 0.786134,-2.201176 1.100595,-3.458991 0.314451,-1.257816 0.15722,-2.201178 l -8.647476,0.786134 q 0.157231,1.10059 -0.471682,1.415044 l -1.572266,-2.201178 q 0.471681,-0.314453 0.314451,-2.358403 0,-2.201177 -0.314451,-3.930673 l 0.314451,-0.314453 1.415045,1.572268 11.163108,-0.943361 0.786133,-1.100588 1.886728,1.415041 -0.943364,1.100589 -0.786133,3.144538 1.257815,1.100589 -3.773446,0.314453 1.729498,1.729497 q -0.471683,0.157227 -1.257816,1.257815 -0.628912,1.100588 -1.257815,2.672857 10.219743,-0.628908 10.376973,-0.943361 l 2.358401,1.729495 q -3.458985,0 -15.408236,0.628908 -11.949239,0.786135 -13.993189,1.100589 L 18.41256,42.079369 q 2.515631,0.157227 12.263701,-0.314453 -0.943364,-2.201177 -1.886727,-3.930674 l 0.471681,-0.471679 z m 5.660174,-19.81059 q 6.760749,-0.471681 6.91798,-0.943362 l 2.043948,1.729496 q -2.672852,0 -9.119159,0.786134 -6.289076,0.628908 -7.075209,0.943361 L 25.645,18.18088 q 2.20118,0.157227 7.861343,-0.47168 l 0,-2.672858 q -8.018574,0.628907 -9.119158,0.943361 L 22.500457,14.09298 q 2.515631,0.314454 11.005886,-0.471681 l 0,-1.886722 q 0,-2.3584039 -1.100585,-3.6162189 l 0.628903,-0.4716808 2.672862,1.8867228 Q 34.764149,10.005081 34.921389,11.57735 l 0,1.886723 q 8.333025,-0.628908 9.119158,-1.257815 l 1.886718,2.043949 q -2.672851,-0.314454 -11.005876,0.628907 l 0,2.672859 z m 12.892604,1.572268 2.515631,1.886723 q -1.100594,0.314453 -5.188492,5.345714 l -0.628902,-0.314453 2.3584,-3.773445 -25.156306,1.886722 q -0.471683,2.358404 -2.043948,4.559581 l -0.943365,-2.515631 q 2.20118,-1.729496 2.51563,-6.60353 l 0.786134,0 -0.157221,3.144539 24.841845,-2.043951 1.100594,-1.572269 z m -8.490255,12.263698 -11.005886,0.943363 0.15723,2.672857 10.376974,-0.786134 0.471682,-2.830086 z m 4.559569,-4.716806 q -2.51563,-0.157227 -6.289066,0.314453 -3.616226,0.314455 -7.546892,0.786136 -3.930676,0.314453 -4.402349,0.47168 l -1.886728,-1.729496 q 2.515631,0 10.219743,-0.628908 7.861343,-0.628907 7.704113,-0.943361 l 2.201179,1.729496 z" />
  <path
     inkscape:connector-curvature="0"
     id="path4264"
     style="font-style:normal;font-variant:normal;font-weight:normal;font-stretch:normal;font-size:medium;line-height:125%;font-family:FangSong;-inkscape-font-specification:'FangSong, Normal';text-align:start;letter-spacing:0px;word-spacing:0px;writing-mode:lr-tb;text-anchor:start;fill:#0000ff;fill-opacity:1;stroke:none;stroke-width:1px;stroke-linecap:butt;stroke-linejoin:miter;stroke-opacity:1"
     d="m 39.929885,51.99843 q -0.628903,0.471682 -1.572267,2.515631 7.546892,-0.786133 9.590841,-1.415036 l 2.201179,1.729498 q -4.087907,0.15722 -12.106471,0.943354 l -1.572277,3.930676 4.402359,-0.471682 0.943363,-1.100585 1.886719,1.729498 -1.257815,0.943354 -1.100585,6.446307 1.572266,1.100584 -8.961937,0.943364 0,2.987313 10.848656,-1.100585 1.100594,-1.415046 1.886718,2.043948 -1.100585,1.100585 q -1.415046,7.389673 -2.3584,10.219763 -0.786142,2.83008 -1.415046,3.45899 -1.415046,-2.04395 -4.87403,-5.34571 l 0.471673,-0.47169 4.087906,2.83009 q 1.415036,-3.61622 2.3584,-11.005894 l -11.005886,0.943364 0,3.930676 4.087907,-0.628913 -1.729497,-2.043948 0.471681,-0.628913 q 1.886719,1.572277 4.245119,3.616226 -0.157221,1.572262 -0.628903,2.987312 -1.100585,-1.41505 -1.886727,-2.987312 -4.55958,1.100582 -10.848656,2.987312 l -2.043949,-1.88673 q 2.35841,-0.15722 6.917989,-1.100582 l 0,-4.087898 -9.276389,1.100585 0,7.861345 q 0,3.61622 -0.628912,3.77345 l -1.572267,-2.67286 q 0.786133,-1.25781 0.786133,-4.0879 0,-2.830087 -0.15722,-4.402353 0,-1.729497 -0.786134,-4.245128 l 0.786134,-0.15723 1.415035,2.51563 9.43362,-0.943354 0,-2.987313 -5.502943,0.786134 q 0.157231,2.672851 -0.628913,2.043949 l -1.415036,-2.3584 q 0.471682,-1.257816 0.314452,-2.830092 0,-1.572267 -0.157231,-3.301764 0,-1.886718 -0.786133,-4.559579 l 0.471681,-0.314452 1.415046,1.886719 3.616215,-0.314452 -1.257815,-1.415046 q 0.314452,-1.100584 0.314452,-2.51563 -6.917979,0.471682 -9.590841,0.786143 L 17.28921,55.929107 q 5.502943,-0.15723 11.634789,-0.628912 0,-2.672852 -1.100585,-4.7168 l 0.471682,-0.471683 2.672862,2.043949 q -0.471683,0.471682 -0.471683,2.987312 l 6.131846,-0.471681 q 0.943364,-3.458995 0.471682,-5.188492 l 0.786133,-0.157221 2.043949,2.672851 z M 33.95526,64.104901 q 2.830091,-0.314451 4.402358,-0.628902 l 1.572267,1.415046 q -1.729497,0 -5.974625,0.471671 l 0,2.672862 5.817395,-0.628903 1.257815,-6.917989 -7.07521,0.786133 0,2.830082 z m -3.458985,-3.773446 4.874031,-0.471671 1.100584,-3.930677 -5.974615,0.471682 0,3.930666 z m -3.773445,4.55959 q 1.729497,-0.157231 5.817394,-0.628913 l 0,-2.830082 -5.974625,0.786134 0.157231,2.672861 z m 5.817394,3.301763 0,-2.672861 q -1.729497,0.157231 -4.402358,0.786134 l -1.415036,-1.100585 0.314451,3.616215 5.502943,-0.628903 z" />
  <path
     inkscape:connector-curvature="0"
     id="path4266"
     style="font-style:normal;font-variant:normal;font-weight:normal;font-stretch:normal;font-size:medium;line-height:125%;font-family:FangSong;-inkscape-font-specification:'FangSong, Normal';text-align:start;letter-spacing:0px;word-spacing:0px;writing-mode:lr-tb;text-anchor:start;fill:#0000ff;fill-opacity:1;stroke:none;stroke-width:1px;stroke-linecap:butt;stroke-linejoin:miter;stroke-opacity:1"
     d="m 32.495747,128.21875 0.943363,1.10059 q 3.773446,-2.67286 6.289077,-5.81739 -1.572277,-1.57228 -3.458994,-3.30178 -1.257816,2.35842 -2.3584,3.77345 l -0.471683,-0.31445 q 2.20117,-4.24514 3.458985,-8.80471 1.415046,-4.55958 0.628913,-5.97463 l 0.471682,-0.31445 2.201179,2.04395 q -0.628913,0.47168 -0.943364,1.41504 -0.15723,0.78614 -1.100595,3.93069 8.018574,-1.25782 8.961939,-1.72951 l 1.729496,1.72951 q -1.415046,0 -5.031261,0.62889 l 1.100585,1.57227 q -0.628903,0.62892 -1.100585,1.41505 -0.314451,0.78614 -2.201179,3.93068 3.301764,3.14453 4.402359,3.61621 1.100585,0.47169 2.043948,0.62891 0.943364,0 2.3584,0 l 0.157231,0.78614 -5.660174,0.94335 q 0.15723,-0.94335 -4.087898,-5.03126 -2.201178,2.67286 -7.075209,5.50295 l 0,1.57226 8.333025,-0.78613 0.786134,-1.10059 1.886728,1.41505 -0.943365,0.94335 q -0.471682,2.35841 -1.100585,5.34572 -0.628912,2.83009 -1.415045,4.7168 -2.3584,-2.98731 -4.402359,-5.34571 l 0.314461,-0.47168 3.616215,2.51563 q 0.786134,-3.14453 1.257816,-6.4463 l -8.333025,0.62891 0,11.47756 q 0,1.25782 -0.471682,1.41504 l -1.572266,-2.51563 q 0.786133,-0.31445 0.628902,-2.3584 l 0,-7.86134 -7.546891,0.78613 0,6.76076 q 0.157231,1.25781 -0.471673,1.25781 l -1.572276,-2.83009 q 0.628913,-0.47167 0.628913,-2.20117 l 0,-3.30176 q 0,-1.41505 -0.157231,-3.14454 l 0.314452,-0.15723 1.100594,2.04395 7.704112,-0.62891 q 0.157231,-1.88672 -0.157221,-3.14453 l 0.314452,-0.31446 z m -1.886718,-1.88672 q 0.786133,-0.94336 1.257815,-6.76076 l -4.71681,0.47169 0,9.90529 -0.471682,0.15723 -1.572266,-2.51563 q 0.628902,-0.62892 0.628902,-1.25782 l 0,-6.28907 -4.87403,0.47168 0,6.44629 q 1.572267,-1.88671 2.201179,-3.45898 0.786134,-1.57228 0.628903,-2.20118 l 0.471682,-0.15723 1.257815,1.7295 q -0.628912,0.47168 -1.572266,1.72949 -0.943365,1.10059 -2.830092,3.14454 l -0.157221,2.51563 q 0,0.62891 -0.314452,0.62891 l -1.729497,-2.3584 q 0.471682,-0.62891 0.471682,-1.25782 l 0,-6.91798 q 0,-1.57227 -0.471682,-3.14454 l 0.786134,-0.15724 0.943363,2.04396 5.188482,-0.47169 0,-6.60353 q 0,-1.41504 -0.628902,-2.83008 l 0.314451,-0.31446 2.20118,1.88673 q -0.471683,0.47168 -0.471683,2.3584 l 0,5.34573 4.71681,-0.47168 0.786134,-1.41506 1.572266,1.41506 -0.786134,1.10058 q -0.786132,8.01857 -1.415045,8.96194 l -1.415036,-1.7295 z m 6.131846,-6.76076 0.628902,-0.15724 q 0.471683,0.62893 2.987313,3.14456 2.515631,-3.77345 2.830082,-5.97464 l -5.660164,1.10059 -0.786133,1.88673 z m -3.458995,-7.07521 q -0.628902,0.31445 -1.415036,1.25781 -0.628912,0.78613 -3.144543,3.93067 l -0.471682,-0.47167 q 1.415046,-2.04396 2.35841,-4.08791 1.100585,-2.04395 0.628903,-2.83008 l 0.628912,-0.15723 1.415036,2.35841 z m -13.049835,-0.78614 q 1.729498,1.57227 3.773446,3.30177 -0.314451,0.94337 -0.943354,2.51564 -1.100594,-2.35842 -3.144543,-5.50296 l 0.314451,-0.31445 z m 7.704122,9.43362 q 1.572267,1.10059 2.987313,2.20118 l -0.628913,2.20118 q -1.257815,-2.20118 -2.67285,-4.08791 l 0.31445,-0.31445 z" />
  <path
     style="font-style:normal;font-variant:normal;font-weight:normal;font-stretch:normal;font-size:medium;line-height:125%;font-family:Constantia;-inkscape-font-specification:'Constantia, Normal';text-align:start;letter-spacing:0px;word-spacing:0px;writing-mode:lr-tb;text-anchor:start;fill:#ff0000;fill-opacity:1;stroke:none;stroke-width:1px;stroke-linecap:butt;stroke-linejoin:miter;stroke-opacity:1"
     d="M 46.257812 147.37109 C 42.871558 147.37109 40.141852 148.4246 38.066406 150.53125 C 35.99096 152.63791 34.953125 155.47922 34.953125 159.05273 C 34.953125 162.53261 35.943964 165.26232 37.925781 167.24414 C 39.907599 169.22595 42.513935 170.2168 45.744141 170.2168 C 49.099185 170.2168 51.813225 169.13979 53.888672 166.98633 C 55.979723 164.81725 57.025391 161.90739 57.025391 158.25586 C 57.025391 154.83839 56.050217 152.16939 54.099609 150.25 C 52.164607 148.3306 49.550438 147.37109 46.257812 147.37109 z M 72.099609 147.37109 C 68.713355 147.37109 65.983649 148.4246 63.908203 150.53125 C 61.832756 152.63791 60.794922 155.47922 60.794922 159.05273 C 60.794922 162.53261 61.785761 165.26232 63.767578 167.24414 C 65.749395 169.22595 68.355732 170.2168 71.585938 170.2168 C 74.940982 170.2168 77.655022 169.13979 79.730469 166.98633 C 81.82152 164.81725 82.867188 161.90739 82.867188 158.25586 C 82.867187 154.83839 81.892014 152.16939 79.941406 150.25 C 78.006404 148.3306 75.392235 147.37109 72.099609 147.37109 z M 97.941406 147.37109 C 94.555152 147.37109 91.825446 148.4246 89.75 150.53125 C 87.674553 152.63791 86.636719 155.47922 86.636719 159.05273 C 86.636719 162.53261 87.627558 165.26232 89.609375 167.24414 C 91.591192 169.22595 94.197528 170.2168 97.427734 170.2168 C 100.78278 170.2168 103.49682 169.13979 105.57227 166.98633 C 107.66331 164.81725 108.70898 161.90739 108.70898 158.25586 C 108.70898 154.83839 107.73381 152.16939 105.7832 150.25 C 103.8482 148.3306 101.23403 147.37109 97.941406 147.37109 z M 123.7832 147.37109 C 120.39695 147.37109 117.66724 148.4246 115.5918 150.53125 C 113.51635 152.63791 112.47852 155.47922 112.47852 159.05273 C 112.47852 162.53261 113.46935 165.26232 115.45117 167.24414 C 117.43299 169.22595 120.03933 170.2168 123.26953 170.2168 C 126.62458 170.2168 129.33862 169.13979 131.41406 166.98633 C 133.50512 164.81725 134.55078 161.90739 134.55078 158.25586 C 134.55078 154.83839 133.57561 152.16939 131.625 150.25 C 129.68999 148.3306 127.07583 147.37109 123.7832 147.37109 z M 28.210938 147.60547 C 25.074361 148.16724 21.939311 148.68224 18.802734 149.15039 L 18.919922 150.13477 L 23.716797 150.60156 C 23.779217 153.02032 23.810547 155.79897 23.810547 158.93555 L 23.810547 162.82031 C 23.810547 164.36519 23.794879 165.76921 23.763672 167.0332 C 23.748067 167.42333 23.538539 167.67397 23.132812 167.7832 L 19.316406 168.74219 L 19.410156 169.67969 C 22.28145 169.63289 24.482442 169.60938 26.011719 169.60938 C 27.540995 169.60938 29.747866 169.63289 32.634766 169.67969 L 32.564453 168.74219 L 28.84375 167.7832 C 28.422421 167.67397 28.203107 167.392 28.1875 166.93945 C 28.156293 165.67546 28.140625 164.01492 28.140625 161.95508 L 28.140625 156.24414 C 28.140625 153.34164 28.234616 150.52382 28.421875 147.79297 L 28.210938 147.60547 z M 45.861328 149.15039 C 47.967984 149.15039 49.575648 149.96303 50.683594 151.58594 C 51.791539 153.19324 52.34375 155.58809 52.34375 158.77148 C 52.34375 162.0173 51.836582 164.42782 50.822266 166.00391 C 49.80795 167.58 48.241402 168.36914 46.119141 168.36914 C 44.02809 168.36914 42.420425 167.48601 41.296875 165.72266 C 40.18893 163.95931 39.634766 161.53312 39.634766 158.44336 C 39.634766 155.33799 40.134101 153.01363 41.132812 151.46875 C 42.131523 149.92386 43.707857 149.15039 45.861328 149.15039 z M 71.703125 149.15039 C 73.809782 149.15039 75.415493 149.96303 76.523438 151.58594 C 77.631383 153.19324 78.185547 155.58809 78.185547 158.77148 C 78.185547 162.0173 77.678379 164.42782 76.664062 166.00391 C 75.649747 167.58 74.081245 168.36914 71.958984 168.36914 C 69.867933 168.36914 68.262222 167.48601 67.138672 165.72266 C 66.030727 163.95931 65.476562 161.53312 65.476562 158.44336 C 65.476562 155.33799 65.975898 153.01363 66.974609 151.46875 C 67.97332 149.92386 69.549654 149.15039 71.703125 149.15039 z M 97.544922 149.15039 C 99.651578 149.15039 101.25729 149.96303 102.36523 151.58594 C 103.47318 153.19324 104.02734 155.58809 104.02734 158.77148 C 104.02734 162.0173 103.52018 164.42782 102.50586 166.00391 C 101.49155 167.58 99.923043 168.36914 97.800781 168.36914 C 95.70973 168.36914 94.104019 167.48601 92.980469 165.72266 C 91.872523 163.95931 91.318359 161.53312 91.318359 158.44336 C 91.318359 155.33799 91.817695 153.01363 92.816406 151.46875 C 93.815117 149.92386 95.391451 149.15039 97.544922 149.15039 z M 123.38477 149.15039 C 125.49142 149.15039 127.09908 149.96303 128.20703 151.58594 C 129.31498 153.19324 129.86914 155.58809 129.86914 158.77148 C 129.86914 162.0173 129.36197 164.42782 128.34766 166.00391 C 127.33334 167.58 125.76484 168.36914 123.64258 168.36914 C 121.55152 168.36914 119.94386 167.48601 118.82031 165.72266 C 117.71237 163.95931 117.16016 161.53312 117.16016 158.44336 C 117.16016 155.33799 117.65949 153.01363 118.6582 151.46875 C 119.65691 149.92386 121.23129 149.15039 123.38477 149.15039 z "
     id="path4182" />
  <path
     style="font-style:normal;font-variant:normal;font-weight:normal;font-stretch:normal;font-size:medium;line-height:125%;font-family:Constantia;-inkscape-font-specification:'Constantia, Normal';text-align:start;letter-spacing:0px;word-spacing:0px;writing-mode:lr-tb;text-anchor:start;fill:#cccccc;fill-opacity:1;stroke:none;stroke-width:1px;stroke-linecap:butt;stroke-linejoin:miter;stroke-opacity:1"
     d="M 127.26953 174.08594 C 125.85286 174.08594 124.74479 174.49488 123.94336 175.3125 C 123.14597 176.12607 122.74609 177.23429 122.74609 178.63477 C 122.74609 179.97858 123.1167 181.04469 123.85742 181.83398 C 124.60218 182.61922 125.65185 183.01172 127.00781 183.01172 C 128.43663 183.01172 129.54846 182.58633 130.3418 181.73633 C 131.13918 180.88228 131.53711 179.75595 131.53711 178.35547 C 131.53711 177.03594 131.16469 175.99534 130.41992 175.23438 C 129.67921 174.46938 128.62954 174.08594 127.26953 174.08594 z M 89.025391 174.14648 C 88.118721 174.14648 87.390321 174.34733 86.839844 174.74805 C 86.293414 175.14876 86.019531 175.7166 86.019531 176.44922 C 86.019531 176.81351 86.08532 177.13296 86.214844 177.4082 C 86.344368 177.6794 86.515944 177.90937 86.730469 178.09961 C 86.949041 178.2858 87.191841 178.45013 87.458984 178.5918 C 87.726128 178.73346 88.001822 178.86489 88.285156 178.98633 C 88.53611 179.09966 88.77891 179.21465 89.013672 179.33203 C 89.248435 179.44536 89.456529 179.57318 89.638672 179.71484 C 89.824863 179.85651 89.972745 180.02628 90.082031 180.22461 C 90.191317 180.4189 90.246094 180.64525 90.246094 180.9043 C 90.246094 181.39811 90.076329 181.77973 89.736328 182.04688 C 89.400375 182.31402 88.931222 182.44727 88.328125 182.44727 C 87.878838 182.44727 87.438815 182.36141 87.009766 182.19141 L 86.583984 180.4668 L 86.3125 180.50977 L 86.013672 182.57422 L 86.050781 182.62305 C 86.831974 182.84162 87.543927 182.95117 88.1875 182.95117 C 89.187265 182.95117 89.968629 182.7375 90.53125 182.3125 C 91.097918 181.8875 91.380859 181.27228 91.380859 180.4668 C 91.380859 180.1268 91.317024 179.83117 91.1875 179.57617 C 91.062023 179.32117 90.892259 179.10207 90.677734 178.91992 C 90.467258 178.73778 90.229893 178.57889 89.966797 178.44531 C 89.703701 178.30769 89.43163 178.17807 89.152344 178.05664 C 88.897343 177.94331 88.65092 177.82832 88.412109 177.71094 C 88.173299 177.59356 87.95977 177.46031 87.769531 177.31055 C 87.583341 177.16079 87.433646 176.9874 87.320312 176.78906 C 87.211027 176.59073 87.15625 176.3588 87.15625 176.0957 C 87.15625 175.63427 87.313191 175.27467 87.628906 175.01562 C 87.948669 174.75658 88.375869 174.62695 88.910156 174.62695 C 89.266348 174.62695 89.65703 174.69818 90.082031 174.83984 L 90.476562 176.35156 L 90.71875 176.30859 L 91.078125 174.41406 L 91.035156 174.37109 C 90.334916 174.22133 89.664917 174.14648 89.025391 174.14648 z M 113.01367 174.25 C 112.617 174.25 112.22994 174.26098 111.85352 174.28125 C 111.47708 174.30145 111.0864 174.31055 110.68164 174.31055 C 110.18783 174.31055 109.68034 174.30331 109.1582 174.28711 L 109.16992 174.54883 L 109.92383 174.78516 C 110.01697 174.81754 110.06436 174.88695 110.06836 174.99219 C 110.07236 175.12575 110.07422 175.27545 110.07422 175.44141 C 110.07822 175.60736 110.08203 175.79357 110.08203 176 L 110.08203 180.92383 C 110.08203 181.16669 110.07822 181.38942 110.07422 181.5918 C 110.07422 181.79013 110.07236 181.96895 110.06836 182.13086 C 110.06431 182.22393 110.00953 182.28791 109.9043 182.32031 L 109.1582 182.54492 L 109.18359 182.80469 C 109.69765 182.79255 110.19969 182.78711 110.68945 182.78711 C 111.06183 182.78711 111.40136 182.79255 111.70898 182.80469 C 112.0166 182.81682 112.36715 182.82422 112.75977 182.82422 C 114.18858 182.82422 115.29664 182.4097 116.08594 181.58398 C 116.87927 180.75422 117.27539 179.59137 117.27539 178.09375 C 117.27539 176.82279 116.91941 175.86623 116.20703 175.22266 C 115.49464 174.57504 114.43034 174.25 113.01367 174.25 z M 67.896484 174.28711 L 67.908203 174.54883 L 68.460938 174.71875 C 68.618795 174.76328 68.744795 174.83993 68.837891 174.94922 C 68.935033 175.05851 69.059222 175.23552 69.208984 175.48242 L 71.345703 179.1875 L 71.345703 180.9043 C 71.345703 181.14716 71.34391 181.36989 71.339844 181.57227 C 71.339844 181.7706 71.338051 181.95137 71.333984 182.11328 C 71.325889 182.21043 71.271113 182.27245 71.169922 182.30078 L 70.355469 182.54492 L 70.380859 182.80469 C 70.939432 182.79255 71.463362 182.78711 71.953125 182.78711 C 72.430746 182.78711 72.952863 182.79255 73.519531 182.80469 L 73.507812 182.54492 L 72.753906 182.3125 C 72.616306 182.27607 72.545082 182.20862 72.541016 182.10742 C 72.536989 181.94552 72.533364 181.76474 72.529297 181.56641 L 72.529297 180.9043 L 72.529297 179.05859 L 74.630859 175.3125 C 74.711812 175.17083 74.790283 175.05222 74.867188 174.95508 C 74.94814 174.85794 75.061317 174.78672 75.207031 174.74219 L 75.820312 174.54883 L 75.796875 174.28711 C 75.379969 174.30331 74.949004 174.31055 74.507812 174.31055 C 74.05043 174.31055 73.60316 174.30331 73.166016 174.28711 L 73.179688 174.56641 L 73.724609 174.71289 C 73.902705 174.76146 73.992188 174.84718 73.992188 174.97266 C 73.992188 175.0617 73.957482 175.17488 73.888672 175.3125 C 73.819863 175.45012 73.735956 175.61626 73.634766 175.81055 L 72.232422 178.46484 L 70.628906 175.67773 C 70.535809 175.51583 70.457338 175.37338 70.392578 175.25195 C 70.331865 175.12647 70.300781 175.0225 70.300781 174.9375 C 70.300781 174.88081 70.319042 174.83327 70.355469 174.79688 C 70.391897 174.75641 70.454063 174.72534 70.539062 174.70508 L 71.109375 174.54883 L 71.083984 174.28711 C 70.501126 174.30331 69.937055 174.31055 69.390625 174.31055 C 68.763242 174.31055 68.264818 174.30331 67.896484 174.28711 z M 91.861328 174.28711 L 91.818359 174.33594 L 91.976562 176.50977 L 92.21875 176.4668 L 92.759766 174.85156 L 94.902344 174.85156 L 94.902344 180.91016 C 94.902344 181.38778 94.898718 181.78027 94.890625 182.08789 C 94.886577 182.18503 94.833613 182.24901 94.732422 182.27734 L 93.833984 182.54492 L 93.859375 182.80469 C 94.462472 182.79255 95.011907 182.78711 95.509766 182.78711 C 95.991434 182.78711 96.546445 182.79255 97.173828 182.80469 L 97.162109 182.54492 L 96.263672 182.27734 C 96.162501 182.24901 96.109535 182.18503 96.105469 182.08789 C 96.097375 181.78027 96.091797 181.38778 96.091797 180.91016 L 96.091797 174.85156 L 98.236328 174.85156 L 98.625 176.50977 L 98.867188 176.4668 L 99.25 174.33594 L 99.212891 174.28711 C 98.205031 174.30331 97.248466 174.31055 96.341797 174.31055 L 94.720703 174.31055 C 93.809986 174.31055 92.857045 174.30331 91.861328 174.28711 z M 99.693359 174.28711 L 99.705078 174.54883 L 100.45898 174.78516 C 100.55213 174.81754 100.59952 174.88695 100.60352 174.99219 C 100.60752 175.12575 100.60938 175.27545 100.60938 175.44141 C 100.61337 175.60736 100.61719 175.79357 100.61719 176 L 100.61719 179.48438 C 100.61719 180.69057 100.8873 181.58149 101.42969 182.15625 C 101.97207 182.72697 102.81183 183.01172 103.94922 183.01172 C 105.11089 183.01172 105.96167 182.69407 106.5 182.05859 C 107.04239 181.42311 107.3125 180.4409 107.3125 179.11328 L 107.3125 176 L 107.3125 175.44141 C 107.31657 175.27545 107.32022 175.12575 107.32422 174.99219 C 107.32827 174.88697 107.37761 174.81756 107.4707 174.78516 L 108.23633 174.54883 L 108.21094 174.28711 C 107.70498 174.30331 107.27597 174.31055 106.92383 174.31055 C 106.55549 174.31055 106.11561 174.30331 105.60156 174.28711 L 105.61328 174.56641 L 106.32422 174.77344 C 106.42546 174.80582 106.47647 174.86784 106.48047 174.96094 C 106.48854 175.1026 106.49414 175.25773 106.49414 175.42773 C 106.49814 175.59369 106.5 175.77628 106.5 175.97461 L 106.5 179.36914 C 106.5 180.44985 106.31379 181.22021 105.94141 181.68164 C 105.56903 182.14307 104.96649 182.375 104.13672 182.375 C 103.3191 182.375 102.72771 182.15226 102.35938 181.70703 C 101.99104 181.25774 101.80664 180.45449 101.80664 179.29688 L 101.80664 175.97461 L 101.80664 175.42773 C 101.81071 175.25773 101.81436 175.1026 101.81836 174.96094 C 101.82645 174.85972 101.87942 174.7977 101.97656 174.77344 L 102.72852 174.54883 L 102.70508 174.28711 C 102.18698 174.30331 101.68493 174.31055 101.19922 174.31055 C 100.71755 174.31055 100.2155 174.30331 99.693359 174.28711 z M 118.50781 174.28711 L 118.52148 174.54883 L 119.27344 174.78516 C 119.36658 174.81754 119.41592 174.88695 119.41992 174.99219 C 119.42392 175.12575 119.42578 175.27545 119.42578 175.44141 C 119.42978 175.60736 119.43164 175.79357 119.43164 176 L 119.43164 180.92383 C 119.43164 181.16669 119.42978 181.38942 119.42578 181.5918 C 119.42578 181.79013 119.42392 181.96895 119.41992 182.13086 C 119.41183 182.228 119.35705 182.29198 119.25586 182.32031 L 118.50781 182.54492 L 118.5332 182.80469 C 119.04725 182.79255 119.5493 182.78711 120.03906 182.78711 C 120.52073 182.78711 121.02278 182.79255 121.54492 182.80469 L 121.53125 182.54492 L 120.8457 182.33203 C 120.70804 182.2956 120.63681 182.22619 120.63281 182.125 C 120.62875 181.96309 120.62509 181.78232 120.62109 181.58398 L 120.62109 180.92383 L 120.62109 175.97461 L 120.62109 175.42773 C 120.62516 175.25773 120.62881 175.1026 120.63281 174.96094 C 120.64091 174.85972 120.69387 174.7977 120.79102 174.77344 L 121.54492 174.54883 L 121.51953 174.28711 C 121.00143 174.30331 120.49939 174.31055 120.01367 174.31055 C 119.53201 174.31055 119.02996 174.30331 118.50781 174.28711 z M 127.05078 174.57812 C 128.1234 174.57812 128.91759 174.92323 129.43164 175.61133 C 129.94569 176.29943 130.20117 177.28149 130.20117 178.56055 C 130.20117 179.92459 129.95838 180.92688 129.47266 181.56641 C 128.99099 182.20189 128.24252 182.51953 127.22656 182.51953 C 126.19442 182.51953 125.41124 182.16899 124.87695 181.46875 C 124.34267 180.76446 124.07617 179.75312 124.07617 178.43359 C 124.07617 177.13835 124.31172 176.17258 124.78125 175.53711 C 125.25482 174.89758 126.01054 174.57812 127.05078 174.57812 z M 112.625 174.76562 C 113.77453 174.76562 114.61429 175.0724 115.14453 175.68359 C 115.67477 176.29074 115.93945 177.22542 115.93945 178.48828 C 115.93945 179.78757 115.66014 180.75333 115.10156 181.38477 C 114.54299 182.01215 113.73068 182.32617 112.66211 182.32617 C 112.4314 182.32617 112.19946 182.32057 111.96875 182.3125 C 111.74208 182.30037 111.5103 182.27849 111.27148 182.24609 L 111.27148 174.82227 C 111.55077 174.802 111.799 174.78736 112.01758 174.7793 C 112.2402 174.77116 112.44286 174.76562 112.625 174.76562 z M 82.304688 177.01953 C 81.543733 177.01953 80.78425 177.27697 80.027344 177.79102 L 80.257812 178.19141 C 80.727338 177.94045 81.192867 177.81445 81.654297 177.81445 C 82.046917 177.81445 82.379199 177.924 82.650391 178.14258 C 82.921581 178.36114 83.056641 178.65691 83.056641 179.0293 C 83.056641 179.21144 83.02751 179.38483 82.966797 179.55078 C 82.906082 179.71673 82.8166 179.88106 82.699219 180.04297 C 82.585885 180.20083 82.443438 180.35958 82.273438 180.52148 C 82.103437 180.68339 81.908166 180.85511 81.685547 181.0332 C 81.462927 181.21535 81.200056 181.41061 80.896484 181.62109 C 80.592912 181.83157 80.249617 182.05973 79.869141 182.30664 L 79.912109 182.80469 C 80.616397 182.79255 81.38675 182.78711 82.224609 182.78711 C 83.127231 182.78711 83.992643 182.79255 84.818359 182.80469 L 84.861328 182.76172 L 84.982422 180.81445 L 84.714844 180.86328 L 84.242188 181.86328 L 81.224609 181.86328 L 81.216797 181.83398 C 81.70656 181.54255 82.14296 181.26686 82.523438 181.00781 C 82.903915 180.74472 83.225185 180.48548 83.488281 180.23047 C 83.751377 179.97547 83.952224 179.71622 84.089844 179.45312 C 84.227463 179.18598 84.296875 178.89942 84.296875 178.5918 C 84.296875 178.09799 84.105087 177.71274 83.724609 177.4375 C 83.34818 177.15821 82.875404 177.01953 82.304688 177.01953 z M 78.181641 177.08008 C 77.368067 177.2258 76.555762 177.35904 75.742188 177.48047 L 75.771484 177.73633 L 77.015625 177.85742 C 77.031818 178.4848 77.041016 179.204 77.041016 180.01758 L 77.041016 181.02539 C 77.041016 181.42611 77.03739 181.79129 77.029297 182.11914 C 77.025249 182.22033 76.970472 182.28417 76.865234 182.3125 L 75.875 182.5625 L 75.898438 182.80469 C 76.643201 182.79255 77.214661 182.78711 77.611328 182.78711 C 78.007996 182.78711 78.581266 182.79255 79.330078 182.80469 L 79.310547 182.5625 L 78.345703 182.3125 C 78.236436 182.28417 78.179848 182.21308 78.175781 182.0957 C 78.167688 181.76784 78.164062 181.33507 78.164062 180.80078 L 78.164062 179.32031 C 78.164062 178.56745 78.187755 177.83724 78.236328 177.12891 L 78.181641 177.08008 z "
     id="path4199" />
  <path
     style="fill:#f7931a"
     d="M 395.20312 167.03711 C 391.46005 166.87797 387.99426 169.36201 387.05273 173.13867 C 385.97671 177.45387 388.60347 181.82486 392.91992 182.90039 C 397.23561 183.97692 401.60756 181.34985 402.68359 177.03516 C 403.75987 172.71871 401.13431 168.34751 396.81836 167.27148 C 396.27883 167.13698 395.73785 167.05984 395.20312 167.03711 z M 393.3418 171.51758 C 393.4609 171.50843 393.5867 171.51316 393.7207 171.5332 C 394.50544 171.64926 394.88439 172.08457 395.01758 172.66211 C 395.43047 171.86902 396.06443 171.46517 397.16211 171.84961 C 398.52539 172.3267 398.64072 173.46145 398.35547 174.96875 L 399.82227 175.33398 L 399.60156 176.21875 L 398.1543 175.85742 C 398.0974 176.08652 398.03816 176.31936 397.97266 176.56055 L 399.42578 176.92383 L 399.20508 177.80664 L 397.73633 177.44141 C 397.68346 177.64785 397.62782 177.85631 397.57422 178.07031 L 397.28711 179.2207 L 396.27539 178.7832 C 396.27539 178.7832 396.44835 178.13163 396.43555 178.14062 C 396.49748 177.89037 396.33337 177.77818 396.22461 177.73438 L 393.9082 177.15625 C 393.916 177.12375 393.92464 177.0919 393.93164 177.0625 C 393.91754 177.0978 393.90834 177.13155 393.90234 177.15625 L 392.24609 176.74219 C 392.05827 176.73136 391.82182 176.79629 391.73242 177.1543 C 391.7231 177.14045 391.57422 177.79688 391.57422 177.79688 L 390.62891 177.5625 L 390.93359 176.3418 L 390.93945 176.34375 C 390.98503 176.16047 391.02847 175.97165 391.07227 175.7793 L 389.61914 175.41602 L 389.83984 174.5332 L 391.26367 174.88867 C 391.3178 174.65151 391.37179 174.41206 391.42969 174.17969 L 390.01562 173.82812 L 390.23633 172.94336 L 391.6875 173.30664 C 392.02388 172.33009 392.50808 171.58163 393.3418 171.51758 z M 393.35156 173.26367 C 392.60768 173.40419 392.41546 174.69034 392.30664 175.12695 L 394.07227 175.56641 C 394.19664 175.06741 394.70356 173.52854 393.70508 173.2793 C 393.57489 173.24685 393.45783 173.2436 393.35156 173.26367 z M 396.16211 173.54297 C 395.3365 173.72768 395.09375 175.26477 394.96289 175.78906 L 396.9082 176.27344 C 397.05699 175.67424 397.65041 173.82589 396.55273 173.55273 C 396.40964 173.51705 396.28005 173.51658 396.16211 173.54297 z "
     id="path4161-2" />
  <path
     style="fill:#4d4d4d"
     d="M 394.69531 105.99219 C 394.06317 106.04493 393.5168 106.22278 393.05469 106.52539 C 392.13048 107.13113 391.66602 108.22673 391.66602 109.81836 C 391.66602 110.3599 391.68968 110.84765 391.73828 111.27539 C 391.78586 111.70314 391.84803 112.09284 391.92383 112.4375 C 391.99735 112.78594 392.07842 113.09775 392.16602 113.37695 C 392.25363 113.65515 392.33534 113.91152 392.40234 114.14062 L 402.63672 116.60938 L 402.63672 113.57031 L 394.33984 111.5918 C 394.25828 111.18319 394.21484 110.78217 394.21484 110.38867 C 394.21484 109.98056 394.29338 109.67961 394.44922 109.48047 C 394.60758 109.28434 394.81275 109.15907 395.0625 109.10547 C 395.31527 109.04937 395.60618 109.04565 395.9375 109.09375 C 396.27184 109.14133 396.61477 109.20501 396.96875 109.28711 L 402.63672 110.63281 L 402.63672 107.5957 L 396.84766 106.20703 C 396.04605 106.01066 395.32746 105.93944 394.69531 105.99219 z M 388.54883 115.31445 C 388.03347 115.31445 387.64899 115.48655 387.39648 115.82617 C 387.14522 116.16555 387.01953 116.54679 387.01953 116.96875 C 387.01953 117.25374 387.07338 117.52269 387.18164 117.77344 C 387.29166 118.02369 387.43831 118.24597 387.62109 118.43555 C 387.80538 118.62638 388.02168 118.77948 388.27344 118.89453 C 388.52571 119.00955 388.79314 119.06836 389.07812 119.06836 C 389.59625 119.06836 389.98072 118.89847 390.23047 118.55859 C 390.48172 118.22023 390.60742 117.83697 390.60742 117.41602 C 390.60742 117.12952 390.55533 116.86214 390.44531 116.60938 C 390.33629 116.35863 390.19084 116.13861 390.00781 115.94727 C 389.82352 115.75719 389.60723 115.60428 389.35547 115.49023 C 389.10371 115.37616 388.83483 115.31445 388.54883 115.31445 z M 391.91406 116.31445 L 391.91406 119.35547 L 402.63867 121.9043 L 402.63867 118.88281 L 391.91406 116.31445 z M 396.05078 122.17188 C 395.39897 122.17188 394.80333 122.26001 394.26758 122.4375 C 393.72982 122.61374 393.26635 122.87579 392.87109 123.2207 C 392.47784 123.56939 392.16989 124.00942 391.95312 124.54492 C 391.73585 125.08293 391.62695 125.70491 391.62695 126.41211 C 391.62695 127.37586 391.83465 128.2345 392.24805 128.98047 C 392.66421 129.72719 393.19679 130.3609 393.84961 130.875 C 394.50142 131.39312 395.23457 131.78498 396.05078 132.04883 C 396.86523 132.31393 397.68303 132.44531 398.5 132.44531 C 399.15131 132.44531 399.74645 132.35963 400.2832 132.18164 C 400.82021 132.00364 401.28448 131.74366 401.67773 131.39648 C 402.073 131.04981 402.37843 130.61123 402.5957 130.08203 C 402.81297 129.55131 402.92383 128.92537 402.92383 128.20508 C 402.92383 127.21263 402.71518 126.33972 402.30078 125.58594 C 401.88638 124.83116 401.35298 124.20174 400.70117 123.69922 C 400.04785 123.1957 399.31294 122.81564 398.5 122.55859 C 397.68303 122.30179 396.86523 122.17188 396.05078 122.17188 z M 396.35742 125.1875 C 396.77837 125.1875 397.22533 125.24533 397.69336 125.35938 C 398.16264 125.47594 398.59503 125.64975 398.98828 125.88086 C 399.38254 126.11274 399.70925 126.39847 399.9668 126.73633 C 400.22611 127.07696 400.35352 127.47103 400.35352 127.91992 C 400.35352 128.49116 400.1626 128.88474 399.7832 129.10352 C 399.40178 129.31928 398.87192 129.42773 398.19141 129.42773 C 397.76971 129.42773 397.32695 129.37142 396.85742 129.25586 C 396.38889 129.13929 395.95776 128.96699 395.5625 128.73438 C 395.16899 128.50426 394.84159 128.21879 394.58203 127.87891 C 394.32548 127.54029 394.19727 127.14465 394.19727 126.69727 C 394.19727 126.12653 394.38818 125.73119 394.76758 125.51367 C 395.1485 125.29589 395.67867 125.1875 396.35742 125.1875 z M 392.25781 132.23242 C 392.06798 132.62793 391.91784 133.06545 391.80078 133.54883 C 391.68471 134.0302 391.62695 134.57691 391.62695 135.18945 C 391.62695 136.16804 391.80378 137.05462 392.15625 137.84766 C 392.51073 138.64449 392.99401 139.32328 393.60352 139.87891 C 394.21606 140.43657 394.92988 140.86572 395.74609 141.16406 C 396.56155 141.4629 397.43175 141.61133 398.35547 141.61133 C 398.96599 141.61133 399.55248 141.52516 400.10938 141.35547 C 400.66678 141.18579 401.15245 140.91148 401.56836 140.5293 C 401.98327 140.14914 402.30991 139.66612 402.55664 139.08203 C 402.79959 138.49819 402.92383 137.78456 402.92383 136.94141 C 402.92383 136.30269 402.86499 135.7518 402.75195 135.28906 C 402.63488 134.82733 402.49959 134.40707 402.35156 134.02539 L 399.92578 134.25 C 400.04713 134.53625 400.15082 134.8624 400.23242 135.23047 C 400.31297 135.59578 400.35352 135.97583 400.35352 136.37109 C 400.35352 137.17195 400.14164 137.72485 399.71289 138.02344 C 399.28414 138.32354 398.7224 138.47266 398.0293 138.47266 C 396.85987 138.47266 395.92893 138.17632 395.23633 137.58594 C 394.54424 136.99329 394.19531 136.19675 394.19531 135.18945 C 394.19531 134.76775 394.24018 134.41118 394.33008 134.11914 C 394.4182 133.82734 394.51473 133.54534 394.625 133.27344 L 392.25781 132.23242 z M 391.91406 141.47852 L 391.91406 144.86523 L 388.75195 144.08789 L 389.24219 147.25 L 397.68359 149.24805 C 398.37694 149.41094 399.03572 149.5053 399.66211 149.5332 C 400.28698 149.56014 400.84115 149.46381 401.32227 149.24805 C 401.80514 149.02927 402.18563 148.6636 402.46484 148.14648 C 402.74203 147.6286 402.88086 146.9024 402.88086 145.96484 C 402.88086 145.31278 402.82852 144.74806 402.71875 144.27148 C 402.61049 143.79565 402.48157 143.35513 402.33203 142.94727 L 400.00781 143.17188 C 400.11783 143.48457 400.20132 143.79278 400.26172 144.09766 C 400.32312 144.40431 400.35352 144.72135 400.35352 145.04688 C 400.35352 145.44214 400.29897 145.74461 400.18945 145.95508 C 400.0817 146.16656 399.93005 146.31148 399.73242 146.39258 C 399.53529 146.47418 399.29999 146.50904 399.02734 146.49414 C 398.75594 146.48105 398.46502 146.43416 398.15234 146.35156 L 394.40039 145.45508 L 394.40039 142.08984 L 391.91406 141.47852 z M 388.54883 148.89648 C 388.03347 148.89648 387.64899 149.06543 387.39648 149.4043 C 387.14522 149.74443 387.01953 150.12592 387.01953 150.54688 C 387.01953 150.83288 387.07338 151.10125 387.18164 151.35352 C 387.29166 151.60427 387.43831 151.82504 387.62109 152.01562 C 387.80538 152.20647 388.02168 152.35804 388.27344 152.47461 C 388.52571 152.58942 388.79314 152.64648 389.07812 152.64648 C 389.59625 152.64648 389.98072 152.47836 390.23047 152.13672 C 390.48172 151.79785 390.60742 151.41534 390.60742 150.99414 C 390.60742 150.70915 390.55533 150.44197 390.44531 150.18945 C 390.33629 149.9392 390.19084 149.71641 390.00781 149.52734 C 389.82352 149.3365 389.60723 149.18537 389.35547 149.07031 C 389.10371 148.95445 388.83483 148.89648 388.54883 148.89648 z M 391.91406 149.89453 L 391.91406 152.93164 L 402.63867 155.48047 L 402.63867 152.46289 L 391.91406 149.89453 z M 396.07031 155.74023 C 395.45928 155.74023 394.89033 155.81435 394.35938 155.96289 C 393.82992 156.11244 393.36793 156.34312 392.97266 156.6543 C 392.57941 156.96976 392.26532 157.36326 392.0332 157.83984 C 391.80334 158.31416 391.6875 158.87988 391.6875 159.5332 C 391.6875 159.84538 391.72136 160.13605 391.78906 160.4082 C 391.85779 160.6801 391.95237 160.95227 392.07422 161.22266 L 386.81445 159.96094 L 387.30469 163.12109 L 402.12695 166.64844 C 402.31779 166.25393 402.46892 165.83366 402.57617 165.39258 C 402.68543 164.95124 402.76717 164.53393 402.82227 164.13867 C 402.87537 163.74592 402.90611 163.39498 402.91211 163.08984 C 402.91811 162.78471 402.92188 162.56817 402.92188 162.44531 C 402.92187 161.49516 402.74138 160.61083 402.38086 159.79688 C 402.02059 158.98168 401.53264 158.27447 400.91406 157.67578 C 400.29473 157.07659 399.56953 156.60694 398.73242 156.25977 C 397.89657 155.91259 397.00888 155.74023 396.07031 155.74023 z M 396.29492 158.75586 C 396.82589 158.75586 397.337 158.84524 397.82617 159.02148 C 398.31534 159.19771 398.75191 159.43875 399.14062 159.74414 C 399.52757 160.04952 399.83825 160.41543 400.06836 160.83789 C 400.29822 161.25909 400.41602 161.70776 400.41602 162.18359 C 400.41602 162.33289 400.41602 162.45243 400.41602 162.54883 C 400.41602 162.64525 400.4123 162.72522 400.4043 162.79492 C 400.3975 162.86088 400.38685 162.92643 400.37305 162.98633 C 400.36015 163.04751 400.34633 163.12007 400.33203 163.20117 L 394.74609 161.85547 C 394.52983 161.6095 394.38561 161.33595 394.31641 161.0293 C 394.25119 160.72366 394.21484 160.4765 394.21484 160.28516 C 394.21484 159.70133 394.39931 159.2993 394.76562 159.08203 C 395.13344 158.86476 395.64261 158.75586 396.29492 158.75586 z "
     id="path4165-1" />
  <rect
     style="opacity:1;fill:none;fill-opacity:1;stroke:#f1f1f1;stroke-width:1;stroke-miterlimit:1;stroke-dasharray:none;stroke-dashoffset:0;stroke-opacity:1;stroke-linejoin:miter"
     id="rect4181"
     width="418.88248"
     height="196.9437"
     x="0.40570259"
     y="0.65060055"
     ry="3.8447275" />
  <path
     inkscape:connector-curvature="0"
     style="fill:#f7931a"
     d="m 41.154833,95.844044 c -0.681826,-3.68389 -3.877912,-6.50651 -7.769477,-6.57975 -4.446541,-0.0839 -8.119532,3.45367 -8.202689,7.90132 -0.0843,4.447136 3.453807,8.120996 7.899854,8.205036 4.447817,0.0839 8.121281,-3.45259 8.205038,-7.899856 0.01046,-0.55595 -0.03532,-1.10048 -0.132726,-1.62675 z m -4.783217,-0.81238 c 0.0354,0.11407 0.05866,0.2378 0.06952,0.37279 0.06234,0.79083 -0.277214,1.25752 -0.810351,1.51647 0.865331,0.2251 1.400708,0.75271 1.271438,1.90856 -0.160186,1.435436 -1.240419,1.801576 -2.773338,1.860576 l -0.02801,1.51132 -0.911719,-0.0173 0.02858,-1.49141 c -0.236023,-0.004 -0.476213,-0.01 -0.725943,-0.0198 l -0.02917,1.49756 -0.909806,-0.0177 0.02758,-1.51323 c -0.213042,-0.005 -0.428658,-0.013 -0.649225,-0.0174 l -1.185461,-0.0226 0.200207,-1.083926 c 0,0 0.673746,0.0229 0.662122,0.0124 0.257755,0.004 0.330416,-0.18063 0.348789,-0.29643 l 0.04555,-2.38703 c 0.03347,5.3e-4 0.06634,0.002 0.09656,0.002 -0.03756,-0.006 -0.07256,-0.007 -0.09788,-0.008 l 0.03325,-1.7069 c -0.03147,-0.18548 -0.147596,-0.40143 -0.516531,-0.40852 0.01154,-0.0119 -0.661684,-0.0105 -0.661684,-0.0105 l 0.01708,-0.97379 1.257919,0.024 -6.08e-4,0.006 c 0.188836,0.003 0.38258,0.004 0.579858,0.003 l 0.02917,-1.49757 0.909816,0.0177 -0.02811,1.46726 c 0.243252,-3e-4 0.488718,-10e-4 0.728151,0.003 l 0.02649,-1.45688 0.91171,0.0173 -0.02961,1.49565 c 1.027039,0.10951 1.864814,0.4141 2.113659,1.21239 z m -1.699646,0.40016 c -0.303291,-0.69362 -1.599858,-0.5934 -2.049746,-0.60184 l -0.03354,1.81919 c 0.514175,0.01 2.127429,0.15965 2.147102,-0.86928 0.0026,-0.13416 -0.02049,-0.24897 -0.06384,-0.34806 z m 0.3562,2.80185 c -0.364637,-0.76341 -1.917089,-0.65633 -2.457364,-0.66664 l -0.03715,2.00436 c 0.617299,0.011 2.551538,0.17616 2.572345,-0.95481 0.0028,-0.14745 -0.02578,-0.27385 -0.07759,-0.38297 z"
     id="path4161-2-2" />
</svg>
